<svg width="26" height="27" viewBox="0 0 26 27" fill="none" xmlns="http://www.w3.org/2000/svg">
<path fill-rule="evenodd" clip-rule="evenodd" d="M12.6207 26.1903L12.632 26.1903H12.6281L12.6207 26.1903ZM12.7097 26.1903H12.7058L12.7171 26.1903L12.7097 26.1903ZM12.5822 26.1901L12.5944 26.1901H12.5874L12.5822 26.1901ZM12.7504 26.1901H12.7434L12.7556 26.1901L12.7504 26.1901ZM12.545 26.1898L12.5532 26.1898L12.5467 26.1898H12.545ZM12.7911 26.1898L12.7846 26.1898L12.7928 26.1898H12.7911ZM12.8318 26.1893L12.829 26.1894L12.84 26.1892L12.8318 26.1893ZM12.4978 26.1892L12.5088 26.1894L12.506 26.1893L12.4978 26.1892ZM12.8725 26.1887L12.8658 26.1888L12.8794 26.1886L12.8725 26.1887ZM12.4584 26.1886L12.472 26.1888L12.4653 26.1887L12.4584 26.1886ZM12.9131 26.188L12.9041 26.1881L12.9166 26.1879L12.9131 26.188ZM12.4212 26.1879L12.4337 26.1881L12.4247 26.188L12.4212 26.1879ZM12.375 26.1869L12.3861 26.1872L12.3841 26.1871L12.375 26.1869ZM12.9537 26.1871L12.9517 26.1872L12.9628 26.1869L12.9537 26.1871ZM12.3345 26.1858L12.3497 26.1863L12.3436 26.1861L12.3345 26.1858ZM12.9942 26.1861L12.9881 26.1863L13.0033 26.1858L12.9942 26.1861ZM13.0348 26.185L13.0249 26.1853L13.0405 26.1848L13.0348 26.185ZM12.2973 26.1848L12.3129 26.1853L12.303 26.185L12.2973 26.1848ZM12.2619 26.1837L12.273 26.1841L12.2625 26.1837L12.253 26.1834L12.2619 26.1837ZM13.0753 26.1837L13.0648 26.1841L13.0759 26.1837L13.0848 26.1834L13.0753 26.1837ZM13.1157 26.1823L13.1102 26.1825L13.1272 26.1819L13.1157 26.1823ZM12.2106 26.1819L12.2276 26.1825L12.2221 26.1823L12.2106 26.1819ZM12.1737 26.1805L12.1915 26.1812L12.1816 26.1808L12.1737 26.1805ZM13.1562 26.1808L13.1463 26.1812L13.1641 26.1805L13.1562 26.1808ZM12.1375 26.179L12.1549 26.1797L12.1413 26.1792L12.1375 26.179ZM13.1965 26.1792L13.1829 26.1797L13.2003 26.179L13.1965 26.1792ZM12.0867 26.1767L12.1054 26.1775L12.1008 26.1774L12.0867 26.1767ZM13.2369 26.1774L13.2324 26.1775L13.2511 26.1767L13.2369 26.1774ZM12.0503 26.1749L12.0697 26.1759L12.0605 26.1755L12.0503 26.1749ZM13.2773 26.1755L13.2681 26.1759L13.2875 26.1749L13.2773 26.1755ZM12.0144 26.1731L12.034 26.1741L12.0202 26.1734L12.0144 26.1731ZM13.3176 26.1734L13.3038 26.1741L13.3234 26.1731L13.3176 26.1734ZM13.3579 26.1712L13.34 26.1722L13.3558 26.1713L13.3745 26.1703L13.3579 26.1712ZM11.982 26.1713L11.9978 26.1722L11.9799 26.1712L11.9633 26.1703L11.982 26.1713ZM13.3981 26.1689L13.3902 26.1693L13.4102 26.1682L13.3981 26.1689ZM11.9276 26.1682L11.9476 26.1693L11.9397 26.1689L11.9276 26.1682ZM11.892 26.166L11.912 26.1672L11.8995 26.1665L11.892 26.166ZM13.4383 26.1665L13.4258 26.1672L13.4458 26.166L13.4383 26.1665ZM11.8581 26.1638L11.8761 26.165L11.8593 26.1639L11.8425 26.1628L11.8581 26.1638ZM13.4785 26.1639L13.4617 26.165L13.4797 26.1638L13.4953 26.1628L13.4785 26.1639ZM13.5186 26.1612L13.5126 26.1616L13.5316 26.1603L13.5186 26.1612ZM11.8062 26.1603L11.8252 26.1616L11.8192 26.1612L11.8062 26.1603ZM11.7706 26.1577L11.7894 26.1591L11.7791 26.1584L11.7706 26.1577ZM13.5587 26.1584L13.5484 26.1591L13.5672 26.1577L13.5587 26.1584ZM11.7352 26.1551L11.7524 26.1564L11.739 26.1554L11.7352 26.1551ZM13.5988 26.1554L13.5854 26.1564L13.6026 26.1551L13.5988 26.1554ZM11.6876 26.1514L11.7026 26.1526L11.699 26.1523L11.6876 26.1514ZM13.6388 26.1523L13.6352 26.1526L13.6502 26.1514L13.6388 26.1523ZM13.6788 26.1491L13.6716 26.1497L13.6869 26.1484L13.6788 26.1491ZM11.6509 26.1484L11.6662 26.1497L11.659 26.1491L11.6509 26.1484ZM11.6152 26.1454L11.6282 26.1465L11.619 26.1458L11.6152 26.1454ZM13.7188 26.1458L13.7096 26.1465L13.7226 26.1454L13.7188 26.1458ZM11.5759 26.142L11.5798 26.1423L11.5791 26.1423L11.5759 26.142ZM13.7587 26.1423L13.758 26.1423L13.7619 26.142L13.7587 26.1423ZM13.7986 26.1387L13.795 26.139L13.804 26.1382L13.7986 26.1387ZM11.5338 26.1382L11.5428 26.139L11.5392 26.1387L11.5338 26.1382ZM11.4969 26.1347L11.5035 26.1354L11.4994 26.135L11.4969 26.1347ZM13.8384 26.135L13.8343 26.1354L13.8409 26.1347L13.8384 26.135ZM10.698 26.0318C4.67121 25.0524 0.0554199 19.6535 0.0554199 13.1488C0.0554199 5.95103 5.70734 0.1073 12.6689 0.1073C19.6305 0.1073 25.2824 5.95103 25.2824 13.1488C25.2824 19.6535 20.6666 25.0524 14.6398 26.0318V16.9187H17.5788L18.138 13.1488H14.6398V10.7025C14.6398 9.67113 15.1284 8.66581 16.6953 8.66581H18.2858V5.45637C18.2858 5.45637 16.8424 5.20165 15.4623 5.20165C12.5811 5.20165 10.698 7.00709 10.698 10.2756V13.1488H7.4954V16.9187H10.698V26.0318Z" fill="black"/>
</svg>
