<?xml version="1.0" standalone="no"?>
<!DOCTYPE svg PUBLIC "-//W3C//DTD SVG 20010904//EN"
 "http://www.w3.org/TR/2001/REC-SVG-20010904/DTD/svg10.dtd">
<svg version="1.0" xmlns="http://www.w3.org/2000/svg"
 width="613.000000pt" height="498.000000pt" viewBox="0 0 613.000000 498.000000"
 preserveAspectRatio="xMidYMid meet">

<g transform="translate(0.000000,498.000000) scale(0.100000,-0.100000)"
fill="#000000" stroke="none">
<path d="M1421 4940 c-24 -16 -74 -39 -110 -51 -131 -43 -220 -96 -312 -188
-118 -119 -193 -255 -247 -449 l-21 -72 62 42 c99 68 283 260 417 433 67 88
157 195 198 238 81 82 84 93 13 47z"/>
<path d="M4721 4893 c41 -43 129 -148 195 -233 139 -180 288 -339 388 -413
101 -76 97 -76 76 -2 -99 348 -277 551 -561 644 -36 12 -87 35 -113 51 -26 17
-50 30 -53 30 -4 0 27 -35 68 -77z"/>
<path d="M2751 4660 c-17 -44 -49 -139 -71 -210 -35 -109 -46 -133 -68 -146
-26 -15 -25 -15 28 -10 30 3 65 6 78 6 12 0 22 5 22 10 0 6 -11 10 -25 10 -34
0 -40 19 -25 81 14 56 12 55 93 62 l57 6 25 -49 c31 -61 31 -78 3 -90 -16 -6
8 -9 80 -9 96 -1 131 9 80 23 -18 4 -46 52 -123 201 -55 107 -105 195 -112
195 -6 0 -25 -36 -42 -80z m60 -172 c-9 -4 -35 -7 -58 -7 l-42 -1 20 58 c10
31 22 64 25 72 4 10 17 -8 39 -50 29 -57 31 -66 16 -72z"/>
<path d="M3225 4729 c52 -15 54 -24 32 -185 -22 -173 -28 -191 -64 -206 -26
-11 -21 -12 52 -19 88 -8 102 -5 59 11 -35 14 -44 27 -39 60 2 14 9 81 16 149
11 113 13 121 26 98 18 -35 99 -258 108 -296 3 -17 10 -33 15 -36 5 -3 33 29
61 72 73 109 170 235 176 230 4 -5 -29 -184 -48 -260 -8 -28 -18 -42 -40 -51
-29 -12 -26 -13 71 -33 55 -11 100 -16 100 -12 0 4 -9 11 -20 14 -26 8 -26 34
5 186 38 185 39 189 83 189 50 1 25 14 -56 31 l-63 13 -27 -34 c-15 -18 -62
-78 -105 -133 l-77 -99 -14 34 c-7 18 -35 88 -61 154 -47 121 -48 122 -84 128
-20 3 -58 5 -86 5 -46 -1 -47 -2 -20 -10z"/>
<path d="M825 4662 c-171 -71 -314 -248 -359 -442 -12 -51 -16 -131 -16 -364
l0 -298 54 69 c35 44 118 123 228 214 248 207 303 261 337 333 31 63 111 290
111 310 0 6 -15 -15 -32 -47 -37 -68 -108 -136 -233 -226 -191 -136 -291 -235
-346 -343 -11 -21 -21 -38 -24 -38 -2 0 12 45 30 100 19 55 52 174 75 263 74
294 94 341 178 429 59 62 59 66 -3 40z"/>
<path d="M2285 4654 c-55 -14 -104 -29 -110 -36 -7 -8 -4 -9 12 -5 12 2 29 0
38 -7 14 -10 95 -294 95 -336 0 -10 -10 -26 -22 -36 l-23 -16 25 6 c14 3 60
13 103 23 42 9 77 20 77 25 0 5 -8 7 -17 4 -31 -9 -46 10 -63 81 l-18 68 42 6
c55 9 119 42 145 75 23 29 28 92 11 125 -30 54 -133 62 -295 23z m175 -19 c17
-18 25 -40 28 -78 4 -46 1 -55 -22 -79 -32 -31 -84 -42 -90 -19 -3 9 -13 53
-22 99 -20 95 -17 102 47 102 25 0 42 -7 59 -25z"/>
<path d="M5307 4617 c75 -80 102 -145 167 -403 26 -100 62 -227 81 -283 18
-56 32 -101 30 -101 -3 0 -13 17 -24 38 -56 110 -147 199 -361 354 -125 91
-179 144 -219 218 -17 30 -31 50 -31 44 0 -19 89 -273 111 -316 32 -63 97
-126 319 -313 140 -117 219 -192 250 -234 l45 -62 3 296 c3 338 -3 377 -69
513 -55 110 -153 216 -246 264 -118 62 -126 59 -56 -15z"/>
<path d="M3915 4616 l30 -24 -29 -109 c-38 -139 -43 -208 -18 -248 27 -43 111
-86 180 -92 104 -8 132 22 229 246 32 73 32 73 68 69 19 -2 35 -1 35 2 0 5
-108 50 -160 67 -8 3 0 -7 18 -22 17 -14 32 -33 32 -42 0 -31 -83 -222 -112
-257 -25 -30 -36 -36 -69 -36 -83 0 -149 52 -149 117 0 39 55 226 76 261 9 14
25 22 42 22 40 1 13 13 -95 44 -112 32 -116 32 -78 2z"/>
<path d="M1885 4475 c-3 -36 -10 -135 -14 -220 -7 -144 -9 -157 -31 -180 -13
-14 -21 -25 -19 -25 10 0 139 57 147 65 4 4 -7 4 -25 1 -39 -9 -53 12 -53 79
0 45 1 47 43 65 83 37 89 36 136 -15 l43 -47 -23 -24 c-12 -13 -21 -24 -18
-24 2 0 49 16 104 35 64 22 90 34 72 34 -18 1 -39 12 -55 29 -15 15 -82 87
-150 160 -68 73 -129 132 -137 132 -8 0 -15 -22 -20 -65z m78 -182 c-58 -27
-77 -29 -69 -7 3 9 6 43 6 77 l0 61 55 -54 56 -55 -48 -22z"/>
<path d="M4454 4419 c14 -17 26 -38 26 -47 -1 -9 -33 -80 -73 -157 -68 -132
-74 -140 -105 -145 -33 -5 -33 -6 42 -42 78 -39 95 -41 51 -6 -14 11 -25 27
-25 36 0 9 29 76 63 147 l64 130 45 -140 c26 -77 56 -184 68 -238 13 -53 26
-100 31 -103 5 -3 55 67 113 154 57 88 110 162 117 164 8 3 25 1 38 -4 48 -18
31 2 -44 51 -87 57 -113 65 -66 22 17 -16 31 -35 31 -43 0 -14 -57 -115 -102
-181 l-26 -39 -16 59 c-9 32 -38 123 -64 203 l-47 145 -65 32 c-82 40 -88 40
-56 2z"/>
<path d="M1511 4368 c-138 -60 -231 -173 -231 -283 0 -142 166 -220 331 -157
25 10 26 9 25 -26 -1 -37 0 -37 42 -40 47 -3 49 -7 26 -40 -25 -36 -10 -37 20
-2 34 41 34 77 1 90 -14 5 -31 7 -39 4 -8 -3 -19 -3 -25 0 -19 12 3 42 56 76
50 32 54 38 49 64 -3 16 -6 39 -6 52 0 13 -4 24 -10 24 -5 0 -10 -15 -10 -34
0 -64 -67 -133 -137 -143 -56 -7 -108 12 -161 61 -81 74 -101 154 -59 236 41
82 171 126 231 79 15 -12 29 -19 32 -16 7 6 -44 87 -54 87 -4 -1 -40 -15 -81
-32z"/>
<path d="M365 4225 c-141 -198 -206 -394 -206 -624 0 -139 17 -234 67 -373 42
-117 124 -392 124 -413 0 -8 4 -15 9 -15 5 0 11 23 15 51 14 107 52 177 249
458 156 223 195 299 247 477 45 154 48 177 18 119 -11 -22 -105 -123 -207
-225 -210 -207 -231 -238 -281 -417 l-27 -96 -8 274 c-5 151 -9 369 -9 484
l-1 210 33 74 c18 41 30 76 28 78 -2 2 -25 -26 -51 -62z"/>
<path d="M5710 4285 c0 -3 15 -38 33 -78 l32 -72 -4 -275 c-2 -151 -4 -370 -5
-487 0 -117 -4 -209 -7 -205 -3 4 -14 39 -24 77 -47 183 -91 249 -300 449 -94
89 -168 169 -186 200 -29 49 -30 50 -24 16 15 -77 78 -269 110 -335 18 -38 75
-128 126 -200 210 -296 282 -424 295 -521 3 -30 10 -54 15 -54 5 0 9 7 9 15 0
21 81 292 128 425 54 154 66 238 59 407 -6 160 -28 254 -88 382 -49 105 -169
287 -169 256z"/>
<path d="M2310 4007 c-24 -7 -29 -12 -17 -14 15 -4 17 -17 17 -104 0 -94 -1
-100 -22 -109 -17 -6 -5 -9 47 -9 52 0 64 3 48 9 -22 9 -23 14 -23 125 0 63
-3 115 -7 114 -5 0 -24 -6 -43 -12z"/>
<path d="M2472 3997 c-27 -29 -28 -58 -2 -82 l21 -19 -26 -23 c-48 -45 -18
-103 55 -103 75 0 113 78 58 121 l-21 17 21 27 c18 22 20 31 10 49 -15 29 -28
36 -64 36 -19 0 -39 -9 -52 -23z m76 1 c15 -15 16 -64 2 -73 -18 -11 -60 23
-60 49 0 12 3 26 7 29 10 11 38 8 51 -5z m-10 -134 c32 -22 28 -77 -6 -82 -32
-5 -52 15 -52 53 0 49 18 58 58 29z"/>
<path d="M2696 3945 c-78 -103 -78 -105 -22 -105 42 0 46 -2 46 -25 0 -13 -8
-29 -17 -34 -14 -8 -4 -10 42 -10 46 0 56 2 43 10 -22 12 -24 59 -3 59 8 0 15
5 15 10 0 6 -7 10 -15 10 -12 0 -15 16 -15 80 0 44 -4 80 -9 80 -5 0 -34 -34
-65 -75z m21 -82 c-3 -2 -19 -3 -36 -1 l-31 3 33 46 32 47 3 -45 c2 -25 1 -47
-1 -50z"/>
<path d="M2860 4002 c-27 -22 -30 -65 -6 -91 16 -18 16 -20 -8 -44 -42 -42 -9
-97 56 -97 44 0 88 35 88 70 0 23 -42 69 -82 89 -15 8 -29 20 -32 28 -10 24
13 55 37 51 18 -2 23 -11 25 -45 3 -46 15 -55 32 -24 14 28 13 38 -10 61 -25
25 -71 26 -100 2z m73 -153 c25 -34 16 -69 -18 -69 -32 0 -59 41 -51 76 9 33
41 29 69 -7z"/>
<path d="M3170 3995 l-23 -24 31 11 c39 15 62 -2 62 -46 0 -33 -15 -60 -68
-125 l-34 -41 75 0 c74 0 75 0 86 30 9 28 9 29 -9 20 -10 -5 -37 -10 -60 -10
l-42 0 51 56 c37 40 51 64 51 85 0 64 -75 92 -120 44z"/>
<path d="M3366 3997 c-43 -43 -47 -144 -8 -197 28 -37 87 -35 116 3 30 40 30
144 0 184 -29 38 -75 43 -108 10z m73 -24 c20 -72 8 -185 -21 -191 -25 -5 -42
68 -34 146 3 35 8 67 11 72 13 21 35 8 44 -27z"/>
<path d="M3568 4009 c-10 -5 -23 -20 -29 -32 -12 -22 -12 -22 9 -4 28 26 64
18 76 -15 13 -36 -9 -82 -65 -143 l-42 -45 82 0 c63 0 81 3 81 14 0 8 3 23 6
33 6 15 4 16 -7 6 -7 -7 -36 -13 -63 -13 l-50 0 52 53 c43 44 52 59 52 88 0
57 -53 87 -102 58z"/>
<path d="M3758 4010 c-10 -6 -23 -21 -29 -33 -12 -22 -12 -22 9 -4 11 10 30
17 43 15 57 -8 49 -83 -16 -156 -25 -28 -45 -53 -45 -56 0 -9 150 -7 150 2 0
4 3 18 6 32 6 21 4 23 -7 13 -7 -7 -35 -13 -63 -13 l-49 0 51 49 c28 27 54 61
58 76 14 55 -58 105 -108 75z"/>
<path d="M3020 3860 c0 -5 20 -10 45 -10 25 0 45 5 45 10 0 6 -20 10 -45 10
-25 0 -45 -4 -45 -10z"/>
<path d="M2330 3554 c-52 -2 -194 -10 -315 -18 -121 -8 -229 -15 -240 -15 -33
-1 -301 -30 -449 -49 -126 -16 -140 -20 -149 -40 -8 -18 -7 -27 7 -40 12 -12
19 -14 24 -5 13 21 60 32 160 39 53 4 102 11 108 15 6 5 27 9 45 9 19 -1 59 1
89 4 68 7 495 34 530 34 14 0 34 0 45 1 11 0 31 0 45 0 14 0 95 5 180 11 98 7
387 10 780 8 344 -2 558 -2 475 0 -82 1 -154 7 -159 12 -13 13 76 12 324 -4
107 -7 164 -14 126 -15 -79 -1 -83 -8 -10 -15 27 -3 78 -8 114 -12 71 -7 76 5
7 17 l-42 6 40 1 c34 1 605 -51 690 -63 53 -8 141 -14 120 -9 -58 13 -169 34
-240 43 -150 21 -581 57 -835 72 -180 10 -1279 20 -1470 13z m1017 -18 c72 -1
135 -4 139 -8 4 -5 -231 -8 -523 -8 -528 0 -926 -11 -1078 -29 -44 -6 -156
-15 -250 -21 -93 -6 -217 -18 -274 -26 -122 -16 -139 -17 -126 -5 6 4 71 14
145 21 74 7 169 16 210 21 41 4 190 15 330 24 140 8 307 20 370 26 63 5 188 9
278 8 89 -1 166 2 170 6 4 4 113 4 242 0 129 -5 294 -9 367 -9z m-2130 -112
c-3 -3 -12 -4 -19 -1 -8 3 -5 6 6 6 11 1 17 -2 13 -5z"/>
<path d="M70 3403 c-49 -158 -63 -258 -56 -408 12 -270 77 -421 301 -700 49
-60 109 -141 133 -180 25 -38 48 -73 51 -77 3 -4 6 57 7 135 l0 142 58 195
c102 343 166 637 166 762 0 80 -11 85 -34 16 -12 -35 -61 -130 -110 -213 -106
-177 -160 -289 -182 -376 -18 -70 -23 -185 -12 -264 l7 -50 -15 55 c-30 112
-69 221 -159 445 -121 301 -129 336 -120 493 3 67 4 122 1 122 -3 0 -19 -44
-36 -97z m337 -1055 c-3 -7 -5 -2 -5 12 0 14 2 19 5 13 2 -7 2 -19 0 -25z"/>
<path d="M6024 3348 c1 -173 1 -173 -116 -458 -77 -185 -123 -313 -154 -420
-17 -63 -22 -72 -16 -35 29 199 -16 345 -202 654 -47 79 -94 168 -103 197 -34
108 -44 15 -18 -159 20 -131 80 -378 151 -617 l58 -195 1 -146 0 -146 47 76
c26 42 90 130 143 196 172 215 242 341 280 505 25 112 31 315 11 420 -15 79
-72 280 -80 280 -2 0 -3 -69 -2 -152z m-297 -1000 c-3 -7 -5 -2 -5 12 0 14 2
19 5 13 2 -7 2 -19 0 -25z"/>
<path d="M4373 3453 c15 -2 39 -2 55 0 15 2 2 4 -28 4 -30 0 -43 -2 -27 -4z"/>
<path d="M4530 3440 c-12 -8 -9 -10 13 -10 16 0 26 4 22 10 -8 12 -16 12 -35
0z"/>
<path d="M4670 3414 c112 -18 221 -33 243 -34 13 0 5 -15 -35 -62 -29 -35 -70
-87 -91 -115 -21 -29 -42 -53 -46 -53 -4 0 -13 17 -19 38 -19 62 -38 72 -133
75 -93 3 -109 9 -109 37 0 17 5 18 52 13 35 -4 49 -3 45 4 -4 7 -69 14 -154
17 -82 4 -171 11 -200 17 -45 9 -131 4 -120 -8 3 -2 77 -8 166 -13 163 -9 194
-16 205 -46 6 -15 -3 -16 -106 -10 -62 4 -158 11 -213 16 -155 14 -355 20
-355 11 0 -4 91 -13 203 -20 111 -7 220 -16 243 -21 33 -8 176 -16 406 -24 22
0 39 -42 84 -201 20 -71 39 -133 43 -137 6 -7 198 -28 296 -33 28 -1 62 -5 78
-10 17 -4 27 -3 27 3 0 15 -22 19 -125 27 -163 12 -228 24 -252 47 -13 12 -23
29 -23 37 0 9 -11 41 -24 72 l-23 57 69 93 c38 52 85 110 104 129 39 41 43 67
12 75 -70 16 -221 35 -273 34 l-60 -1 85 -14z"/>
<path d="M2449 3406 c-11 -11 -516 -45 -782 -51 -130 -3 -197 -12 -197 -27 0
-6 10 -8 25 -4 13 3 127 11 252 16 126 5 255 12 288 15 33 2 112 7 175 11 63
3 129 7 145 10 17 2 207 4 424 4 217 0 391 3 387 7 -4 5 -121 9 -259 9 -139 1
-297 5 -352 9 -55 4 -103 5 -106 1z"/>
<path d="M3435 3390 l-220 -6 236 -2 c130 -1 258 -4 285 -7 l49 -4 -50 13
c-27 8 -57 14 -65 13 -8 -1 -114 -4 -235 -7z"/>
<path d="M3898 3363 c7 -3 16 -2 19 1 4 3 -2 6 -13 5 -11 0 -14 -3 -6 -6z"/>
<path d="M1217 3347 c4 -7 40 -55 80 -108 l71 -95 -28 -80 c-15 -43 -31 -97
-34 -120 -4 -22 -17 -52 -29 -67 -22 -27 -24 -28 -175 -34 -98 -4 -149 -10
-143 -16 11 -11 331 9 343 21 3 4 23 61 42 127 20 66 50 155 67 197 34 84 30
82 139 93 30 3 168 10 305 16 138 6 282 13 320 16 113 7 128 5 147 -19 10 -13
16 -32 13 -44 -2 -11 -11 -63 -19 -115 -8 -51 -24 -146 -35 -209 -12 -63 -21
-133 -21 -155 0 -22 -4 -56 -9 -75 -5 -19 -14 -87 -20 -150 -6 -63 -16 -151
-21 -195 -22 -176 -41 -365 -45 -453 -2 -50 -7 -97 -11 -103 -4 -7 -8 -44 -9
-83 -2 -39 -6 -150 -9 -246 -3 -96 -8 -194 -11 -218 -4 -23 -3 -52 1 -65 7
-21 8 -21 16 8 5 17 13 134 18 260 6 127 14 286 20 355 26 334 41 506 45 520
2 8 12 85 21 170 29 269 32 294 37 320 2 14 8 54 12 90 4 36 17 117 28 180 12
63 21 143 20 178 l0 62 108 0 108 0 4 -37 4 -38 1 38 c1 24 7 37 16 37 8 0 12
-8 9 -22 -2 -13 3 -39 12 -58 12 -28 15 -30 13 -10 -2 17 2 26 16 28 16 3 18
0 12 -19 -4 -13 -14 -91 -21 -174 -8 -82 -16 -168 -19 -190 -3 -22 -8 -74 -11
-115 -9 -137 -16 -180 -32 -180 -9 0 -11 5 -6 13 4 6 16 93 25 192 9 99 20
201 24 227 3 26 3 59 -2 75 -9 32 -14 1 -34 -242 -12 -144 -16 -184 -26 -270
l-6 -50 388 3 c262 3 415 0 470 -8 65 -9 87 -9 114 2 l33 14 -2 79 c-2 44 -8
139 -16 210 -10 101 -13 115 -13 65 -1 -36 3 -112 8 -170 5 -58 6 -122 3 -143
l-6 -37 -478 0 c-413 1 -479 3 -479 15 0 11 12 15 45 15 l45 0 1 68 c0 37 4
90 9 117 6 39 8 24 7 -68 -2 -87 1 -117 10 -117 9 0 13 24 12 88 0 48 4 130
10 182 6 52 10 111 10 130 l-1 35 -13 -30 -14 -30 -1 36 c0 31 8 43 54 88 53
49 92 67 80 37 -4 -11 0 -13 15 -9 27 7 37 23 15 23 -33 0 0 18 81 43 59 19
79 29 77 41 -5 26 17 56 42 56 24 0 71 -42 60 -53 -4 -4 -1 -13 5 -21 10 -11
8 -15 -6 -19 -10 -3 -2 -4 17 -2 22 3 63 -6 110 -23 65 -24 75 -30 73 -50 -2
-14 3 -22 13 -22 8 0 12 5 9 10 -8 13 5 12 32 -3 34 -19 60 -59 68 -104 8 -52
-10 -60 -19 -9 -4 19 -16 45 -27 58 -18 20 -20 21 -14 3 9 -23 34 -322 34
-410 l1 -61 48 2 c26 1 50 3 55 3 12 2 8 79 -5 83 -10 4 -10 10 -1 31 7 14 8
29 4 32 -5 3 -8 40 -7 82 1 43 -1 110 -6 148 -4 39 -8 77 -8 85 -1 8 -6 63
-12 123 l-11 107 -86 2 -86 2 82 3 c95 4 123 -6 124 -45 0 -15 4 -36 9 -47 7
-14 9 -4 8 37 -1 41 -6 59 -17 65 -9 4 -209 8 -445 10 -235 1 -430 4 -433 7
-3 2 -2 14 2 26 l7 22 331 -6 c183 -3 385 -9 451 -12 71 -3 122 -2 128 4 15
15 -156 21 -682 23 -472 2 -583 -1 -780 -21 -152 -16 -605 -31 -608 -20 -8 22
-25 7 -47 -44 -26 -59 -43 -76 -55 -55 -20 34 -131 169 -141 169 -6 0 -7 -5
-2 -13z m2213 -472 c0 -8 -2 -15 -4 -15 -2 0 -6 7 -10 15 -3 8 -1 15 4 15 6 0
10 -7 10 -15z m-749 -68 c-8 -8 -11 -3 -11 19 1 25 2 27 11 11 8 -14 8 -22 0
-30z m746 -204 c-15 -16 -17 -16 -17 -1 0 9 6 18 13 21 20 7 22 -2 4 -20z"/>
<path d="M3578 3323 c18 -2 45 -2 60 0 15 2 0 4 -33 4 -33 0 -45 -2 -27 -4z"/>
<path d="M3678 3308 c9 -9 15 -9 24 0 9 9 7 12 -12 12 -19 0 -21 -3 -12 -12z"/>
<path d="M3773 3279 c-17 -21 -18 -38 -5 -114 7 -38 17 -119 22 -180 5 -60 16
-180 25 -265 8 -85 17 -187 19 -227 2 -39 7 -76 10 -82 4 -6 11 -102 17 -213
5 -112 14 -257 18 -323 17 -234 25 -452 23 -608 -2 -155 -2 -157 19 -157 22 0
22 2 15 103 -3 56 -11 219 -16 362 -5 143 -14 325 -20 405 -39 525 -52 689
-65 800 -18 155 -28 337 -15 270 5 -25 9 -65 9 -89 1 -36 3 -42 15 -32 17 14
23 -8 37 -134 5 -47 13 -124 18 -171 9 -79 22 -116 36 -102 3 3 -1 50 -9 104
-27 184 -39 337 -29 374 6 23 20 41 41 53 43 26 198 77 230 77 15 0 67 -18
117 -40 49 -22 93 -40 97 -40 5 0 14 -5 21 -10 7 -6 31 -24 54 -40 30 -21 41
-35 36 -46 -3 -9 -2 -19 4 -23 21 -14 43 -85 67 -226 31 -172 50 -229 40 -120
-3 39 -15 120 -25 180 -22 127 -23 138 -9 130 14 -9 12 22 -5 85 -8 30 -24 93
-35 140 -19 76 -40 125 -40 92 0 -14 -96 -16 -153 -3 -21 5 -129 14 -240 21
-298 16 -305 17 -309 42 -2 18 -5 19 -15 7z m48 -51 c13 2 18 -10 24 -55 12
-92 11 -146 -2 -150 -10 -4 -13 15 -14 69 -1 97 -16 147 -19 63 -2 -66 -11
-52 -24 39 -6 39 -5 47 6 40 7 -5 20 -7 29 -6z m679 -103 c-7 -9 -15 -13 -17
-11 -7 7 7 26 19 26 6 0 6 -6 -2 -15z m20 -76 c11 -19 10 -20 -9 -9 -12 6 -21
15 -21 20 0 18 19 11 30 -11z m-657 -59 c3 -11 1 -20 -4 -20 -5 0 -9 9 -9 20
0 11 2 20 4 20 2 0 6 -9 9 -20z m664 -22 c-3 -7 -5 -2 -5 12 0 14 2 19 5 13 2
-7 2 -19 0 -25z"/>
<path d="M2279 3266 c-4 -5 -241 -19 -514 -32 -121 -6 -128 -8 -95 -20 19 -7
28 -13 19 -13 -18 -1 -35 -34 -43 -85 -3 -20 -9 -52 -12 -72 l-5 -35 52 35
c28 20 57 36 65 36 28 0 13 -19 -40 -48 -62 -36 -110 -93 -119 -142 -4 -19
-18 -98 -31 -175 -14 -77 -29 -157 -35 -177 -7 -31 -6 -38 8 -41 9 -2 144 -1
301 1 234 4 288 7 302 19 18 16 29 64 47 203 6 47 16 117 21 157 6 39 10 88
10 108 0 22 4 34 10 30 6 -4 10 6 10 23 0 16 6 52 14 78 8 27 20 69 26 92 6
24 14 42 16 39 6 -6 -23 -202 -37 -242 -8 -26 -27 -155 -58 -405 -5 -36 -13
-83 -19 -105 -10 -37 -19 -110 -57 -465 -23 -220 -37 -440 -32 -520 2 -41 0
-84 -6 -95 -11 -22 -11 -230 0 -248 12 -18 31 179 25 246 -3 32 0 95 6 140 10
69 29 300 38 467 5 80 42 423 53 490 5 36 15 110 22 165 6 55 17 128 25 163 8
35 14 78 14 96 0 18 11 88 25 156 28 140 31 180 12 180 -8 0 -16 -2 -18 -4z
m-301 -121 c22 -10 32 -19 25 -23 -6 -4 11 -7 38 -8 30 0 55 -7 67 -17 10 -9
25 -17 33 -17 8 0 25 -9 39 -20 20 -16 22 -20 8 -20 -21 0 -23 -13 -5 -29 12
-9 12 -25 -1 -98 -8 -49 -19 -92 -24 -98 -6 -7 -9 0 -6 19 6 56 -20 38 -31
-21 -18 -89 -18 -88 2 -85 14 2 17 -5 17 -45 0 -26 -3 -71 -6 -99 l-7 -52 -86
-6 c-47 -3 -165 -7 -261 -8 -96 -1 -187 -7 -202 -12 -32 -12 -48 -1 -26 17 23
17 51 113 44 148 -4 22 -2 29 9 29 9 0 15 10 16 28 1 20 2 22 6 7 3 -11 9 -24
14 -29 5 -6 3 -16 -6 -26 -8 -9 -21 -46 -29 -83 l-14 -67 69 0 68 0 7 45 c3
25 10 48 15 51 12 7 11 -23 0 -64 -8 -28 -7 -32 9 -32 15 0 19 12 25 73 4 39
15 102 24 139 9 36 14 74 10 85 -7 16 -8 16 -8 -4 -1 -35 -21 -38 -21 -4 l0
31 -62 -2 -63 -1 55 -7 55 -7 -58 -1 c-50 -2 -60 -5 -64 -22 -3 -11 -10 -20
-15 -20 -5 0 -6 5 -3 10 4 6 1 18 -6 26 -22 26 4 35 97 32 81 -3 91 -1 107 19
9 11 17 26 17 32 0 6 11 11 25 11 14 0 25 4 25 9 0 6 17 11 37 13 35 3 38 6
45 43 10 46 3 78 -12 55 -6 -8 -10 -30 -10 -47 0 -24 -5 -33 -16 -33 -11 0
-14 5 -9 18 10 24 19 98 11 91 -3 -3 -15 -30 -26 -60 l-20 -54 6 48 c7 65 -12
61 -26 -6 -15 -66 -32 -75 -162 -87 -121 -12 -118 -12 -118 5 0 9 9 15 24 15
14 0 28 5 32 11 3 6 14 9 24 6 12 -3 21 2 25 17 7 19 8 18 14 -9 l6 -30 15 45
15 45 3 -42 c3 -37 6 -43 26 -43 18 0 24 9 35 50 7 28 17 50 23 50 6 0 7 -7 4
-16 -15 -38 -18 -64 -7 -64 13 0 33 73 25 94 -4 12 0 16 15 16 12 0 32 7 46
16 21 14 26 14 55 -1 26 -14 30 -21 26 -43 -13 -63 -14 -82 -6 -87 5 -3 14 22
21 55 11 55 14 60 27 46 13 -13 13 -18 -1 -40 -9 -14 -14 -32 -11 -40 9 -24
24 -8 24 25 0 18 6 32 16 36 25 9 82 -23 87 -49 3 -18 4 -17 5 7 2 34 -18 65
-40 65 -9 0 -27 9 -42 21 -14 11 -30 18 -35 14 -5 -3 -12 -1 -15 3 -3 5 -33
15 -66 22 -54 11 -66 11 -96 -3 -41 -20 -67 -22 -62 -4 3 9 94 50 126 56 1 1
19 -6 40 -14z m-188 -60 c0 -8 -4 -15 -10 -15 -5 0 -10 7 -10 15 0 8 5 15 10
15 6 0 10 -7 10 -15z m19 -67 c0 -7 -7 -29 -14 -48 l-13 -35 -1 41 c-1 22 2
44 6 47 11 11 23 8 22 -5z m-22 -270 c-3 -7 -5 -2 -5 12 0 14 2 19 5 13 2 -7
2 -19 0 -25z m-16 -64 c-8 -33 -9 -35 -10 -11 -1 29 -5 29 -76 10 -17 -5 -18
-4 -6 11 8 10 28 16 52 16 23 0 39 5 39 12 0 6 2 9 5 6 3 -3 1 -23 -4 -44z"/>
<path d="M2080 2979 c0 -17 4 -28 10 -24 6 3 10 17 10 31 0 13 -4 24 -10 24
-5 0 -10 -14 -10 -31z"/>
<path d="M2120 2974 c0 -8 5 -12 10 -9 6 4 8 11 5 16 -9 14 -15 11 -15 -7z"/>
<path d="M1943 2922 c-38 -3 -43 -6 -43 -27 0 -13 -7 -57 -16 -97 -8 -40 -16
-99 -16 -132 -1 -35 -8 -72 -20 -95 -20 -39 -14 -47 24 -32 16 6 28 22 36 49
15 51 16 112 0 112 -6 0 -2 10 9 23 28 30 40 127 16 127 -14 0 -14 3 -5 12 7
7 63 17 125 23 95 8 112 13 115 28 3 17 -4 18 -90 15 -51 -2 -112 -4 -135 -6z"/>
<path d="M1962 2815 c-6 -25 -12 -59 -12 -75 0 -30 1 -30 53 -30 71 0 85 13
93 83 l7 57 -44 0 c-24 0 -53 3 -64 6 -17 4 -22 -2 -33 -41z"/>
<path d="M1936 2635 c-9 -35 -16 -69 -16 -75 0 -6 29 -10 74 -10 l74 0 7 65
c3 35 4 69 0 75 -3 5 -32 10 -64 10 l-59 0 -16 -65z"/>
<path d="M2104 2688 c-4 -6 -8 -23 -10 -37 -1 -14 -5 -46 -9 -70 -6 -34 -5
-43 5 -39 14 4 39 91 40 136 0 24 -14 30 -26 10z"/>
<path d="M2400 3260 c-11 -7 5 -10 53 -10 38 0 67 4 67 10 0 13 -100 13 -120
0z"/>
<path d="M3581 3223 c1 -23 2 -24 6 -6 4 20 11 22 76 26 l72 3 -77 2 -78 2 1
-27z"/>
<path d="M3042 3229 c-28 -11 -24 -33 6 -37 13 -2 25 3 28 13 9 23 -7 34 -34
24z"/>
<path d="M1596 3220 c-13 -33 -35 -114 -32 -118 7 -6 47 110 43 122 -3 7 -7 5
-11 -4z"/>
<path d="M1498 3203 c7 -3 16 -2 19 1 4 3 -2 6 -13 5 -11 0 -14 -3 -6 -6z"/>
<path d="M2583 3175 c0 -22 2 -30 4 -17 2 12 2 30 0 40 -3 9 -5 -1 -4 -23z"/>
<path d="M4558 3183 c6 -2 18 -2 25 0 6 3 1 5 -13 5 -14 0 -19 -2 -12 -5z"/>
<path d="M2551 3164 c0 -11 3 -14 6 -6 3 7 2 16 -1 19 -3 4 -6 -2 -5 -13z"/>
<path d="M2611 3164 c0 -11 3 -14 6 -6 3 7 2 16 -1 19 -3 4 -6 -2 -5 -13z"/>
<path d="M1611 3133 c-15 -56 -24 -123 -18 -123 6 0 27 69 41 133 10 41 -12
32 -23 -10z"/>
<path d="M3038 3163 c6 -2 18 -2 25 0 6 3 1 5 -13 5 -14 0 -19 -2 -12 -5z"/>
<path d="M2965 3150 c-13 -5 -14 -9 -5 -9 8 0 24 4 35 9 13 5 14 9 5 9 -8 0
-24 -4 -35 -9z"/>
<path d="M2950 3116 c-117 -41 -147 -56 -184 -94 -25 -27 -29 -41 -37 -129 -5
-54 -12 -151 -16 -215 l-5 -118 76 0 76 0 0 96 0 96 -60 -4 c-53 -4 -60 -2
-60 14 0 17 19 18 303 21 l302 2 -302 3 -303 2 0 44 c0 30 5 46 15 50 13 5 14
2 4 -16 -16 -30 11 -48 73 -48 41 0 48 3 48 19 0 11 -4 23 -10 26 -18 11 -11
25 13 25 20 0 23 -4 19 -35 l-4 -35 222 0 222 0 -5 22 c-3 11 -1 43 5 70 21
91 -24 140 -185 199 -45 17 -89 32 -97 34 -8 2 -58 -11 -110 -29z m148 -81 c2
-32 -2 -63 -7 -68 -8 -8 -11 8 -11 51 0 34 -4 62 -9 62 -10 0 -23 -84 -15
-105 4 -10 0 -15 -10 -15 -11 0 -16 9 -16 30 0 44 -15 36 -17 -9 l-2 -39 57 2
57 2 6 59 6 60 1 -62 c3 -89 22 -92 22 -3 0 51 3 71 12 68 8 -3 11 -25 9 -66
-1 -37 2 -62 8 -62 5 0 11 24 13 53 4 67 23 63 22 -6 -1 -52 -1 -52 30 -52 27
0 31 4 34 30 2 17 8 35 14 40 7 7 8 -3 3 -32 -5 -35 -4 -42 12 -46 10 -3 -11
-5 -47 -5 -63 1 -65 1 -63 -23 1 -13 0 -35 -3 -49 l-6 -25 -15 28 c-11 22 -12
32 -3 42 9 11 6 16 -16 21 -19 5 -30 2 -39 -10 -7 -9 -21 -16 -31 -16 -16 0
-17 2 -4 10 12 8 9 10 -12 10 -16 0 -28 -4 -28 -10 0 -5 4 -10 10 -10 6 0 5
-10 -2 -25 -14 -31 -20 -31 -35 0 -6 14 -7 25 -2 25 5 0 9 7 9 15 0 13 -22 15
-140 15 -120 0 -139 2 -134 15 4 8 13 15 21 15 8 0 12 3 10 8 -3 4 -1 16 4 27
6 16 8 14 8 -12 l1 -33 78 0 79 0 -4 28 c-2 15 0 45 5 67 10 39 10 38 11 -27
1 -38 5 -68 10 -68 14 0 17 20 15 88 -2 34 1 62 7 62 9 0 13 -14 10 -37 -1 -6
3 -14 9 -18 6 -4 10 5 10 22 0 37 16 54 44 44 18 -7 21 -18 24 -66z m-168 -25
c0 -27 -4 -50 -9 -50 -6 0 -9 23 -9 50 1 28 5 50 10 50 4 0 8 -22 8 -50z m-81
8 c0 -7 -4 -22 -9 -33 -7 -17 -9 -15 -9 13 -1 17 4 32 9 32 6 0 10 -6 9 -12z
m41 -17 c0 -17 -4 -33 -10 -36 -6 -4 -10 8 -10 29 0 20 5 36 10 36 6 0 10 -13
10 -29z m374 4 c4 -14 2 -33 -3 -43 -11 -18 -13 -15 -15 35 -1 39 9 43 18 8z
m-426 -112 c-10 -2 -28 -2 -40 0 -13 2 -5 4 17 4 22 1 32 -1 23 -4z m-101
-295 c-3 -8 -6 -5 -6 6 -1 11 2 17 5 13 3 -3 4 -12 1 -19z"/>
<path d="M2910 3130 c0 -5 7 -10 15 -10 8 0 15 5 15 10 0 6 -7 10 -15 10 -8 0
-15 -4 -15 -10z"/>
<path d="M4670 3115 c0 -8 4 -15 10 -15 5 0 7 7 4 15 -4 8 -8 15 -10 15 -2 0
-4 -7 -4 -15z"/>
<path d="M2386 3106 c-20 -9 -25 -16 -16 -21 7 -4 16 -2 20 5 5 9 9 8 13 -4 3
-8 2 -16 -4 -18 -5 -2 11 -4 36 -5 25 -1 45 3 45 8 0 5 -6 9 -14 9 -7 0 -16 9
-19 20 -6 23 -19 24 -61 6z"/>
<path d="M2878 3113 c7 -3 16 -2 19 1 4 3 -2 6 -13 5 -11 0 -14 -3 -6 -6z"/>
<path d="M3198 3113 c7 -3 16 -2 19 1 4 3 -2 6 -13 5 -11 0 -14 -3 -6 -6z"/>
<path d="M3656 3104 c-3 -9 -3 -20 0 -26 4 -6 0 -14 -7 -19 -9 -7 -5 -8 12 -3
16 3 30 1 34 -6 5 -8 10 -8 21 1 17 14 18 29 1 29 -7 0 -18 9 -25 20 -15 24
-28 26 -36 4z"/>
<path d="M2533 3070 c0 -25 2 -35 4 -22 2 12 2 32 0 45 -2 12 -4 2 -4 -23z"/>
<path d="M3260 3090 c0 -5 4 -10 9 -10 6 0 13 5 16 10 3 6 -1 10 -9 10 -9 0
-16 -4 -16 -10z"/>
<path d="M4090 3078 c-30 -11 -76 -28 -102 -36 -30 -10 -50 -24 -57 -39 -16
-36 -14 -55 7 -51 9 2 23 -3 30 -12 11 -13 12 -10 7 18 -7 37 5 43 20 10 9
-20 34 -25 28 -5 -2 4 1 7 7 7 6 0 10 -9 10 -20 0 -11 5 -20 11 -20 8 0 9 15
5 45 -6 36 -4 45 7 45 8 0 15 -6 14 -12 -1 -45 5 -78 14 -78 8 0 10 14 6 45
-4 25 -3 45 2 45 5 0 12 -20 15 -45 5 -27 12 -45 21 -45 10 0 11 9 4 38 -5 20
-9 48 -9 62 0 20 2 22 10 10 5 -8 10 -26 10 -40 0 -14 7 -36 15 -50 14 -23 14
-20 9 43 -4 42 -3 67 3 67 6 0 10 -12 11 -27 0 -16 4 -53 9 -83 7 -43 12 -54
25 -52 21 3 30 -29 58 -203 25 -163 28 -175 40 -175 5 0 11 12 13 28 l4 27 2
-27 c1 -25 5 -28 39 -28 20 0 52 -4 70 -10 l33 -9 -6 67 c-11 98 -14 102 -89
102 l-64 0 4 -47 c4 -38 2 -43 -6 -25 -5 12 -11 50 -14 85 -2 34 -2 50 1 35 4
-27 6 -28 75 -28 l71 0 -7 57 c-8 70 -17 81 -69 86 -36 3 -33 4 16 5 52 2 57
0 57 -20 0 -11 9 -69 19 -127 11 -58 22 -123 26 -143 4 -25 11 -38 22 -38 13
0 14 7 9 38 -3 20 -14 80 -23 132 -9 52 -17 118 -17 145 l-1 50 -50 1 c-61 2
-156 17 -173 28 -20 12 -3 27 24 20 23 -6 24 -5 14 21 -12 31 -13 68 -2 61 4
-2 9 -19 10 -37 3 -36 9 -49 23 -49 6 0 7 15 3 38 -4 25 -3 34 4 27 6 -5 12
-21 14 -34 1 -14 9 -26 15 -29 9 -2 11 5 7 27 -4 20 -2 31 5 31 6 0 11 -9 11
-19 0 -46 29 -73 31 -28 0 19 1 20 8 4 4 -10 9 -17 11 -16 3 1 15 -3 28 -10
34 -18 26 2 -23 57 -28 31 -61 56 -88 65 -23 9 -69 27 -102 41 -73 31 -94 31
-165 4z m134 -60 c3 -13 5 -36 5 -53 0 -27 -2 -25 -15 15 -16 53 -17 60 -5 60
5 0 11 -10 15 -22z m40 -4 c3 -9 6 -30 5 -47 l-1 -32 -13 35 c-7 19 -14 41
-14 48 -1 17 16 15 23 -4z m36 -206 c0 -25 -3 -29 -10 -18 -13 20 -13 50 0 50
6 0 10 -15 10 -32z"/>
<path d="M2572 3060 c0 -19 2 -27 5 -17 2 9 2 25 0 35 -3 9 -5 1 -5 -18z"/>
<path d="M4692 3070 c0 -14 2 -19 5 -12 2 6 2 18 0 25 -3 6 -5 1 -5 -13z"/>
<path d="M1440 3065 c-11 -14 -5 -55 8 -55 23 1 32 18 23 43 -12 31 -14 32
-31 12z"/>
<path d="M2765 3070 c-3 -5 1 -10 9 -10 8 0 18 5 21 10 3 6 -1 10 -9 10 -8 0
-18 -4 -21 -10z"/>
<path d="M4630 3020 c0 -11 0 -23 0 -27 0 -5 17 -8 38 -8 20 1 41 -4 45 -10 5
-6 6 -2 3 8 -3 10 -6 26 -6 35 -1 16 -2 15 -14 0 -14 -20 -31 -25 -20 -7 7 12
-12 29 -33 29 -7 0 -13 -9 -13 -20z"/>
<path d="M1410 3020 c0 -5 5 -10 11 -10 5 0 7 5 4 10 -3 6 -8 10 -11 10 -2 0
-4 -4 -4 -10z"/>
<path d="M2342 3005 c0 -16 2 -22 5 -12 2 9 2 23 0 30 -3 6 -5 -1 -5 -18z"/>
<path d="M3500 3023 c0 -4 5 -15 10 -23 8 -13 10 -13 10 2 0 9 -4 20 -10 23
-5 3 -10 3 -10 -2z"/>
<path d="M3592 3005 c0 -16 2 -22 5 -12 2 9 2 23 0 30 -3 6 -5 -1 -5 -18z"/>
<path d="M1371 2974 c0 -11 3 -14 6 -6 3 7 2 16 -1 19 -3 4 -6 -2 -5 -13z"/>
<path d="M1570 2971 c-7 -15 -7 -21 0 -21 12 0 25 28 17 36 -3 3 -10 -4 -17
-15z"/>
<path d="M2562 2970 c0 -14 2 -19 5 -12 2 6 2 18 0 25 -3 6 -5 1 -5 -13z"/>
<path d="M3602 2940 c0 -14 2 -19 5 -12 2 6 2 18 0 25 -3 6 -5 1 -5 -13z"/>
<path d="M2324 2939 c-3 -6 -1 -16 5 -22 8 -8 11 -5 11 11 0 24 -5 28 -16 11z"/>
<path d="M1506 2914 c-4 -14 -5 -29 -2 -31 3 -3 8 7 12 21 3 15 4 29 1 32 -2
3 -8 -7 -11 -22z"/>
<path d="M1542 2905 c-15 -50 -61 -236 -71 -290 -10 -54 -35 -109 -60 -134
-21 -21 -29 -71 -12 -71 5 0 11 -8 13 -17 2 -10 12 12 22 50 10 37 26 73 35
80 9 6 18 23 18 37 3 45 13 71 25 64 7 -5 9 4 4 29 -4 21 -2 38 4 42 6 3 8 11
4 16 -3 5 4 42 16 82 12 40 20 90 18 112 l-3 40 -13 -40z m-125 -467 c-3 -8
-6 -5 -6 6 -1 11 2 17 5 13 3 -3 4 -12 1 -19z"/>
<path d="M3934 2847 c13 -141 39 -303 50 -314 3 -3 9 -4 12 0 8 8 -15 243 -28
285 -15 49 -3 56 71 42 34 -6 70 -8 80 -5 20 6 17 21 45 -194 9 -63 13 -117
11 -119 -7 -8 -13 18 -25 118 -6 52 -14 114 -17 138 l-5 42 -47 0 c-25 0 -56
3 -68 6 -22 6 -23 4 -23 -65 0 -41 4 -71 10 -71 6 0 9 -12 8 -27 -1 -16 -1
-56 0 -90 l2 -61 98 -4 c53 -2 100 -3 103 -2 5 3 -1 63 -16 154 -20 127 -23
164 -13 186 6 13 9 26 7 28 -2 2 -62 6 -133 9 l-128 7 6 -63z"/>
<path d="M4790 2864 c0 -9 6 -42 14 -73 8 -31 17 -68 20 -83 6 -24 11 -27 44
-26 20 1 81 -2 136 -7 83 -7 98 -6 94 6 -3 10 -35 16 -118 21 -115 7 -135 14
-125 39 4 11 26 13 118 8 61 -3 122 -11 134 -17 28 -16 33 -15 33 4 0 11 6 14
21 9 13 -4 19 -3 15 3 -6 10 -187 29 -241 25 -50 -4 -94 16 -111 49 l-16 30
129 -7 c70 -3 152 -11 182 -17 33 -6 57 -6 62 -1 6 6 -48 16 -143 27 -84 9
-174 19 -200 21 -40 5 -48 3 -48 -11z"/>
<path d="M1482 2825 c-17 -57 -13 -89 4 -35 8 25 13 52 11 60 -2 8 -9 -3 -15
-25z"/>
<path d="M2312 2830 c0 -19 2 -27 5 -17 2 9 2 25 0 35 -3 9 -5 1 -5 -18z"/>
<path d="M3852 2840 c0 -14 2 -19 5 -12 2 6 2 18 0 25 -3 6 -5 1 -5 -13z"/>
<path d="M4190 2843 c-1 -34 45 -300 52 -308 11 -11 9 13 -20 203 -9 61 -20
112 -24 112 -4 0 -8 -3 -8 -7z"/>
<path d="M1268 2825 c-3 -3 -52 -8 -109 -10 -57 -3 -129 -9 -159 -14 -42 -8
-19 -9 98 -5 l152 4 0 -24 c0 -38 -38 -56 -122 -57 -40 0 -91 -4 -113 -9 -30
-6 -10 -8 77 -7 84 1 121 -2 130 -11 29 -30 -51 -52 -157 -43 -43 3 -95 -8
-95 -20 0 -11 167 -5 218 8 20 5 22 2 22 -33 -1 -22 -7 -50 -15 -64 l-14 -25
-1 28 c0 15 -4 27 -10 27 -5 0 -10 -11 -10 -25 0 -34 -18 -32 -22 2 -2 18 -14
33 -35 46 -30 17 -33 17 -57 1 -16 -10 -36 -14 -53 -10 -16 3 -22 3 -16 0 8
-4 11 -15 7 -30 -7 -29 -9 -29 60 -3 63 25 93 21 76 -10 -5 -11 -10 -32 -10
-48 0 -15 -9 -57 -20 -91 -21 -67 -26 -122 -11 -122 14 0 21 28 21 84 0 38 6
61 20 79 11 14 20 32 20 41 0 10 9 16 25 16 29 0 29 0 10 -47 -9 -21 -25 -78
-35 -127 -11 -49 -26 -93 -32 -98 -8 -5 -3 -8 14 -8 21 0 29 6 32 23 17 94 51
239 63 272 17 47 41 144 49 198 2 21 9 49 14 63 16 41 9 70 -12 49z"/>
<path d="M4496 2803 c2 -10 13 -72 24 -138 29 -163 29 -167 39 -161 8 5 6 20
-24 186 -15 85 -29 130 -39 130 -2 0 -2 -8 0 -17z"/>
<path d="M2302 2750 c0 -19 2 -27 5 -17 2 9 2 25 0 35 -3 9 -5 1 -5 -18z"/>
<path d="M4612 2740 c0 -14 2 -19 5 -12 2 6 2 18 0 25 -3 6 -5 1 -5 -13z"/>
<path d="M2890 2655 l0 -95 70 0 70 0 0 95 0 95 -70 0 -70 0 0 -95z"/>
<path d="M3050 2655 l0 -95 70 0 70 0 0 95 0 95 -70 0 -70 0 0 -95z"/>
<path d="M3207 2743 c-4 -3 -7 -45 -7 -93 l0 -87 38 -7 c20 -3 52 -6 70 -6
l32 0 0 100 0 100 -63 0 c-35 0 -67 -3 -70 -7z"/>
<path d="M3862 2730 c0 -14 2 -19 5 -12 2 6 2 18 0 25 -3 6 -5 1 -5 -13z"/>
<path d="M1462 2720 c0 -14 2 -19 5 -12 2 6 2 18 0 25 -3 6 -5 1 -5 -13z"/>
<path d="M2532 2690 c0 -19 2 -27 5 -17 2 9 2 25 0 35 -3 9 -5 1 -5 -18z"/>
<path d="M1280 2669 c-6 -24 -15 -60 -21 -79 -11 -43 -11 -50 -1 -50 11 0 48
158 39 166 -3 3 -11 -14 -17 -37z"/>
<path d="M5130 2679 c0 -18 2 -19 15 -9 8 7 15 16 15 21 0 5 -7 9 -15 9 -9 0
-15 -9 -15 -21z"/>
<path d="M1436 2634 c-16 -47 -22 -93 -10 -82 7 7 34 122 29 126 -1 2 -10 -18
-19 -44z"/>
<path d="M2292 2645 c0 -16 2 -22 5 -12 2 9 2 23 0 30 -3 6 -5 -1 -5 -18z"/>
<path d="M677 2545 c-4 -72 -18 -176 -36 -260 -42 -199 -46 -255 -26 -350 16
-75 64 -210 107 -300 17 -36 17 -38 1 -19 -10 12 -46 62 -80 110 -68 97 -115
152 -326 380 -163 175 -245 291 -271 384 -30 109 -33 111 -41 46 -20 -157 34
-357 150 -551 64 -108 166 -230 238 -284 57 -44 567 -382 567 -377 0 2 -14 34
-31 71 -48 107 -67 198 -99 489 -52 455 -81 625 -130 741 l-17 40 -6 -120z"/>
<path d="M4891 2641 c-13 -10 -19 -21 -14 -24 10 -7 50 29 42 37 -2 3 -15 -3
-28 -13z"/>
<path d="M4980 2650 c-10 -6 -3 -12 23 -24 20 -8 53 -27 72 -42 37 -28 42 -26
24 8 -8 16 -8 23 2 30 10 7 7 7 -8 3 -13 -4 -38 2 -61 14 -23 12 -43 16 -52
11z"/>
<path d="M5427 2618 c-50 -133 -76 -283 -127 -734 -32 -291 -51 -382 -99 -489
-17 -37 -31 -69 -31 -71 0 -7 530 343 580 383 240 193 426 624 370 858 l-7 30
-7 -30 c-39 -155 -97 -248 -283 -449 -225 -244 -273 -299 -335 -388 -34 -48
-63 -86 -65 -84 -2 2 8 27 21 57 13 30 36 92 51 139 39 118 39 243 1 435 -15
79 -30 193 -33 263 -3 67 -9 122 -13 122 -4 0 -14 -19 -23 -42z"/>
<path d="M3872 2610 c0 -19 2 -27 5 -17 2 9 2 25 0 35 -3 9 -5 1 -5 -18z"/>
<path d="M2483 2580 c0 -30 2 -43 4 -27 2 15 2 39 0 55 -2 15 -4 2 -4 -28z"/>
<path d="M4844 2610 c3 -14 13 -63 22 -110 9 -47 18 -87 21 -90 3 -3 3 29 1
71 -5 74 -4 75 17 71 23 -4 35 18 34 63 0 14 -4 11 -14 -12 -8 -18 -21 -33
-30 -33 -8 0 -24 15 -36 33 -18 28 -19 29 -15 7z"/>
<path d="M1130 2606 c0 -2 7 -9 15 -16 12 -10 15 -10 15 4 0 9 -7 16 -15 16
-8 0 -15 -2 -15 -4z"/>
<path d="M2523 2535 c0 -33 2 -45 4 -27 2 18 2 45 0 60 -2 15 -4 0 -4 -33z"/>
<path d="M3633 2490 c0 -47 2 -66 4 -42 2 23 2 61 0 85 -2 23 -4 4 -4 -43z"/>
<path d="M4643 2519 c-7 -28 -10 -57 -6 -63 4 -6 15 -76 24 -156 10 -80 20
-158 23 -175 14 -78 27 -188 33 -273 5 -78 8 -92 22 -90 18 4 18 14 9 181 -4
66 -11 104 -21 115 -10 12 -17 53 -21 137 -6 93 -35 315 -49 368 -1 4 -8 -16
-14 -44z"/>
<path d="M5117 2554 c-4 -4 -7 -19 -6 -33 l0 -26 10 24 c10 26 8 47 -4 35z"/>
<path d="M3890 2488 c1 -29 5 -100 10 -158 21 -237 39 -550 46 -795 4 -143 11
-268 16 -278 5 -9 5 -24 0 -32 -13 -24 -2 -85 15 -85 14 0 15 28 8 237 -4 131
-11 248 -16 261 -6 14 -5 30 1 42 7 13 7 21 0 25 -5 3 -10 43 -10 88 0 45 -7
150 -16 232 -8 83 -16 184 -18 225 -6 147 -19 281 -27 286 -5 3 -9 -19 -9 -48z"/>
<path d="M3965 2509 c-4 -6 -5 -12 -4 -13 2 -2 135 -8 294 -14 160 -5 305 -13
323 -17 25 -6 32 -4 32 8 0 12 -17 15 -87 16 -49 1 -162 5 -253 10 -91 4 -183
8 -205 7 -22 -1 -52 2 -67 7 -16 4 -29 3 -33 -4z"/>
<path d="M4930 2501 c0 -11 4 -22 9 -25 4 -3 6 6 3 19 -5 30 -12 33 -12 6z"/>
<path d="M2473 2450 c0 -36 2 -50 4 -32 2 17 2 47 0 65 -2 17 -4 3 -4 -33z"/>
<path d="M2705 2490 l-159 -5 -7 -25 c-4 -14 -7 -62 -8 -107 -1 -48 -5 -83
-11 -83 -5 0 -10 5 -10 10 0 6 -4 10 -10 10 -6 0 -10 -36 -10 -87 0 -49 -5
-144 -11 -213 -6 -69 -12 -209 -13 -312 -1 -104 -6 -191 -9 -195 -4 -3 -7
-101 -7 -217 0 -189 2 -214 19 -235 18 -23 18 -20 26 155 4 99 9 249 10 334 1
85 7 263 14 395 6 132 12 263 14 291 l2 52 52 -2 c33 0 53 -5 53 -13 0 -6 6
-14 13 -17 6 -2 -3 -4 -22 -3 -32 2 -36 -2 -60 -47 -30 -57 -34 -117 -52 -736
-5 -190 -10 -364 -12 -387 -2 -44 5 -59 22 -48 7 4 11 84 12 233 0 125 7 322
14 437 13 208 13 205 8 -237 -4 -336 -3 -448 6 -448 16 0 30 41 22 60 -4 8 -6
42 -4 75 1 33 3 104 3 158 l-1 97 93 2 c51 0 77 3 58 5 -19 3 -39 9 -44 14 -6
5 102 9 282 9 l292 0 0 70 0 70 95 0 95 0 0 -63 c0 -88 -8 -96 -105 -100 l-80
-3 93 -2 92 -2 0 -165 0 -165 -64 0 c-36 0 -68 -4 -71 -10 -4 -6 21 -10 68
-10 l75 0 8 -32 c14 -52 17 180 5 289 -6 50 -11 134 -11 187 l0 95 -434 3
c-239 2 -436 5 -439 8 -3 3 -2 56 2 118 l6 113 429 -1 c237 0 427 3 423 7 -4
3 -197 9 -430 11 -233 2 -427 8 -433 13 -8 7 -9 22 -2 52 5 23 7 60 4 82 -5
45 3 97 15 90 4 -3 5 -53 2 -110 l-6 -105 91 0 92 0 0 115 0 115 -95 0 -95 0
6 28 c9 37 14 40 14 9 l0 -27 84 0 c98 0 96 -2 96 105 0 71 6 85 38 85 4 0 6
-43 4 -95 l-3 -95 90 0 91 0 0 106 c0 74 3 105 11 102 8 -3 11 -37 10 -106
l-2 -103 93 3 93 3 3 69 c2 48 -1 75 -12 91 -14 22 -14 23 7 17 42 -10 46 -20
44 -100 l-2 -77 88 -3 c80 -3 87 -1 87 16 0 11 -11 36 -25 56 -24 36 -24 36
-3 36 12 0 18 3 14 7 -3 4 17 18 46 31 42 19 49 26 36 33 -9 5 -26 8 -39 7
-12 -2 -24 3 -26 10 -3 8 7 12 31 12 l35 0 -1 81 c0 46 5 86 11 92 16 16 21 5
12 -29 -4 -16 -4 -41 2 -58 5 -15 7 -61 4 -100 -3 -39 -1 -79 4 -88 6 -10 4
-20 -5 -27 -10 -9 -12 -20 -6 -40 4 -15 11 -225 14 -467 8 -486 13 -664 21
-672 3 -3 5 -1 6 4 0 5 3 25 5 44 3 19 5 44 5 55 -1 11 -3 169 -5 350 -2 182
-6 353 -9 380 -4 28 -9 187 -12 355 -4 167 -7 306 -8 307 -6 5 -692 8 -842 3z
m152 -16 c-3 -3 -12 -4 -19 -1 -8 3 -5 6 6 6 11 1 17 -2 13 -5z m259 -19 c5
-19 0 -30 -17 -45 -26 -21 -74 -27 -84 -10 -3 6 -24 10 -46 10 -37 0 -39 1
-28 21 9 18 13 19 20 8 7 -9 7 -5 3 14 l-6 27 76 0 c72 0 76 -1 82 -25z m152
18 c-16 -2 -40 -2 -55 0 -16 2 -3 4 27 4 30 0 43 -2 28 -4z m-701 -60 c-3 -10
-5 -2 -5 17 0 19 2 27 5 18 2 -10 2 -26 0 -35z m683 -13 c8 -5 11 -10 5 -10
-5 0 -21 -3 -34 -7 -17 -4 -22 -3 -17 5 8 14 -37 15 -69 3 -11 -5 -26 -6 -34
-3 -11 4 -10 7 5 13 28 11 126 10 144 -1z m47 -16 c-3 -3 -12 -4 -19 -1 -8 3
-5 6 6 6 11 1 17 -2 13 -5z m72 -28 c29 -10 31 -13 17 -25 -9 -7 -21 -9 -28
-5 -7 5 -15 9 -18 10 -53 16 -55 17 -34 25 24 10 23 10 63 -5z m-121 -25 c58
-18 71 -25 62 -35 -8 -10 -5 -15 12 -19 12 -4 32 -4 44 -1 13 3 33 -2 48 -12
29 -18 27 -27 -7 -30 -12 -2 -16 0 -9 2 20 9 14 27 -8 21 -11 -3 -45 4 -77 14
-32 11 -66 22 -76 26 -10 3 -14 9 -9 12 6 3 -47 7 -117 9 -139 3 -243 18 -220
33 8 5 75 7 149 5 103 -2 152 -8 208 -25z m182 -1 c0 -5 8 -10 17 -10 9 0 14
-3 10 -6 -8 -8 -47 5 -47 17 0 5 5 9 10 9 6 0 10 -4 10 -10z m-852 -20 c13 0
12 -3 -4 -14 -16 -13 -20 -13 -27 0 -4 8 -5 20 -1 26 6 9 9 9 12 0 2 -7 11
-12 20 -12z m302 10 c12 -8 9 -10 -12 -10 -16 0 -28 5 -28 10 0 13 20 13 40 0z
m-50 -10 c0 -5 -5 -10 -11 -10 -5 0 -7 5 -4 10 3 6 8 10 11 10 2 0 4 -4 4 -10z
m-73 -6 c-3 -3 -12 -4 -19 -1 -8 3 -5 6 6 6 11 1 17 -2 13 -5z m38 -14 c-3 -5
-10 -10 -16 -10 -5 0 -9 5 -9 10 0 6 7 10 16 10 8 0 12 -4 9 -10z m-115 -21
c-11 -8 -8 -9 15 -5 24 5 27 4 12 -4 -22 -14 -67 -3 -46 11 20 12 37 11 19 -2z
m77 5 c-3 -3 -12 -4 -19 -1 -8 3 -5 6 6 6 11 1 17 -2 13 -5z m588 -52 c-3 -3
-11 0 -18 7 -9 10 -8 11 6 5 10 -3 15 -9 12 -12z m-747 -59 c-6 -16 -15 -77
-18 -138 l-7 -110 -1 112 c-1 68 3 122 10 138 15 34 31 32 16 -2z m47 -2 c-3
-6 -11 -11 -17 -11 -6 0 -6 6 2 15 14 17 26 13 15 -4z m155 -671 l0 -70 -99 0
-99 0 -3 38 c-2 20 -3 52 -1 70 l3 32 100 0 99 0 0 -70z m435 62 c6 -4 9 -34
7 -69 l-4 -63 -100 0 c-99 0 -100 0 -94 23 3 12 6 43 6 70 l0 47 88 0 c48 0
92 -4 97 -8z m-225 -51 c0 -27 3 -56 6 -65 5 -14 -7 -16 -95 -16 l-101 0 0 65
0 65 95 0 95 0 0 -49z"/>
<path d="M3012 2429 c10 -29 11 -29 29 -13 28 25 24 44 -10 44 -29 0 -30 -1
-19 -31z"/>
<path d="M3003 2343 c20 -2 54 -2 75 0 20 2 3 4 -38 4 -41 0 -58 -2 -37 -4z"/>
<path d="M3145 2330 c-4 -6 5 -10 19 -10 14 0 26 5 26 10 0 6 -9 10 -19 10
-11 0 -23 -4 -26 -10z"/>
<path d="M3258 2303 c7 -3 16 -2 19 1 4 3 -2 6 -13 5 -11 0 -14 -3 -6 -6z"/>
<path d="M2620 1490 l0 -40 75 0 75 0 0 40 0 40 -75 0 -75 0 0 -40z"/>
<path d="M3090 1490 l0 -40 55 0 55 0 0 40 0 40 -55 0 -55 0 0 -40z"/>
<path d="M2850 1485 l0 -35 65 0 65 0 0 35 0 35 -65 0 -65 0 0 -35z"/>
<path d="M4831 2484 c0 -11 3 -14 6 -6 3 7 2 16 -1 19 -3 4 -6 -2 -5 -13z"/>
<path d="M1224 2433 c-3 -16 -10 -44 -15 -63 -12 -49 -11 -59 5 -30 7 14 17
46 20 73 8 50 0 65 -10 20z"/>
<path d="M1600 2450 c-50 -6 -46 -7 38 -8 50 -1 92 -4 92 -6 0 -3 -4 -16 -10
-30 -9 -26 -11 -26 -111 -26 l-101 0 6 33 c4 23 3 28 -4 17 -5 -8 -10 -28 -10
-45 l0 -30 117 5 117 5 8 34 c17 63 2 69 -142 51z"/>
<path d="M1821 2433 c2 -24 2 -25 6 -5 4 21 8 22 132 22 l128 0 -5 -30 -4 -29
-126 -3 c-93 -2 -126 -6 -130 -16 -3 -11 22 -13 131 -10 75 2 137 5 140 8 2 3
7 24 11 48 l6 42 -145 0 -145 0 1 -27z"/>
<path d="M2263 2425 c0 -22 2 -30 4 -17 2 12 2 30 0 40 -3 9 -5 -1 -4 -23z"/>
<path d="M4842 2435 c0 -16 2 -22 5 -12 2 9 2 23 0 30 -3 6 -5 -1 -5 -18z"/>
<path d="M3973 2409 c3 -22 8 -43 10 -46 3 -2 67 -7 143 -10 l137 -6 -6 39
c-4 21 -7 45 -7 52 0 9 -35 12 -141 12 l-142 0 6 -41z m245 22 c8 -5 12 -21
10 -37 -3 -32 -5 -32 -170 -23 l-68 3 0 33 0 33 108 0 c59 0 113 -4 120 -9z"/>
<path d="M2513 2385 c0 -33 2 -45 4 -27 2 18 2 45 0 60 -2 15 -4 0 -4 -33z"/>
<path d="M4320 2408 c0 -60 6 -63 153 -66 l135 -4 -8 39 c-3 22 -10 45 -14 51
-5 8 -48 12 -137 12 l-129 0 0 -32z m246 -3 c8 -10 14 -22 14 -27 0 -4 -54 -8
-120 -8 l-120 0 0 31 0 31 106 -4 c90 -3 108 -6 120 -23z"/>
<path d="M4959 2395 c-7 -6 5 -73 15 -82 7 -8 6 22 -3 60 -3 16 -9 26 -12 22z"/>
<path d="M1386 2336 c2 -22 1 -32 -3 -21 -4 14 -12 -3 -24 -55 -21 -85 -24
-120 -9 -120 12 0 13 -57 1 -64 -4 -3 -11 -38 -15 -78 -3 -40 -9 -98 -12 -128
-10 -88 12 -47 25 45 22 168 52 361 61 395 14 49 13 57 -9 63 -17 4 -18 0 -15
-37z m-9 -103 c-3 -10 -5 -4 -5 12 0 17 2 24 5 18 2 -7 2 -21 0 -30z m-10 -65
c-3 -8 -6 -5 -6 6 -1 11 2 17 5 13 3 -3 4 -12 1 -19z"/>
<path d="M2458 2364 c-5 -4 -8 -37 -8 -73 0 -45 3 -62 11 -54 5 5 9 38 7 72
-2 35 -6 59 -10 55z"/>
<path d="M4896 2343 c9 -38 14 -42 14 -10 0 14 -5 29 -10 32 -7 4 -8 -3 -4
-22z"/>
<path d="M3630 2334 c0 -8 5 -12 10 -9 6 4 8 11 5 16 -9 14 -15 11 -15 -7z"/>
<path d="M1560 2311 l-75 -6 -17 -95 -17 -95 4 70 c5 90 -9 66 -25 -40 -6 -44
-15 -102 -20 -130 -18 -98 -24 -189 -12 -181 7 4 12 24 12 44 0 48 27 222 35
231 7 6 2 -77 -11 -206 -6 -62 -5 -63 19 -63 23 0 26 5 32 48 3 26 8 62 11 80
3 21 1 32 -7 32 -8 0 -6 7 4 18 18 20 23 82 7 82 -5 0 -10 5 -10 10 0 6 8 10
18 10 14 0 18 8 18 38 0 64 9 132 17 132 11 0 12 -60 1 -133 l-6 -38 49 3 48
3 10 74 c6 43 15 76 23 79 16 5 15 -11 -3 -81 -20 -77 -19 -79 12 -75 24 3 29
9 40 53 6 28 12 71 12 98 l1 47 -47 -2 c-27 -1 -82 -4 -123 -7z m57 -97 c-3
-3 -12 -4 -19 -1 -8 3 -5 6 6 6 11 1 17 -2 13 -5z"/>
<path d="M1797 2313 c-3 -5 -10 -48 -16 -98 -7 -49 -16 -121 -21 -160 -5 -38
-12 -97 -15 -130 -4 -33 -9 -68 -12 -78 -4 -16 1 -18 43 -15 54 3 53 1 67 131
4 43 3 47 -17 47 -11 0 -28 5 -36 10 -11 7 -6 10 21 10 l37 0 5 53 c4 28 9 69
12 89 5 35 4 37 -27 41 l-33 4 33 1 c29 2 32 5 32 32 0 21 5 30 16 30 11 0 14
-5 9 -17 -13 -35 -9 -38 48 -41 l57 -3 0 31 c0 16 5 30 11 30 7 0 9 -11 6 -30
-6 -28 -4 -30 23 -30 34 0 36 2 45 58 l7 42 -146 0 c-79 0 -147 -3 -149 -7z"/>
<path d="M1192 2290 c0 -14 2 -19 5 -12 2 6 2 18 0 25 -3 6 -5 1 -5 -13z"/>
<path d="M3984 2278 c3 -17 6 -39 6 -49 0 -14 7 -19 28 -19 26 0 28 2 24 35
-4 29 -1 34 12 29 13 -5 16 -21 16 -79 0 -79 6 -91 55 -98 27 -4 27 -4 -7 -6
-38 -1 -38 -1 -38 -43 0 -42 1 -43 32 -41 18 1 45 2 61 2 23 1 27 5 27 32 0
17 -4 38 -10 48 -12 23 -21 191 -10 191 12 0 20 -40 20 -107 0 -53 3 -63 20
-68 29 -9 40 2 40 41 0 25 -4 34 -16 34 -12 0 -14 3 -6 13 6 6 12 28 14 47 3
32 23 -115 47 -345 9 -83 9 -79 5 54 -5 150 -17 260 -36 323 l-11 37 -140 0
-139 0 6 -31z m147 -78 c5 0 9 -5 9 -11 0 -15 -43 -7 -48 10 -3 10 0 12 12 8
10 -4 22 -7 27 -7z"/>
<path d="M2241 2233 c-7 -40 -11 -80 -9 -90 3 -10 10 14 17 54 7 40 11 80 9
90 -3 10 -10 -14 -17 -54z"/>
<path d="M4342 2250 c2 -47 4 -50 28 -50 24 0 26 3 22 37 -4 34 -3 36 12 24 9
-7 16 -26 16 -42 0 -27 3 -29 43 -31 l42 -1 -37 -4 c-36 -4 -38 -6 -38 -39 0
-34 0 -34 45 -34 l44 0 3 83 3 82 13 -100 c25 -188 21 -175 54 -175 28 0 30 2
22 28 -4 15 -9 44 -10 65 -3 60 -13 87 -31 87 -15 0 -15 2 2 14 12 8 16 20 12
35 -3 14 1 24 11 30 15 9 15 11 -3 25 -15 12 -48 15 -138 16 l-117 0 2 -50z"/>
<path d="M4925 2280 c-14 -6 2 -9 49 -9 38 -1 66 2 63 5 -10 11 -90 13 -112 4z"/>
<path d="M1172 2221 c-16 -53 -26 -140 -14 -121 11 18 36 149 30 156 -3 2 -10
-13 -16 -35z"/>
<path d="M4927 2243 c-10 -16 2 -83 14 -83 10 0 10 33 0 70 -5 17 -9 21 -14
13z"/>
<path d="M4623 2078 c10 -90 21 -187 24 -215 2 -29 9 -53 15 -53 11 0 4 133
-12 225 -4 28 -14 85 -21 128 -21 135 -25 83 -6 -85z"/>
<path d="M4987 2210 c8 -31 20 -33 25 -5 4 19 1 25 -12 25 -13 0 -17 -6 -13
-20z"/>
<path d="M2444 2115 c0 -60 1 -84 3 -52 2 32 2 81 0 110 -2 29 -3 3 -3 -58z"/>
<path d="M3447 2206 c-3 -8 1 -17 9 -20 8 -3 14 -11 14 -18 0 -9 -3 -9 -11 2
-9 12 -10 12 -5 -3 3 -10 6 -24 6 -30 0 -7 4 -6 10 3 11 18 11 27 16 -180 2
-80 5 -170 7 -200 2 -30 7 -218 12 -418 5 -258 11 -362 19 -359 12 4 12 24 3
627 -7 451 -14 547 -39 583 -22 30 -33 34 -41 13z"/>
<path d="M3643 2160 c0 -30 2 -43 4 -27 2 15 2 39 0 55 -2 15 -4 2 -4 -28z"/>
<path d="M1888 2176 c-7 -38 5 -48 53 -44 42 3 44 5 47 36 l3 32 -49 0 c-45 0
-50 -2 -54 -24z"/>
<path d="M2017 2193 c-14 -26 -17 -67 -5 -75 10 -6 10 -10 1 -16 -6 -4 -13
-21 -16 -37 l-4 -30 -2 31 c-1 37 -10 42 -73 36 -38 -3 -48 -8 -48 -22 0 -10
-3 -25 -6 -34 -5 -14 7 -16 95 -16 l101 0 0 44 c0 26 -5 46 -12 49 -7 3 -3 6
10 6 18 1 22 7 22 36 0 32 -2 35 -29 35 -17 0 -32 -3 -34 -7z"/>
<path d="M4881 2183 c0 -10 4 -27 9 -38 7 -17 9 -15 9 12 1 17 -3 35 -9 38 -5
3 -10 -2 -9 -12z"/>
<path d="M1120 2175 c7 -9 15 -13 17 -11 7 7 -7 26 -19 26 -6 0 -6 -6 2 -15z"/>
<path d="M3994 2129 c3 -34 6 -73 6 -85 0 -20 5 -24 33 -24 l32 0 -9 85 -10
85 -29 0 -30 0 7 -61z"/>
<path d="M4340 2168 c1 -37 14 -58 36 -58 21 0 24 5 24 35 0 32 -2 35 -30 35
-17 0 -30 -5 -30 -12z"/>
<path d="M1332 2105 c0 -16 2 -22 5 -12 2 9 2 23 0 30 -3 6 -5 -1 -5 -18z"/>
<path d="M4930 2113 c0 -10 5 -25 10 -33 7 -11 10 -7 10 18 0 17 -4 32 -10 32
-5 0 -10 -8 -10 -17z"/>
<path d="M2227 2090 c-19 -81 -58 -863 -42 -848 4 4 8 42 10 85 4 95 34 581
41 679 7 79 2 127 -9 84z"/>
<path d="M1530 2060 l0 -40 50 0 50 0 0 40 0 40 -50 0 -50 0 0 -40z"/>
<path d="M1657 2093 c-12 -23 -16 -63 -6 -63 8 0 8 -4 1 -12 -11 -14 -32 -116
-32 -155 0 -19 5 -23 29 -23 28 0 28 0 35 78 3 42 9 101 12 130 6 48 5 52 -14
52 -12 0 -23 -3 -25 -7z"/>
<path d="M4214 2013 c3 -42 6 -102 6 -135 l0 -58 34 0 c33 0 35 1 30 33 -16
111 -20 157 -12 165 4 4 2 22 -4 40 -9 24 -19 32 -37 32 -24 0 -24 0 -17 -77z"/>
<path d="M4356 2013 c4 -43 11 -91 15 -108 5 -16 9 -42 9 -57 0 -24 4 -28 26
-28 l27 0 -7 93 c-13 171 -15 177 -48 177 l-30 0 8 -77z"/>
<path d="M4432 2048 l3 -43 53 -3 c56 -3 57 -2 46 57 -6 30 -9 31 -56 31 l-49
0 3 -42z"/>
<path d="M4911 2074 c0 -11 3 -14 6 -6 3 7 2 16 -1 19 -3 4 -6 -2 -5 -13z"/>
<path d="M2822 2003 l2 -78 3 72 4 72 62 4 62 3 -67 2 -68 2 2 -77z"/>
<path d="M3037 2073 c-14 -13 -7 -25 11 -17 9 4 44 11 77 14 l60 7 -71 1 c-39
1 -74 -1 -77 -5z"/>
<path d="M3265 2050 c-3 -5 -1 -19 5 -29 7 -13 7 -34 1 -60 -5 -25 -5 -58 1
-86 l10 -46 81 3 82 3 3 113 3 112 -90 0 c-49 0 -93 -4 -96 -10z"/>
<path d="M880 2047 c0 -2 6 -26 14 -53 8 -27 42 -176 76 -332 33 -156 69 -306
80 -334 29 -75 82 -150 177 -249 117 -121 92 -119 -72 6 -127 98 -163 120
-365 225 -356 187 -469 273 -554 421 -42 75 -45 65 -11 -37 94 -281 297 -511
573 -652 54 -27 124 -59 157 -71 63 -23 586 -143 592 -137 3 2 -9 19 -25 37
-48 55 -149 217 -176 283 -14 33 -64 160 -111 281 -48 121 -104 251 -126 289
-70 121 -229 346 -229 323z"/>
<path d="M2846 2042 c-3 -5 -5 -50 -4 -100 l1 -92 73 0 74 0 0 100 0 100 -69
0 c-39 0 -72 -4 -75 -8z"/>
<path d="M3060 1950 l0 -100 76 0 77 0 -6 61 c-3 33 -2 72 2 87 13 46 5 52
-75 52 l-74 0 0 -100z"/>
<path d="M5202 1998 c-180 -245 -213 -312 -396 -790 -38 -98 -114 -230 -186
-321 -22 -27 -39 -52 -37 -53 6 -6 530 114 592 136 98 34 240 110 328 176 192
144 329 331 402 548 34 102 31 112 -11 38 -89 -158 -186 -230 -616 -456 -91
-49 -204 -117 -250 -153 -206 -159 -251 -174 -125 -44 95 99 148 174 177 249
11 28 47 178 80 334 34 156 67 307 75 336 7 28 11 52 9 52 -2 0 -21 -24 -42
-52z"/>
<path d="M3652 1945 c0 -90 0 -90 10 -33 5 35 5 70 -1 90 -7 27 -9 16 -9 -57z"/>
<path d="M1917 2002 c-46 -4 -57 -25 -57 -113 l0 -59 44 0 45 0 6 53 c4 28 5
68 3 87 -3 34 -4 35 -41 32z"/>
<path d="M1990 1986 c0 -12 -3 -51 -6 -85 l-7 -61 31 0 c34 0 34 -1 47 118 l6
52 -36 0 c-30 0 -35 -3 -35 -24z"/>
<path d="M1523 1983 c-4 -9 -7 -46 -7 -82 l-1 -66 34 -3 c18 -2 37 0 41 5 5 4
11 43 15 86 l7 77 -41 0 c-30 0 -43 -5 -48 -17z"/>
<path d="M4004 1948 c16 -132 15 -128 48 -128 30 0 30 1 24 38 -3 20 -6 61 -6
90 l0 52 -36 0 -36 0 6 -52z"/>
<path d="M1306 1952 c-4 -24 -5 -46 -2 -49 12 -12 17 6 14 48 l-3 44 -9 -43z"/>
<path d="M4091 1933 c2 -95 8 -108 57 -111 l42 -3 0 85 0 86 -50 0 -50 0 1
-57z"/>
<path d="M4444 1953 c3 -21 6 -59 6 -85 l0 -48 45 0 45 0 0 69 c0 95 -3 101
-57 101 l-46 0 7 -37z"/>
<path d="M4567 1903 c3 -43 9 -82 13 -86 4 -5 18 -7 31 -5 24 3 24 3 15 86 -8
81 -8 82 -36 82 l-28 0 5 -77z"/>
<path d="M2433 1885 c0 -38 2 -53 4 -32 2 20 2 52 0 70 -2 17 -4 1 -4 -38z"/>
<path d="M1945 1810 l-110 -6 113 -2 c69 -1 112 2 112 8 0 6 -1 9 -2 8 -2 -1
-52 -5 -113 -8z"/>
<path d="M1435 1800 c-4 -6 42 -10 129 -10 84 0 136 4 136 10 0 6 -50 10 -129
10 -76 0 -132 -4 -136 -10z"/>
<path d="M4143 1783 c31 -2 83 -2 115 0 31 2 5 3 -58 3 -63 0 -89 -1 -57 -3z"/>
<path d="M4373 1784 c3 -3 72 -8 153 -11 106 -4 145 -2 140 6 -5 7 -57 11
-153 11 -81 0 -144 -3 -140 -6z"/>
<path d="M2640 1744 c-14 -35 -12 -118 2 -132 9 -9 108 -12 385 -12 l373 0 0
85 0 85 -375 0 -375 0 -10 -26z m730 0 c6 -6 10 -35 8 -65 l-3 -54 -347 -3
-348 -2 0 69 0 69 340 -1 c232 -1 342 -5 350 -13z"/>
<path d="M2707 1723 c-4 -3 -7 -21 -7 -40 l0 -33 320 0 320 0 0 40 0 40 -313
0 c-173 0 -317 -3 -320 -7z"/>
<path d="M2418 1730 c-12 -62 -19 -361 -7 -355 5 4 7 15 4 25 -3 10 -1 38 5
62 6 23 10 102 8 173 -2 83 -6 117 -10 95z"/>
<path d="M1414 1725 c-3 -8 -2 -20 2 -26 5 -9 10 -6 15 9 8 21 15 22 109 22
l101 0 -3 -37 -3 -38 -90 -5 c-72 -4 -82 -6 -50 -11 22 -4 54 -6 70 -4 17 1
42 3 57 3 21 2 29 8 33 27 3 14 7 36 10 50 l5 25 -125 0 c-101 0 -127 -3 -131
-15z"/>
<path d="M1727 1733 c-10 -18 -5 -83 6 -90 6 -4 76 -9 154 -11 l143 -4 0 56 0
56 -149 0 c-83 0 -152 -3 -154 -7z m271 -40 l-3 -38 -125 0 c-123 0 -125 0
-128 23 -7 50 -1 52 133 52 l126 0 -3 -37z"/>
<path d="M4030 1688 c0 -27 5 -48 10 -48 6 0 10 18 10 40 l0 40 120 0 c131 0
123 4 144 -64 11 -32 18 -9 11 33 l-7 40 -144 3 -144 3 0 -47z"/>
<path d="M4387 1683 c3 -27 7 -50 9 -52 2 -2 23 -7 46 -12 66 -13 150 -10 178
6 23 13 15 14 -87 15 l-113 0 0 40 0 41 117 -3 118 -3 6 -30 c5 -24 7 -26 13
-13 4 9 6 25 4 35 -3 16 -18 18 -150 21 l-148 3 7 -48z"/>
<path d="M3666 1523 c4 -76 8 -140 10 -142 2 -2 4 57 4 132 0 79 -4 138 -10
142 -6 4 -8 -41 -4 -132z"/>
<path d="M1740 1575 c-9 -10 -10 -28 -5 -58 4 -23 10 -64 14 -92 l7 -50 7 60
c11 84 30 110 22 29 -8 -89 -5 -94 71 -94 l64 0 0 44 c0 34 -4 46 -17 49 -17
4 -17 5 0 6 12 1 17 10 17 30 0 17 4 32 9 35 5 3 12 -35 15 -84 7 -87 8 -90
32 -90 l25 0 -3 113 -3 112 -121 3 c-99 2 -123 0 -134 -13z"/>
<path d="M1541 1564 c7 -8 21 -13 31 -11 13 4 18 -1 18 -17 0 -21 27 -56 43
-56 4 0 7 23 7 50 l0 50 -56 0 c-50 0 -55 -2 -43 -16z"/>
<path d="M4030 1466 c0 -100 1 -105 22 -112 l23 -7 -23 -8 c-20 -8 -22 -13
-16 -46 9 -51 11 -53 45 -53 l30 0 -7 88 c-11 125 -9 220 4 208 4 -4 9 -44 12
-89 l5 -82 47 -3 c44 -3 48 -1 54 24 4 14 4 54 1 89 -5 48 -3 66 8 75 12 10
15 -3 17 -87 l3 -98 33 -3 33 -3 -3 103 -3 103 -142 3 -143 3 0 -105z"/>
<path d="M4402 1523 c3 -41 6 -48 26 -51 20 -3 22 1 22 37 0 54 27 58 32 5 l3
-35 45 45 44 46 -87 0 -88 0 3 -47z"/>
<path d="M3310 1485 l0 -35 55 0 55 0 0 35 0 35 -55 0 -55 0 0 -35z"/>
<path d="M4400 1425 c0 -8 4 -15 9 -15 5 0 14 7 21 15 10 13 9 15 -9 15 -12 0
-21 -6 -21 -15z"/>
<path d="M3333 1413 c15 -2 37 -2 50 0 12 2 0 4 -28 4 -27 0 -38 -2 -22 -4z"/>
<path d="M1310 1407 c0 -6 128 -246 197 -368 26 -48 59 -99 73 -115 69 -80
194 -158 318 -199 29 -9 52 -19 50 -21 -2 -2 -56 5 -119 16 -63 11 -179 26
-259 34 -249 26 -472 56 -540 73 -115 28 -201 74 -312 166 -27 21 -48 34 -48
29 0 -25 129 -179 199 -239 182 -155 376 -229 631 -240 167 -7 240 4 584 89
l249 61 -134 39 c-194 57 -196 58 -509 342 -327 297 -380 343 -380 333z"/>
<path d="M4730 1333 c-47 -41 -170 -153 -275 -248 -328 -298 -331 -299 -539
-358 l-118 -34 248 -61 c390 -95 471 -107 626 -91 278 28 506 137 674 321 50
55 125 160 119 166 -2 2 -34 -21 -71 -51 -90 -73 -185 -123 -280 -147 -81 -21
-292 -50 -541 -75 -79 -8 -184 -21 -235 -30 -51 -8 -109 -17 -128 -20 -20 -3
10 13 70 37 188 77 263 145 364 328 101 183 178 331 174 335 -2 2 -42 -30 -88
-72z"/>
<path d="M2802 1163 l3 -228 2 223 3 222 105 0 c71 0 105 -4 105 -11 0 -8 4
-8 13 -1 7 6 49 13 92 15 44 1 -11 4 -122 5 l-203 2 2 -227z"/>
<path d="M3294 1357 c-2 -7 -3 -74 -2 -148 l3 -134 68 -3 67 -3 0 151 0 150
-65 0 c-45 0 -67 -4 -71 -13z"/>
<path d="M2653 1353 l-33 -4 0 -145 0 -144 70 0 70 0 0 150 0 150 -37 -2 c-21
0 -53 -3 -70 -5z"/>
<path d="M3093 1353 l-33 -4 0 -140 0 -139 75 0 75 0 0 145 0 145 -42 -2 c-24
0 -58 -3 -75 -5z"/>
<path d="M2860 1205 l0 -146 63 3 62 3 3 143 3 142 -66 0 -65 0 0 -145z"/>
<path d="M1835 1316 c17 -14 42 -32 58 -41 l27 -16 0 40 0 41 -57 0 -58 0 30
-24z"/>
<path d="M1942 1293 c3 -44 5 -48 31 -51 26 -3 27 -2 27 47 0 50 -1 51 -31 51
-30 0 -30 -1 -27 -47z"/>
<path d="M3249 1333 c-1 -5 -4 -71 -8 -148 l-6 -140 -75 -6 -75 -5 73 -2 72
-2 0 -45 c0 -33 4 -45 15 -45 13 0 15 29 15 200 0 110 -2 200 -5 200 -3 0 -6
-3 -6 -7z"/>
<path d="M4120 1291 c0 -48 1 -51 26 -51 41 0 86 37 82 69 -3 24 -7 26 -55 29
l-53 3 0 -50z"/>
<path d="M4255 1330 c-3 -5 3 -10 14 -10 11 0 23 5 26 10 3 6 -3 10 -14 10
-11 0 -23 -4 -26 -10z"/>
<path d="M3023 1270 c0 -25 2 -35 4 -22 2 12 2 32 0 45 -2 12 -4 2 -4 -23z"/>
<path d="M4040 1195 c0 -29 7 -31 38 -9 30 21 28 34 -8 34 -25 0 -30 -4 -30
-25z"/>
<path d="M3022 1150 c0 -19 2 -27 5 -17 2 9 2 25 0 35 -3 9 -5 1 -5 -18z"/>
<path d="M2171 1144 c0 -11 3 -14 6 -6 3 7 2 16 -1 19 -3 4 -6 -2 -5 -13z"/>
<path d="M2343 1112 l-21 -49 32 -11 c18 -7 42 -12 54 -12 l22 0 -24 48 c-41
78 -41 78 -63 24z"/>
<path d="M3664 1124 c3 -6 -3 -19 -14 -29 -12 -11 -18 -25 -15 -36 4 -12 -1
-19 -15 -24 -11 -3 -20 -11 -20 -16 0 -13 44 -11 75 3 31 14 33 53 4 88 -11
14 -18 20 -15 14z"/>
<path d="M3018 1062 c-5 -18 -2 -22 15 -22 13 0 17 3 11 8 -6 4 -13 14 -16 22
-3 10 -6 8 -10 -8z"/>
<path d="M3077 1003 c-4 -3 -7 -21 -7 -40 l0 -33 60 0 60 0 0 34 c0 31 -3 34
-37 40 -49 8 -68 8 -76 -1z"/>
<path d="M2626 987 c5 -14 112 -39 127 -30 4 2 7 13 7 24 0 17 -7 19 -70 19
-54 0 -68 -3 -64 -13z"/>
<path d="M2860 971 c0 -34 22 -45 81 -39 30 3 34 6 34 33 0 30 -1 30 -57 33
l-58 3 0 -30z"/>
<path d="M3310 969 c0 -22 4 -30 14 -26 7 3 34 9 60 12 36 6 46 11 46 26 0 17
-8 19 -60 19 l-60 0 0 -31z"/>
<path d="M2560 676 c-30 -8 -197 -65 -370 -126 -416 -147 -445 -154 -595 -154
-132 1 -206 19 -359 89 -42 19 -76 30 -76 25 0 -29 253 -203 362 -248 155 -64
362 -79 508 -36 87 25 261 114 430 218 220 137 262 156 351 163 41 3 84 1 97
-4 19 -7 1 -20 -143 -103 -202 -116 -313 -194 -430 -303 l-89 -83 43 -40 c85
-76 68 -80 199 53 186 190 412 364 529 409 40 16 43 15 98 -10 141 -64 339
-217 522 -404 82 -84 115 -112 126 -105 8 4 36 28 63 52 l48 45 -80 74 c-119
110 -213 178 -384 276 -85 49 -170 98 -189 109 l-34 20 24 10 c13 5 57 7 96 4
86 -6 138 -28 284 -119 367 -228 468 -272 656 -285 204 -13 424 57 588 187 33
27 76 65 95 86 42 44 40 44 -118 -21 -223 -92 -383 -84 -717 36 -93 34 -255
91 -360 127 l-190 67 -130 0 c-105 -1 -152 -6 -243 -27 l-112 -27 -108 25
c-133 32 -311 40 -392 20z"/>
</g>
</svg>
