<svg width="26" height="28" viewBox="0 0 26 28" fill="none" xmlns="http://www.w3.org/2000/svg">
<path d="M23.1925 3.10174C21.8701 1.68189 19.9883 0.945679 17.8521 0.945679H7.37482C2.94993 0.945679 0 3.99572 0 8.57077V19.3511C0 21.6123 0.712051 23.558 2.13615 24.9779C3.5094 26.3451 5.34038 27.0288 7.42568 27.0288H17.8013C19.9883 27.0288 21.8193 26.2925 23.1417 24.9779C24.5149 23.6106 25.227 21.6649 25.227 19.4037V8.57077C25.227 6.36212 24.5149 4.469 23.1925 3.10174ZM22.9891 19.4037C22.9891 21.0339 22.4296 22.3485 21.5141 23.2425C20.5986 24.1365 19.3271 24.6098 17.8013 24.6098H7.42568C5.89985 24.6098 4.62833 24.1365 3.71284 23.2425C2.79734 22.2959 2.3396 20.9813 2.3396 19.3511V8.57077C2.3396 6.99317 2.79734 5.67849 3.71284 4.73193C4.57747 3.83796 5.89985 3.36467 7.42568 3.36467H17.903C19.4288 3.36467 20.7003 3.83796 21.6158 4.78452C22.4805 5.73108 22.9891 7.04575 22.9891 8.57077V19.4037Z" fill="black"/>
</svg>
