<svg width="26" height="27" viewBox="0 0 26 27" fill="none" xmlns="http://www.w3.org/2000/svg">
<path d="M12.5102 8C8.94993 8 6 10.9974 6 14.7311C6 18.4648 8.89907 21.4622 12.5102 21.4622C16.1213 21.4622 19.0204 18.4122 19.0204 14.7311C19.0204 11.05 16.0704 8 12.5102 8ZM12.5102 19.0432C10.2214 19.0432 8.3396 17.0975 8.3396 14.7311C8.3396 12.3647 10.2214 10.419 12.5102 10.419C14.7989 10.419 16.6808 12.3647 16.6808 14.7311C16.6808 17.0975 14.7989 19.0432 12.5102 19.0432Z" fill="black"/>
<path d="M19.3778 7.62511C20.1924 7.62511 20.8528 6.94234 20.8528 6.10009C20.8528 5.25785 20.1924 4.57508 19.3778 4.57508C18.5632 4.57508 17.9028 5.25785 17.9028 6.10009C17.9028 6.94234 18.5632 7.62511 19.3778 7.62511Z" fill="black"/>
<path d="M23.1925 2.15606C21.8701 0.736216 19.9883 0 17.8521 0H7.37482C2.94993 0 0 3.05004 0 7.62509V18.4054C0 20.6666 0.712051 22.6123 2.13615 24.0322C3.5094 25.3994 5.34038 26.0831 7.42568 26.0831H17.8013C19.9883 26.0831 21.8193 25.3469 23.1417 24.0322C24.5149 22.6649 25.227 20.7192 25.227 18.458V7.62509C25.227 5.41644 24.5149 3.52332 23.1925 2.15606ZM22.9891 18.458C22.9891 20.0882 22.4296 21.4028 21.5141 22.2968C20.5986 23.1908 19.3271 23.6641 17.8013 23.6641H7.42568C5.89985 23.6641 4.62833 23.1908 3.71284 22.2968C2.79734 21.3503 2.3396 20.0356 2.3396 18.4054V7.62509C2.3396 6.04749 2.79734 4.73282 3.71284 3.78625C4.57747 2.89228 5.89985 2.41899 7.42568 2.41899H17.903C19.4288 2.41899 20.7003 2.89228 21.6158 3.83884C22.4805 4.7854 22.9891 6.10007 22.9891 7.62509V18.458Z" fill="black"/>
</svg>
