<svg width="26" height="28" viewBox="0 0 26 28" fill="none" xmlns="http://www.w3.org/2000/svg">
<path d="M13.6482 12.7367V12.6962C13.6401 12.7098 13.6314 12.7235 13.6228 12.7367H13.6482Z" fill="black"/>
<path d="M23.4452 0.897705H1.94675C0.91777 0.897705 0.083252 1.73996 0.083252 2.77801V25.2662C0.083252 26.3037 0.91777 27.146 1.94675 27.146H23.4452C24.4757 27.146 25.3102 26.3032 25.3102 25.2662V2.77801C25.3102 1.73944 24.4752 0.897705 23.4452 0.897705ZM7.72969 22.8708H3.91949V11.0185H7.72969V22.8708ZM5.82484 9.39944H5.79932C4.52126 9.39944 3.69439 8.48911 3.69439 7.35185C3.69439 6.18926 4.54678 5.30425 5.84985 5.30425C7.15344 5.30425 7.95529 6.18926 7.98081 7.35185C7.98081 8.48911 7.15293 9.39944 5.82484 9.39944ZM21.4694 22.8708H17.6592V16.5286C17.6592 14.9359 17.1079 13.8487 15.7293 13.8487C14.6769 13.8487 14.0501 14.5818 13.7739 15.29C13.6734 15.5428 13.6489 15.8963 13.6489 16.251V22.8703H9.8387C9.8387 22.8703 9.88872 12.1289 9.8387 11.018H13.6489V12.6956C14.1552 11.8882 15.0607 10.7383 17.0834 10.7383C19.5901 10.7383 21.4699 12.4328 21.4699 16.0737V22.8708H21.4694Z" fill="black"/>
</svg>
