<svg width="151" height="122" viewBox="0 0 151 122" fill="none" xmlns="http://www.w3.org/2000/svg">
<path fill-rule="evenodd" clip-rule="evenodd" d="M33.1004 0.307905C32.8269 0.458408 32.1556 0.765381 31.6086 0.990141C31.0616 1.2149 30.3552 1.53049 30.0386 1.6916C29.722 1.85272 29.237 1.98432 28.9612 1.98432C28.6851 1.98432 28.4593 2.1335 28.4593 2.31583C28.4593 2.49815 28.273 2.64932 28.0449 2.65164C27.369 2.65893 23.1552 6.19343 23.1552 6.75334C23.1552 6.88064 22.8771 7.28342 22.5367 7.64841C22.1965 8.01339 21.5809 9.0142 21.1689 9.87214C20.4674 11.3321 20.2894 11.7508 19.5548 13.6699C19.1338 14.7691 18.5142 16.7512 18.5142 16.9982C18.5142 17.3389 19.6257 16.8347 20.1717 16.2463C20.4452 15.9516 21.1911 15.3459 21.8292 14.9007C23.2663 13.8979 27.1333 10.0644 27.1333 9.64274C27.1333 9.47234 27.2556 9.28305 27.4048 9.22206C27.5543 9.16139 28.3221 8.15528 29.1111 6.98639C30.7842 4.5074 31.4346 3.70384 33.349 1.74829C34.1241 0.956991 34.7579 0.238621 34.7579 0.152429C34.7579 -0.0968619 33.6464 0.00723054 33.1004 0.307905ZM116.308 0.173977C116.308 0.272434 117.016 1.06738 117.883 1.9409C119.851 3.92594 120.142 4.29259 122.302 7.49923C123.905 9.87976 128.961 15.2445 129.601 15.2445C129.749 15.2445 130.242 15.6174 130.698 16.0733C131.678 17.0532 132.743 17.209 132.396 16.3219C132.271 16.003 131.791 14.6236 131.33 13.2565C130.869 11.8897 130.241 10.3979 129.935 9.94142C129.629 9.48527 129.184 8.72381 128.947 8.25009C128.153 6.66516 123.914 2.66059 123.021 2.65164C122.793 2.64932 122.607 2.49815 122.607 2.31583C122.607 2.1335 122.381 1.98432 122.105 1.98432C121.829 1.98432 121.344 1.85272 121.027 1.6916C120.711 1.53049 120.004 1.21457 119.457 0.989809C118.91 0.76505 118.204 0.449126 117.887 0.288015C117.249 -0.0361966 116.308 -0.104155 116.308 0.173977ZM18.5052 7.53702C16.5441 8.94724 13.834 12.0243 12.8428 13.9659C11.3069 16.974 10.8826 20.2045 11.2818 25.8526C11.4555 28.3141 11.5224 30.8129 11.4303 31.4053C11.3069 32.1986 11.3882 32.4827 11.7392 32.4827C12.0011 32.4827 12.2156 32.364 12.2156 32.2185C12.2156 31.464 16.0037 27.6912 21.0833 23.3869C22.9524 21.8033 24.4813 20.3957 24.4813 20.2592C24.4813 20.1223 24.7422 19.7211 25.0614 19.3677C25.9644 18.3666 27.1333 15.9294 27.1333 15.0473C27.1333 14.6087 27.2825 14.25 27.4648 14.25C27.6471 14.25 27.7963 13.9516 27.7963 13.587C27.7963 13.2223 27.733 12.924 27.6554 12.924C27.5782 12.924 26.4965 13.9337 25.252 15.1676C24.0075 16.4018 22.5794 17.6204 22.0779 17.8756C21.5763 18.1312 21.1662 18.4641 21.1662 18.6156C21.1662 18.7671 20.9007 18.891 20.5765 18.891C20.2519 18.891 19.7716 19.1894 19.5087 19.5541C19.2458 19.9187 18.8652 20.2171 18.663 20.2171C18.4608 20.2171 17.5416 20.9629 16.6203 21.8746C14.865 23.6117 14.3087 23.9233 14.6972 22.952C15.1411 21.8424 15.7945 19.0415 16.1857 16.5705C16.8202 12.5613 17.8091 9.93479 19.3648 8.12412C19.8087 7.60763 20.1717 7.13391 20.1717 7.07093C20.1717 6.75732 19.2196 7.02352 18.5052 7.53702ZM130.894 7.07689C130.894 7.14319 131.355 7.77703 131.919 8.48579C133.372 10.314 133.809 11.5074 134.878 16.5705C135.398 19.0319 135.967 21.6054 136.142 22.289C136.538 23.8387 135.995 23.9694 135.046 22.5525C134.686 22.0148 134.052 21.3936 133.637 21.1715C133.222 20.9497 132.883 20.644 132.883 20.4925C132.883 20.341 132.672 20.2171 132.413 20.2171C132.155 20.2171 131.894 20.0964 131.833 19.9492C131.69 19.6008 128.706 17.565 128.339 17.565C128.184 17.565 127.842 17.2667 127.579 16.902C127.316 16.5374 126.946 16.239 126.756 16.239C126.567 16.239 126.04 15.7802 125.586 15.2193C123.885 13.1162 123.592 12.8229 123.392 13.0221C123.128 13.2863 123.995 16.239 124.336 16.239C124.479 16.239 124.596 16.5374 124.596 16.902C124.596 17.2667 124.745 17.565 124.927 17.565C125.109 17.565 125.259 17.8634 125.259 18.228C125.259 18.5927 125.408 18.891 125.59 18.891C125.772 18.891 125.922 19.0926 125.922 19.3392C125.922 19.8753 127.242 21.2799 129.241 22.8691C134.061 26.7013 138.364 30.81 138.715 31.9145C138.82 32.247 139.063 32.4671 139.254 32.4035C139.795 32.2232 139.805 16.5029 139.265 16.3222C139.037 16.246 138.85 15.9065 138.85 15.5674C138.85 14.9196 137.566 12.5059 137.121 12.3163C136.978 12.2553 136.861 12.0256 136.861 11.8051C136.861 11.0685 132.201 6.95689 131.366 6.95689C131.106 6.95689 130.894 7.01092 130.894 7.07689ZM7.98892 18.724C7.76118 18.9829 7.57454 19.4248 7.57454 19.7059C7.57454 19.987 7.42536 20.2171 7.24304 20.2171C7.06071 20.2171 6.91153 20.5154 6.91153 20.8801C6.91153 21.2447 6.76235 21.5431 6.58003 21.5431C6.3977 21.5431 6.24852 21.8325 6.24852 22.1865C6.24852 22.5406 6.09935 22.9221 5.91702 23.0348C5.73469 23.1476 5.58551 23.5951 5.58551 24.0294C5.58551 24.4636 5.43634 24.9112 5.25401 25.0239C5.07168 25.1366 4.9225 25.7121 4.9225 26.3032C4.9225 26.8942 4.75277 27.5473 4.54558 27.7545C4.01717 28.2829 4.00855 38 4.53597 38.5274C4.74846 38.7399 4.9225 39.3227 4.9225 39.8226C4.9225 40.3225 5.07168 40.8234 5.25401 40.9361C5.43634 41.0488 5.58551 41.6541 5.58551 42.2817C5.58551 42.9092 5.73469 43.4224 5.91702 43.4224C6.09935 43.4224 6.24852 43.8699 6.24852 44.4169C6.24852 44.9639 6.3977 45.4114 6.58003 45.4114C6.76235 45.4114 6.91153 45.8589 6.91153 46.4059C6.91153 46.9529 7.06071 47.4004 7.24304 47.4004C7.42536 47.4004 7.57454 47.7435 7.57454 48.1632C7.57454 48.9379 8.26639 50.7102 8.56905 50.7102C8.7958 50.7102 9.56357 49.0211 9.56357 48.5222C9.56357 48.3001 9.67528 48.0691 9.81219 48.0081C9.94877 47.9474 10.4285 47.1518 10.878 46.2402C11.8437 44.2806 13.5963 41.6031 16.3021 37.9525C17.3831 36.4939 18.6415 34.48 19.0986 33.4772C19.5558 32.4744 20.0587 31.3951 20.2165 31.0785C20.3743 30.7619 20.5032 30.2149 20.5032 29.8628C20.5032 29.5108 20.6308 29.1733 20.7873 29.1123C20.9434 29.0517 21.1709 28.4052 21.2929 27.6759L21.5143 26.3499L20.4286 27.6749C19.8316 28.4036 18.4479 29.8648 17.3539 30.922C10.9363 37.1241 11.2188 36.8105 10.5756 38.4498C10.325 39.0879 9.99519 39.7516 9.84203 39.925C9.68888 40.098 9.56357 40.5333 9.56357 40.892C9.56357 41.2504 9.45185 41.432 9.31494 41.2954C9.17803 41.1585 9.05106 39.0551 9.0325 36.6206C9.01393 34.1863 8.81901 31.5509 8.59922 30.7639C8.17058 29.2307 8.26042 20.7916 8.72254 19.1397C8.99769 18.1578 8.65723 17.9648 7.98892 18.724ZM142.342 19.1397C142.812 20.8257 142.903 28.5769 142.475 30.4937C142.251 31.4965 142.06 34.2934 142.05 36.7094C142.04 39.1251 141.912 41.1018 141.767 41.1018C141.621 41.1018 141.502 40.8781 141.502 40.6046C141.502 40.3311 141.353 40.1073 141.171 40.1073C140.988 40.1073 140.839 39.7344 140.839 39.2786C140.839 38.8227 140.727 38.4498 140.589 38.4498C140.451 38.4498 140.124 37.9648 139.861 37.3724C139.599 36.78 138.514 35.4746 137.45 34.4718C133.266 30.5275 131.353 28.6227 130.484 27.534C128.993 25.6673 128.886 26.5256 130.27 29.2459C130.431 29.5625 130.563 29.9825 130.563 30.1794C130.563 31.1133 133.016 35.6771 134.777 38.0188C137.434 41.552 139.306 44.3609 139.871 45.66C140.128 46.2524 140.451 46.7374 140.589 46.7374C140.727 46.7374 140.839 46.9134 140.839 47.1286C140.839 47.7545 142.256 50.7155 142.556 50.7155C142.706 50.7155 142.828 50.4171 142.828 50.0525C142.828 49.6878 142.978 49.3894 143.16 49.3894C143.342 49.3894 143.491 48.9509 143.491 48.4145C143.491 47.8781 143.641 47.3474 143.823 47.2347C144.005 47.122 144.154 46.6658 144.154 46.2206C144.154 45.7754 144.304 45.4114 144.486 45.4114C144.668 45.4114 144.817 44.9728 144.817 44.4364C144.817 43.9001 144.95 43.3796 145.112 43.2792C145.275 43.179 145.484 42.6108 145.578 42.0165C145.673 41.4224 145.94 40.3394 146.172 39.6101C146.686 37.9927 146.961 28.7258 146.531 27.5373C146.36 27.0666 146.028 26.0101 145.793 25.1896C145.558 24.3692 145.242 23.5563 145.091 23.3829C144.941 23.2099 144.817 22.7375 144.817 22.3331C144.817 21.929 144.706 21.5487 144.569 21.4877C144.432 21.4271 143.961 20.6686 143.522 19.8027C142.646 18.0732 141.933 17.6728 142.342 19.1397ZM56.3057 37.6588C47.2685 38.0921 34.1025 39.2232 29.5689 39.9565C28.4417 40.1385 27.9561 40.8539 28.4093 41.6637C28.6609 42.1129 28.7133 42.1136 28.884 41.6684C28.9897 41.3932 29.7207 41.0534 30.508 40.9139C31.7943 40.6855 31.8556 40.6347 31.1114 40.4166L30.2826 40.1733L31.1747 40.1405C31.6653 40.1222 32.1413 40.228 32.2322 40.3752C32.3233 40.5227 33.4137 40.5244 34.6551 40.3788C38.6266 39.9144 38.7548 39.9061 60.6152 38.7448C65.2079 38.5009 71.1617 38.4544 77.3562 38.6146C82.6437 38.7511 89.307 38.903 92.1635 38.9514C95.0201 39.0001 97.5422 39.1539 97.7676 39.2935C97.9934 39.4327 100.43 39.5995 103.182 39.6634C110.055 39.8236 112.638 40.0092 113.098 40.3762C113.315 40.5489 113.786 40.5691 114.153 40.4213C115.062 40.0549 116.72 40.0404 116.497 40.4004C116.275 40.7607 118.616 41.373 121.283 41.6515C122.376 41.7658 123.27 41.9996 123.27 42.1709C123.27 42.7252 119.203 47.7578 118.85 47.6401C118.662 47.5774 118.349 47.057 118.154 46.4835C117.959 45.91 117.599 45.2476 117.353 45.0116C116.812 44.4915 116.807 44.4679 118.087 48.5607C118.6 50.2016 119.192 52.1293 119.404 52.8444C119.732 53.9516 119.985 54.2045 121.115 54.55L122.441 54.9554L121.322 54.9902C120.241 55.0237 120.21 55.0615 120.419 56.1024C120.538 56.6948 120.725 57.7394 120.834 58.4229C121.032 59.6565 121.046 59.6658 122.566 59.6399C124.132 59.613 124.125 59.5448 122.524 59.1914C121.99 59.0737 121.612 58.769 121.612 58.4571C121.612 57.9804 122.116 57.9492 126.336 58.1644C128.934 58.297 130.971 58.3145 130.863 58.2035C130.755 58.0921 128.674 57.8713 126.24 57.7129C122.25 57.4526 121.756 57.3515 121.216 56.6852C120.228 55.4653 120.455 55.2597 122.506 55.516C123.544 55.6459 125.223 55.8077 126.235 55.876C127.248 55.9443 128.677 56.0945 129.412 56.2095C130.591 56.3941 130.754 56.3398 130.798 55.75C130.855 54.9949 130.355 54.8891 124.314 54.3756C120.406 54.0434 120.218 53.9102 119.242 50.7897L118.695 49.0407L120.108 47.1432C120.885 46.0996 122.062 44.5743 122.724 43.7539C124.131 42.0082 124.16 41.8819 123.226 41.5852C122.718 41.4241 122.637 41.2881 122.938 41.1015C123.456 40.7816 122.698 40.6178 117.634 39.9555C105.058 38.3112 95.1713 37.7599 76.196 37.6452C66.6238 37.5872 57.6731 37.5935 56.3057 37.6588ZM1.38867 38.7203C1.19474 38.845 0.954397 39.3946 0.854946 39.9416C0.00563153 44.6015 -0.111058 45.8457 0.0778995 48.2292C0.286416 50.86 0.914948 53.7799 1.37044 54.2354C1.50072 54.366 1.60746 54.725 1.60746 55.0336C1.60746 55.6582 3.62002 59.7685 4.01087 59.9422C4.14745 60.0032 4.2595 60.2641 4.2595 60.5224C4.2595 60.7809 4.38348 60.9921 4.53498 60.9921C4.68647 60.9921 5.02229 61.4025 5.28086 61.9037C5.53943 62.405 6.12587 63.1883 6.584 63.6441C7.04214 64.1 8.3801 65.6292 9.5576 67.0421C10.7348 68.4549 11.7976 69.6112 11.9192 69.6112C12.0409 69.6112 12.2076 68.082 12.2899 66.2133C12.4205 63.2414 12.6479 62.1918 14.1019 57.8428C16.5175 50.6173 17.8512 45.243 17.8512 42.7342C17.8512 42.0188 17.7395 41.4357 17.6025 41.4386C17.4656 41.4413 16.981 42.2097 16.5252 43.1459C15.7935 44.6486 12.7255 49.658 11.9908 50.5497C11.7382 50.8564 10.5236 53.3098 9.85761 54.8593C9.70081 55.2239 9.53307 56.5569 9.48533 57.8213C9.40179 60.0118 9.3703 60.0927 8.81768 59.5381C8.49844 59.2179 8.23755 58.5913 8.23755 58.1461C8.23755 57.7009 8.10594 57.0774 7.94483 56.7608C7.78372 56.4442 7.50492 55.8123 7.32525 55.3565C7.1459 54.9007 6.53163 53.5744 5.96078 52.4095C5.38959 51.2442 4.9225 50.0879 4.9225 49.8403C4.9225 49.5923 4.77333 49.3894 4.591 49.3894C4.40867 49.3894 4.2595 49.0911 4.2595 48.7264C4.2595 48.3618 4.11032 48.0634 3.92799 48.0634C3.74566 48.0634 3.59649 47.7631 3.59649 47.3958C3.59649 47.0288 3.46554 46.4692 3.30576 46.1526C2.61855 44.7928 2.27047 43.065 2.27047 41.015C2.27047 38.8314 2.06162 38.2877 1.38867 38.7203ZM149.014 38.6736C148.894 38.7936 148.795 39.7546 148.795 40.8095C148.795 42.8684 148.139 45.8258 147.315 47.477C147.035 48.0379 146.806 48.6976 146.806 48.9432C146.806 49.1886 146.657 49.3894 146.475 49.3894C146.293 49.3894 146.143 49.6878 146.143 50.0525C146.143 50.4171 145.994 50.7155 145.812 50.7155C145.63 50.7155 145.48 51.0138 145.48 51.3785C145.48 51.7431 145.331 52.0415 145.149 52.0415C144.967 52.0415 144.817 52.251 144.817 52.5072C144.817 52.909 144.36 53.9645 143.118 56.4293C142.959 56.7459 142.824 57.4172 142.818 57.921C142.808 58.7932 142.168 59.9976 141.714 59.9976C141.598 59.9976 141.502 58.9623 141.502 57.6966C141.502 56.4309 141.353 55.3035 141.171 55.1908C140.988 55.0781 140.839 54.6219 140.839 54.1767C140.839 53.7315 140.69 53.3675 140.508 53.3675C140.325 53.3675 140.176 53.0817 140.176 52.732C140.176 52.3826 140.065 52.0471 139.928 51.9861C139.791 51.9255 139.317 51.2044 138.875 50.384C138.433 49.5635 137.98 48.8176 137.868 48.7264C137.497 48.4238 134.302 42.9109 134.065 42.1656C133.938 41.7629 133.646 41.4333 133.418 41.4333C133.099 41.4333 133.067 41.9671 133.278 43.7383C133.589 46.3389 135.54 54.3511 136.279 56.0583C137.065 57.876 138.187 61.5215 138.187 62.2591C138.187 62.6347 138.336 63.0342 138.519 63.1469C138.702 63.2599 138.85 64.7527 138.85 66.4815C138.85 68.203 138.939 69.6112 139.049 69.6112C139.313 69.6112 141.049 67.7415 142.127 66.2962C142.603 65.658 143.371 64.763 143.834 64.3071C144.298 63.8513 145.037 62.9563 145.477 62.3181C145.917 61.68 146.359 61.0833 146.459 60.9921C147.057 60.4468 149.215 56.0434 149.93 53.9115C151.158 50.2454 151.338 45.5115 150.423 40.8787C150.096 39.2182 149.461 38.226 149.014 38.6736ZM53.6888 41.7983C47.3508 42.1806 47.2258 42.4368 53.4879 42.2101C56.4051 42.1046 63.4165 41.917 69.0686 41.7934L79.3452 41.5686L68.7371 41.5497C62.9026 41.5391 56.131 41.6511 53.6888 41.7983ZM80.9199 41.6707C81.4211 41.7466 82.2419 41.7466 82.7432 41.6707C83.2444 41.5948 82.8343 41.5328 81.8315 41.5328C80.8287 41.5328 80.4187 41.5948 80.9199 41.6707ZM93.1856 41.9933C93.5045 42.0768 94.0269 42.0768 94.3458 41.9933C94.6647 41.91 94.4038 41.8418 93.7657 41.8418C93.1275 41.8418 92.8666 41.91 93.1856 41.9933ZM40.1936 42.8147C40.0998 42.9666 40.5539 43.0909 41.2027 43.0909C41.8514 43.0909 42.3825 43.0332 42.3825 42.9626C42.3825 42.6904 40.355 42.5535 40.1936 42.8147ZM45.6147 42.6619C46.0251 42.7408 46.696 42.7408 47.1064 42.6619C47.5168 42.5827 47.181 42.518 46.3606 42.518C45.5401 42.518 45.2043 42.5827 45.6147 42.6619ZM103.711 42.7802C103.711 42.951 104.046 43.0929 104.457 43.0955C104.867 43.0978 105.576 43.1926 106.031 43.3063C106.586 43.4446 106.751 43.4025 106.529 43.179C106.079 42.7265 103.711 42.3914 103.711 42.7802ZM36.4154 43.0909C35.7282 43.311 35.8416 43.361 37.0784 43.3842C37.8989 43.3995 38.794 43.2676 39.0675 43.0909C39.6884 42.6894 37.6685 42.6894 36.4154 43.0909ZM29.6441 43.4224C29.84 43.6959 30.6913 44.8157 31.5357 45.9106L33.0712 47.9017L31.9991 51.29C31.4097 53.1537 30.7464 54.8596 30.5246 55.0814C30.0492 55.5568 29.238 55.6685 24.0792 55.9682C20.5917 56.171 18.9856 56.6013 19.5627 57.1785C19.6592 57.2753 21.9615 57.2136 24.6788 57.0416C29.8215 56.7164 30.5912 56.848 29.9097 57.935C29.5185 58.5582 27.2344 58.8917 22.8237 58.9693C21.4563 58.9935 20.1137 59.1672 19.8402 59.3551C19.3267 59.7082 27.9926 59.4466 28.5793 59.0913C28.8578 58.9225 29.4386 59.5835 29.4489 60.0805C29.4515 60.217 29.1929 60.341 28.8737 60.3553C28.5273 60.3709 28.4603 60.4488 28.7079 60.5485C29.2277 60.7584 29.2423 62.0234 28.7374 63.1313C28.2757 64.1454 27.1333 64.2806 27.1333 63.3213C27.1333 62.9394 26.7534 62.4756 26.2217 62.2077C25.4476 61.8182 25.1459 61.8179 24.2224 62.2044C23.6243 62.455 22.9941 63.0305 22.8218 63.4834C22.5834 64.1102 22.2688 64.3071 21.506 64.3071C20.7127 64.3071 20.5032 64.4507 20.5032 64.9937C20.5032 65.6199 20.5496 65.6342 21.0273 65.1565C21.7543 64.4295 22.0742 64.7447 21.9161 66.033C21.8137 66.8687 21.8644 67.0082 22.1322 66.6277C22.3245 66.3542 22.4843 65.8808 22.4873 65.5758C22.5005 64.1248 25.6273 62.0055 26.4869 62.8651C26.6423 63.0206 26.6191 63.7429 26.4352 64.4732C25.3896 68.6223 24.9669 71.0493 25.4241 70.2742C25.5855 70.0007 25.8089 69.0715 25.921 68.2096C26.0327 67.3474 26.2658 66.3777 26.4388 66.0548C26.6118 65.7316 26.8343 65.2065 26.9331 64.8873C27.0319 64.568 27.3571 64.3071 27.6561 64.3071C28.0844 64.3071 28.1504 64.5001 27.9667 65.2188C27.8387 65.72 27.5255 67.1219 27.2705 68.3339C27.0156 69.5459 26.7076 70.797 26.586 71.1139C26.4332 71.5121 26.5028 71.6447 26.8104 71.5422C27.0653 71.457 27.5139 70.1947 27.8573 68.5961C28.1875 67.0576 28.7421 64.8293 29.0895 63.6441C29.721 61.4904 30.7825 57.0691 30.7808 56.5997C30.7802 56.4631 30.444 56.3338 30.034 56.3126C29.358 56.2778 29.3504 56.2589 29.9511 56.111C31.116 55.8249 31.4293 55.332 32.3031 52.4134C33.1972 49.4262 34.4599 45.6802 34.6558 45.4329C34.7188 45.3534 35.4014 45.1856 36.1731 45.06L37.5757 44.8313L36.3601 44.7898C35.6918 44.767 35.0864 44.5734 35.0148 44.3592C34.9435 44.145 34.5573 44.6672 34.1569 45.5195C33.7561 46.3718 33.2927 47.0689 33.1269 47.0689C32.9611 47.0689 32.2922 46.3429 31.6408 45.4552C30.9894 44.5677 30.1934 43.6355 29.8722 43.3833C29.3643 42.9848 29.3345 42.9898 29.6441 43.4224ZM55.0887 43.4048C51.6205 43.6395 51.1349 44.0854 54.3475 44.0854C57.3383 44.0854 57.6871 44.4222 57.2783 46.9148C56.8245 49.6802 57.0005 50.6992 57.5051 48.2292C57.7656 46.9529 57.8976 45.4422 57.7978 44.8717C57.6483 44.0141 57.7381 43.8033 58.3179 43.6518C58.7035 43.551 63.1446 43.5324 68.1875 43.6103C74.4483 43.7075 77.041 43.6491 76.3617 43.4273C75.3324 43.0909 59.9658 43.0746 55.0887 43.4048ZM89.4561 43.4224C89.0832 43.6634 89.2489 43.7436 90.1191 43.7436C90.9893 43.7436 91.1551 43.6634 90.7821 43.4224C90.5087 43.2457 90.2103 43.1011 90.1191 43.1011C90.028 43.1011 89.7296 43.2457 89.4561 43.4224ZM110.672 43.4224C111.326 43.8447 112.661 43.8447 112.661 43.4224C112.661 43.24 112.102 43.0932 111.418 43.0958C110.494 43.0998 110.302 43.1834 110.672 43.4224ZM83.2268 43.7953C85.5321 43.9611 87.4167 43.9505 87.8679 43.7691C88.3801 43.5636 87.1154 43.4728 83.9863 43.4907L79.3452 43.5165L83.2268 43.7953ZM113.594 43.6488C113.833 43.7446 114.119 43.7327 114.229 43.6226C114.339 43.5125 114.144 43.4343 113.794 43.4486C113.408 43.4645 113.329 43.543 113.594 43.6488ZM43.2113 44.1036C38.2205 44.3788 38.5135 44.3386 38.9183 44.6914C39.2773 45.004 47.9776 44.5697 50.2972 44.1232L51.8304 43.8281L49.6756 43.847C48.4905 43.8576 45.5815 43.973 43.2113 44.1036ZM94.258 44.758C93.9722 45.3106 93.8108 45.8795 93.8993 46.0224C94.0584 46.2799 94.315 48.5497 95.273 58.1743C96.2636 68.1234 96.5096 70.7841 96.4993 71.4345C96.4873 72.181 97.0224 82.5495 97.2432 85.8549C97.3668 87.7054 97.757 99.8341 97.7471 101.519C97.7454 101.837 97.9002 102.099 98.0915 102.099C98.4213 102.099 98.3126 92.2089 97.9201 86.5179C97.8382 85.3328 97.6798 82.6476 97.5677 80.5509C97.024 70.3767 95.7425 55.815 94.6061 46.9032C94.3962 45.2566 94.674 45.7737 95.0619 47.7512L95.3506 49.2237L95.3848 47.8977C95.4037 47.1684 95.2107 46.1719 94.9558 45.6836C94.3936 44.6062 94.546 44.4169 95.9758 44.4169C96.5835 44.4169 97.0807 44.2677 97.0807 44.0854C97.0807 43.9031 96.5626 43.7539 95.9291 43.7539C94.982 43.7539 94.6849 43.9326 94.258 44.758ZM97.7713 44.2153C97.932 44.3662 109.441 45.3146 113.822 45.5377C115.622 45.6295 116.525 45.5788 116.098 45.4097C115.709 45.2559 113.546 45.0418 111.291 44.9347C109.036 44.8273 105.924 44.5932 104.374 44.4149C101.564 44.0913 97.5094 43.9687 97.7713 44.2153ZM63.1629 44.6493C62.9702 44.9606 62.7495 46.7301 62.4674 50.2182C62.3623 51.5164 62.4077 51.9768 62.5976 51.5442C62.7581 51.1796 62.8996 50.4708 62.9126 49.9696C62.9252 49.4683 63.085 49.0579 63.2673 49.0579C63.682 49.0579 63.6843 49.596 63.2782 51.6109C62.4259 55.8415 61.0707 77.9005 60.7571 92.6508C60.6133 99.4111 60.6656 101.054 61.0416 101.564C61.441 102.107 61.5325 101.096 61.7334 93.9397C62.0096 84.0883 62.1206 81.1867 62.4524 75.1324L62.7041 70.5427L63.6459 70.731C64.3128 70.8646 65.1423 70.6319 66.4875 69.9338C67.5324 69.3918 68.7789 68.9482 69.2572 68.9482C69.7356 68.9482 70.6078 68.7082 71.1955 68.4151C72.9323 67.5486 78.6179 67.9083 81.9973 69.098C83.4559 69.6119 84.9437 70.2358 85.3034 70.4847C85.6627 70.7337 86.1809 70.9372 86.4544 70.9372C87.4727 70.9372 85.5023 69.4862 83.4168 68.7009C78.7949 66.9602 74.3763 66.5213 70.8919 67.4564C68.694 68.0462 67.2642 68.1102 68.5713 67.5599C69.0272 67.3683 69.6985 67.0851 70.0631 66.931C70.4278 66.7772 71.1737 66.6084 71.7206 66.5564C72.378 66.4941 72.8262 66.209 73.0423 65.716C73.413 64.8717 75.0804 64.6065 74.7592 65.4432C74.6594 65.7034 74.791 66.093 75.0516 66.3094C75.4249 66.6194 75.5671 66.5929 75.7242 66.1838C75.8336 65.8984 75.8267 65.5085 75.7086 65.3176C75.5774 65.1054 75.8744 64.9702 76.4721 64.9702C77.2389 64.9702 77.4951 65.1492 77.6582 65.7989C77.8386 66.5179 78.0517 66.6287 79.2687 66.635C80.0401 66.6389 81.3217 66.9373 82.1163 67.298C82.9112 67.6587 83.7344 67.9537 83.9455 67.9537C84.1567 67.9537 84.889 68.3339 85.5729 68.7984C87.061 69.8098 87.6014 69.6023 87.3246 68.1261C87.2132 67.5333 87.2205 66.7918 87.3408 66.4785C87.7678 65.366 88.1391 66.7304 88.085 69.2144C88.0562 70.5457 88.1769 71.7796 88.3539 71.9566C88.5611 72.1638 88.6343 71.2469 88.5601 69.3699C88.4073 65.5029 88.035 61.969 87.8782 62.8983L87.7525 63.6441H75.5097C67.5692 63.6441 63.2673 63.5278 63.2673 63.3126C63.2673 63.1303 63.6989 62.9811 64.2263 62.9811C65.3452 62.9811 65.5785 62.5435 65.611 60.3848C65.6239 59.5338 65.7691 58.539 65.9336 58.1743C66.1275 57.7444 66.1802 58.5015 66.0834 60.3291C65.9962 61.976 66.0522 62.9404 66.2177 62.6496C66.3738 62.3761 66.579 59.9147 66.6738 57.1798C66.7686 54.4449 66.7769 52.6176 66.6924 53.1189C66.4812 54.3686 65.9193 54.2708 65.9193 52.9843C65.9193 51.8436 67.1545 49.9702 68.3168 49.3483C68.7089 49.1385 70.2322 48.5438 71.7014 48.027C73.5671 47.3709 74.3445 46.94 74.2792 46.5982C74.1522 45.9325 75.4143 45.3096 76.3925 45.5553C76.9047 45.6839 77.1905 45.9945 77.1905 46.4225C77.1905 46.7895 77.4514 47.1796 77.7706 47.29C81.1725 48.4636 83.4274 49.5724 84.221 50.4612C85.2377 51.5999 85.4864 52.8142 84.6364 52.4877C84.1895 52.3163 84.1504 52.7207 84.3221 55.7305C84.4299 57.6217 84.5585 60.0639 84.6079 61.1579L84.6977 63.1469H85.9995C87.1058 63.1469 87.2898 63.0474 87.2248 62.4839C87.1827 62.1192 87.0756 60.1053 86.9868 58.0086C86.6804 50.7672 86.4461 46.9012 86.2803 46.3509C86.1888 46.0472 86.2694 45.7028 86.459 45.5854C86.6665 45.4575 86.8061 45.7439 86.8091 46.3035C86.8121 46.8156 86.9589 47.4584 87.1356 47.7319C87.3716 48.0972 87.4581 47.8645 87.4621 46.8558C87.4658 45.8553 87.311 45.4223 86.8923 45.2619C86.576 45.1406 81.4967 44.9794 75.6045 44.9039C69.7124 44.8286 64.76 44.6857 64.5996 44.5866C64.4388 44.4872 64.2041 44.5737 64.0775 44.7782C63.9104 45.0487 63.7795 45.0404 63.5988 44.7484C63.4622 44.5273 63.266 44.4825 63.1629 44.6493ZM60.2837 45.0799L58.4605 45.3033L60.5519 45.3574C61.8743 45.3915 62.5681 45.2894 62.4385 45.0799C62.3258 44.8976 62.2051 44.7726 62.1703 44.8024C62.1355 44.8323 61.2865 44.9569 60.2837 45.0799ZM53.9576 45.2102C53.8817 45.2818 51.5072 45.4353 48.6811 45.5516C41.6091 45.8427 41.2004 45.9256 40.6126 47.1912C40.0016 48.5067 39.5773 51.047 39.9685 51.047C40.1313 51.047 40.7701 50.674 41.388 50.2182C42.0059 49.7624 42.7104 49.3894 42.9537 49.3894C43.197 49.3894 44.2661 48.9502 45.3292 48.4135L47.2629 47.4375L50.0439 48.4559C52.797 49.4644 54.1085 50.248 53.8211 50.7131C53.7392 50.8454 53.8008 51.6085 53.9583 52.4091L54.2441 53.8648L54.2802 52.6412C54.3004 51.9682 54.4529 51.3334 54.6193 51.2306C54.7857 51.1275 55.0231 50.4101 55.1464 49.6364C55.5439 47.1445 56.0448 45.4114 56.3673 45.4114C56.5404 45.4114 56.5941 45.6879 56.4867 46.026C56.1701 47.0235 55.3496 51.8598 54.6226 57.014C54.25 59.6578 53.8022 62.4633 53.6278 63.2487C52.8677 66.6734 51.3799 81.5513 51.119 88.3412C50.6327 100.995 50.6174 102.43 50.9711 102.43C51.2052 102.43 51.3331 101.404 51.3335 99.5295C51.3335 95.2425 51.9245 85.3504 52.6751 77.0701C53.3616 69.4942 55.6072 52.6007 56.4645 48.5607C57.2031 45.0812 57.2027 45.0799 55.5323 45.0799C54.742 45.0799 54.0336 45.1386 53.9576 45.2102ZM89.1508 45.8258C89.1651 46.2362 89.2523 46.3854 89.3441 46.1573C89.4362 45.9295 89.9839 45.7406 90.561 45.7379C91.361 45.7339 91.4926 45.656 91.1137 45.4114C90.8402 45.2347 90.2809 45.0878 89.8705 45.0849C89.3089 45.0812 89.1309 45.2642 89.1508 45.8258ZM58.4187 46.2292C58.3163 46.4967 58.296 46.9068 58.3743 47.1409C58.4525 47.3749 58.5951 47.1558 58.6912 46.6545C58.8788 45.6756 58.724 45.4339 58.4187 46.2292ZM75.2588 46.2929C75.3984 47.0185 76.3617 47.121 76.3617 46.4106C76.3617 46.1394 76.0872 45.8649 75.7514 45.8003C75.3085 45.7151 75.1736 45.85 75.2588 46.2929ZM96.1068 46.8203C96.118 47.4127 96.2357 48.979 96.3683 50.3011C96.5006 51.6231 96.5613 52.7045 96.5026 52.7045C96.4442 52.7045 96.2616 52.369 96.0965 51.9586C95.8041 51.2313 95.7961 51.2346 95.7756 52.0889C95.7643 52.5709 95.95 53.04 96.189 53.1318C96.4791 53.2432 96.7588 54.6169 97.0333 57.2786C97.5694 62.4806 97.7689 63.6441 98.125 63.6441C98.2867 63.6441 98.3428 63.3087 98.2493 62.8983C97.9877 61.7519 97.0807 53.4454 97.0807 52.1983C97.0807 51.3669 97.3072 50.9339 97.9924 50.4556C99.2189 49.5993 102.909 48.3949 104.307 48.3949C105.554 48.3949 110.749 50.6923 111.858 51.7338C112.276 52.126 112.78 52.3067 113.107 52.181C113.475 52.0402 113.656 52.1429 113.656 52.493C113.656 52.8102 113.469 52.9435 113.181 52.8328C112.792 52.6839 112.817 53.0045 113.317 54.5835C113.653 55.6469 114.234 58.2002 114.608 60.2572C114.982 62.3145 115.484 64.1934 115.723 64.4325C116.327 65.0361 117.594 73.0963 118.336 81.0481C118.735 85.3209 119.294 87.3557 119.289 84.5123C119.286 83.0057 118.616 76.9295 117.992 72.7605C117.801 71.4842 117.478 69.1315 117.273 67.532C116.995 65.359 116.754 64.5458 116.32 64.3134C115.949 64.1149 115.662 63.428 115.526 62.4146C115.408 61.5411 114.987 59.3601 114.589 57.5683C114.068 55.219 113.971 54.2457 114.24 54.0792C114.509 53.9135 114.52 53.4756 114.281 52.5305C114.097 51.8058 113.709 50.2059 113.419 48.9751L112.891 46.7374L111.533 46.7334C110.786 46.7311 107.938 46.5103 105.203 46.2428C102.468 45.9753 99.2978 45.7535 98.1581 45.7499L96.0862 45.7429L96.1068 46.8203ZM39.1447 48.255C38.9349 48.7878 38.6852 49.8204 38.5904 50.5497C38.4409 51.7004 38.5056 51.6152 39.0804 49.9053C39.7666 47.8635 39.818 46.5471 39.1447 48.255ZM64.6831 51.4212C64.3251 51.7793 64.2572 50.5902 64.5389 48.8922L64.759 47.5662L64.8608 49.354C64.9168 50.3372 64.837 51.2674 64.6831 51.4212ZM72.3836 49.1113C68.0446 50.6939 67.7655 51.231 67.3667 58.7544L67.1429 62.9811H68.9741H70.805L71.0106 61.738C71.1236 61.0544 71.2177 60.0099 71.2197 59.4175C71.2234 58.345 71.2158 58.3401 69.5659 58.3401C68.3476 58.3401 67.9083 58.2141 67.9083 57.8647C67.9083 57.6008 68.3138 57.3283 68.82 57.2514L69.7316 57.1135L68.82 57.0638C68.2667 57.0336 67.9083 56.8248 67.9083 56.5324C67.9083 56.1492 68.2475 56.0908 69.5659 56.2469C71.1859 56.4389 71.2234 56.4236 71.2234 55.5684C71.2234 55.0615 71.4087 54.6935 71.664 54.6935C71.9079 54.6935 72.0929 55.0267 72.0783 55.4394C72.0551 56.0984 72.2355 56.1969 73.6268 56.2864L75.2014 56.3875V55.0691V53.7504L73.3125 53.8555C72.2736 53.9132 71.1173 53.8472 70.7434 53.7086C70.1443 53.4872 70.1917 53.4285 71.1405 53.22C72.1579 52.9965 72.2179 52.9017 72.2179 51.518C72.2179 50.7012 72.3744 50.0525 72.5713 50.0525C72.7891 50.0525 72.8736 50.6256 72.7914 51.5442C72.7181 52.3647 72.7828 53.036 72.9353 53.036C73.0878 53.036 73.2124 52.306 73.2124 51.4139C73.2124 50.2407 73.3576 49.7362 73.7369 49.5907C74.6303 49.2479 74.8696 49.3626 74.8749 50.1353C74.8789 50.7015 74.9515 50.7685 75.1759 50.4141C75.3383 50.1572 75.3947 49.7468 75.3009 49.5025C75.1802 49.1876 75.4418 49.0579 76.1993 49.0579H77.2677L77.1318 51.1898C77.0572 52.3624 77.1145 53.2488 77.2591 53.1593C77.4036 53.0701 77.522 52.2599 77.522 51.3589C77.522 50.4579 77.6711 49.721 77.8535 49.721C78.0358 49.721 78.185 50.5414 78.185 51.5442C78.185 52.547 78.3123 53.3675 78.4677 53.3675C78.6232 53.3675 78.6789 52.6216 78.5914 51.71C78.4853 50.6071 78.5573 50.0525 78.8059 50.0525C79.0277 50.0525 79.1795 50.6584 79.1795 51.5442C79.1795 52.3647 79.3244 53.036 79.5014 53.036C79.688 53.036 79.743 52.4635 79.632 51.6709C79.4831 50.6071 79.5402 50.3415 79.8906 50.4692C80.1375 50.559 80.3 50.808 80.2512 51.0224C80.2025 51.2369 80.0686 52.5235 79.9539 53.8817L79.7454 56.351H81.4072H83.0694L83.0306 53.8183C82.9954 51.5257 82.9132 51.227 82.163 50.6664C81.2086 49.9533 76.2739 48.0469 75.5329 48.1049C75.2595 48.1264 73.8423 48.5792 72.3836 49.1113ZM45.0345 49.1985C41.8564 50.497 40.4707 51.3334 39.6967 52.4204L38.9445 53.4769L39.7517 53.2611C40.1959 53.1424 40.7283 53.043 40.9348 53.0406C41.1417 53.038 41.4158 52.7005 41.5445 52.2901L41.7785 51.5442L42.0474 52.373L42.3165 53.2017L42.3494 52.2901C42.3686 51.7584 42.5705 51.3785 42.8337 51.3785C43.1304 51.3785 43.2491 51.6908 43.1804 52.2901C43.1065 52.9329 43.1864 52.8351 43.4506 51.9586C43.7685 50.9041 43.9674 50.7155 44.7614 50.7155C45.2762 50.7155 45.6975 50.5845 45.6975 50.4241C45.6975 49.8134 47.5288 49.346 48.4901 49.7113C49.3348 50.0326 49.3965 50.1672 49.1929 51.2508C49.0421 52.0547 49.0842 52.368 49.3229 52.2202C49.5168 52.1005 49.6756 51.6384 49.6756 51.1932C49.6756 50.748 49.8065 50.384 49.9667 50.384C50.811 50.384 52.7271 51.4955 52.9843 52.135L53.28 52.8702L53.3013 52.1539C53.3301 51.1693 51.7405 49.9175 49.7969 49.3944C48.9098 49.1557 48.0419 48.8329 47.8689 48.6777C47.4346 48.2879 47.124 48.3449 45.0345 49.1985ZM59.2063 48.7921C58.7051 48.9688 58.2947 49.2499 58.2947 49.417C58.2947 49.7491 58.307 49.7528 59.8614 49.8837C60.968 49.9772 61.9479 49.3059 61.2945 48.9021C61.1032 48.7841 60.9467 48.874 60.9467 49.1017C60.9467 49.3755 60.8062 49.3391 60.5324 48.9936C60.2095 48.5865 59.9168 48.5421 59.2063 48.7921ZM91.2615 49.0868C91.0079 49.4975 91.7064 50.384 92.2835 50.384C92.8355 50.384 92.5308 49.164 91.9202 48.9297C91.6706 48.8338 91.3742 48.9045 91.2615 49.0868ZM102.385 49.6828C100.191 50.3846 99.0419 50.9757 98.5002 51.6811C97.9045 52.4572 97.9897 52.8938 98.7366 52.8938C99.1003 52.8938 99.3612 52.7118 99.3167 52.4893C99.272 52.2669 99.3847 52.0753 99.567 52.0634C99.7493 52.0514 99.8985 52.1781 99.8985 52.3455C99.8985 53.1719 100.4 53.0145 100.426 52.1797L100.455 51.2127L100.77 52.302C100.942 52.9011 101.222 53.3058 101.39 53.2017C101.576 53.087 101.567 52.6727 101.368 52.1496C100.979 51.1259 101.017 51.0705 102.163 50.9757C102.65 50.9353 103.048 50.7698 103.048 50.6077C103.048 50.4456 103.262 50.3952 103.524 50.4957C103.785 50.5961 104.084 50.5 104.187 50.2825C104.332 49.9759 104.416 49.9759 104.561 50.2825C104.664 50.5 104.962 50.5961 105.224 50.4957C105.531 50.3777 105.702 50.5308 105.705 50.9286C105.709 51.4488 105.761 51.467 106.036 51.047C106.244 50.731 106.453 50.672 106.611 50.8855C106.748 51.0702 107.308 51.3715 107.855 51.5552C108.498 51.7713 108.887 52.1502 108.955 52.6282C109.013 53.035 109.195 53.3675 109.359 53.3675C109.523 53.3675 109.571 53.1437 109.466 52.8702C109.361 52.5968 109.441 52.373 109.642 52.373C109.844 52.373 110.012 52.7085 110.014 53.1189C110.018 53.7043 110.086 53.7607 110.326 53.3808C110.588 52.9664 110.731 52.9863 111.317 53.5167C111.694 53.8578 112.113 54.0235 112.249 53.885C112.68 53.4447 109.818 51.2459 107.636 50.3402C104.57 49.0672 104.382 49.0437 102.385 49.6828ZM34.5895 50.2683C34.0853 50.7725 34.0833 50.8484 34.5653 51.1182C35.1882 51.4667 35.7524 51.1968 35.7524 50.5497C35.7524 49.8091 35.1855 49.6722 34.5895 50.2683ZM75.8644 50.2182C75.8644 50.4917 76.0136 50.7155 76.196 50.7155C76.3783 50.7155 76.5275 50.4917 76.5275 50.2182C76.5275 49.9447 76.3783 49.721 76.196 49.721C76.0136 49.721 75.8644 49.9447 75.8644 50.2182ZM73.9702 51.5442C73.9729 52.4559 74.0372 52.7894 74.1134 52.2855C74.1894 51.7816 74.1874 51.0357 74.1088 50.6279C74.0302 50.2202 73.9679 50.6326 73.9702 51.5442ZM46.212 50.7983C46.1418 51.0264 45.976 51.6603 45.8434 52.2072L45.6024 53.2017L45.3515 52.373C45.137 51.6639 45.0902 51.6397 45.0282 52.2072C44.9885 52.5719 44.9775 53.0453 45.004 53.2594C45.073 53.819 44.2177 54.0096 41.3091 54.0822C38.3812 54.1555 38.6786 53.7975 37.9092 58.1743C37.6208 59.8153 37.2541 61.8291 37.0947 62.6496C36.9349 63.4701 36.8537 64.1911 36.9137 64.2518C36.974 64.3128 37.3141 64.0714 37.6695 63.7161C38.3259 63.0597 38.9461 60.2741 38.5709 59.6671C38.4578 59.4841 38.5072 59.3346 38.6806 59.3346C38.8536 59.3346 39.0936 58.9441 39.2133 58.4667C39.4404 57.562 39.8846 57.6522 39.8919 58.6046C39.8956 59.0488 40.1823 59.1353 41.388 59.0571C42.2797 58.9988 43.0465 58.7428 43.2941 58.421C43.81 57.75 43.8017 57.9771 43.2113 60.6606C42.6434 63.2427 42.6182 63.6441 43.0253 63.6441C43.1963 63.6441 43.4241 62.9357 43.5308 62.0695C43.7486 60.3072 44.3719 57.0681 44.6148 56.4339C44.7024 56.2062 44.6198 56.0195 44.4312 56.0195C44.2429 56.0195 44.0205 56.2804 43.9369 56.5997C43.808 57.0929 43.7798 57.0986 43.747 56.6378C43.7168 56.2118 43.3452 56.0961 42.0099 56.0961C40.5562 56.0961 40.2847 56.1979 40.1269 56.8012C39.9605 57.4377 39.9174 57.4125 39.6847 56.5426C39.5432 56.0126 39.5041 55.4543 39.5985 55.3022C39.6927 55.1497 40.8165 55.025 42.0961 55.025C44.2025 55.025 44.5104 54.9372 45.3515 54.0961C45.924 53.5236 46.3702 52.6339 46.515 51.7756C46.7299 50.5043 46.5157 49.8131 46.212 50.7983ZM47.2622 50.8255C47.131 51.1593 47.0282 51.6815 47.0335 51.9858C47.0428 52.4791 47.0809 52.4751 47.3876 51.9483C47.5765 51.6235 47.6793 51.1013 47.6163 50.7881C47.5112 50.2676 47.4804 50.2709 47.2622 50.8255ZM48.2568 50.8255C48.1255 51.1593 48.0227 51.6815 48.028 51.9858C48.0373 52.4791 48.0754 52.4751 48.3821 51.9483C48.571 51.6235 48.6738 51.1013 48.6108 50.7881C48.5057 50.2676 48.4749 50.2709 48.2568 50.8255ZM71.7077 51.4514C71.4912 52.681 71.2423 53.0652 71.1819 52.2626C71.1591 51.9586 71.117 51.5237 71.0881 51.2956C71.0444 50.9518 71.476 50.4082 71.8082 50.3889C71.8566 50.3863 71.8111 50.8643 71.7077 51.4514ZM56.7018 51.5442C56.7085 52.0912 56.7827 52.2749 56.8669 51.9523C56.9511 51.6298 56.9455 51.1822 56.8547 50.9578C56.7638 50.7334 56.6952 50.9972 56.7018 51.5442ZM70.4195 52.6243C70.0197 53.0244 69.8291 52.3654 70.0877 51.4769L70.3578 50.5497L70.4841 51.4915C70.5534 52.0097 70.5246 52.5195 70.4195 52.6243ZM81.495 51.6467C81.4921 51.955 81.3452 52.431 81.1685 52.7045C80.9298 53.0735 80.846 52.8765 80.842 51.939C80.839 51.1806 80.9693 50.7582 81.1685 50.8812C81.3508 50.9939 81.4977 51.3384 81.495 51.6467ZM115.976 51.3079C115.976 51.7285 116.265 51.9225 116.971 51.9762C117.731 52.0342 117.964 51.9139 117.961 51.4667C117.956 50.9674 117.908 50.9545 117.634 51.3785C117.36 51.8035 117.312 51.7915 117.307 51.2956C117.304 50.9382 117.048 50.7155 116.639 50.7155C116.224 50.7155 115.976 50.9366 115.976 51.3079ZM74.7993 52.0415C74.7092 52.6561 74.7993 53.036 75.0357 53.036C75.272 53.036 75.3622 52.6561 75.272 52.0415C75.1918 51.4945 75.0854 51.047 75.0357 51.047C74.986 51.047 74.8795 51.4945 74.7993 52.0415ZM75.8644 52.0415C75.8644 52.5885 75.9961 53.036 76.1572 53.036C76.3183 53.036 76.4316 52.5885 76.4094 52.0415C76.3869 51.4945 76.2553 51.047 76.1167 51.047C75.9778 51.047 75.8644 51.4945 75.8644 52.0415ZM50.0121 52.2901C50.0161 53.0005 50.0883 53.092 50.3386 52.7045C50.7576 52.0557 50.7576 51.3785 50.3386 51.3785C50.1563 51.3785 50.0094 51.7889 50.0121 52.2901ZM51.0016 52.061C51.0016 52.4363 51.1508 52.6515 51.3331 52.5387C51.5154 52.426 51.6646 52.1191 51.6646 51.8562C51.6646 51.5933 51.5154 51.3785 51.3331 51.3785C51.1508 51.3785 51.0016 51.6858 51.0016 52.061ZM82.4945 52.0219C82.4945 52.376 82.3454 52.7575 82.163 52.8702C81.9751 52.9866 81.8315 52.7078 81.8315 52.2268C81.8315 51.7604 81.9807 51.3785 82.163 51.3785C82.3454 51.3785 82.4945 51.6679 82.4945 52.0219ZM43.9396 52.1718C43.804 52.5169 43.7712 52.8775 43.8663 52.973C44.169 53.2753 44.4348 52.7797 44.3082 52.1502C44.1922 51.5734 44.1743 51.5744 43.9396 52.1718ZM69.4346 52.6147C69.0978 52.9518 68.8196 52.4443 69.0961 51.9971C69.305 51.6589 69.3832 51.6589 69.4953 51.9957C69.5722 52.2261 69.5446 52.5046 69.4346 52.6147ZM106.031 52.6491C106.031 53.2266 106.184 53.699 106.369 53.699C106.57 53.699 106.618 53.3287 106.488 52.7874C106.176 51.4859 106.031 51.4421 106.031 52.6491ZM107.078 52.373C107.078 52.8288 107.153 53.0154 107.245 52.7874C107.337 52.5596 107.337 52.1867 107.245 51.9586C107.153 51.7309 107.078 51.9172 107.078 52.373ZM51.9961 52.373C51.9961 52.5553 52.1453 52.7045 52.3276 52.7045C52.51 52.7045 52.6591 52.5553 52.6591 52.373C52.6591 52.1907 52.51 52.0415 52.3276 52.0415C52.1453 52.0415 51.9961 52.1907 51.9961 52.373ZM102.106 52.7045C102.106 53.1603 102.181 53.3469 102.273 53.1189C102.365 52.8911 102.365 52.5182 102.273 52.2901C102.181 52.0624 102.106 52.2487 102.106 52.7045ZM104.042 52.7045C104.042 53.0691 104.178 53.3675 104.343 53.3675C104.508 53.3675 104.565 53.0691 104.47 52.7045C104.374 52.3398 104.239 52.0415 104.169 52.0415C104.1 52.0415 104.042 52.3398 104.042 52.7045ZM105.06 52.9531C105.047 53.5455 105.186 54.0305 105.368 54.0305C105.762 54.0305 105.762 53.4547 105.368 52.5387C105.13 51.9831 105.08 52.0501 105.06 52.9531ZM64.4882 53.0983C64.3825 53.3625 64.3039 53.284 64.288 52.8978C64.2737 52.5484 64.352 52.3528 64.462 52.4628C64.5721 52.5729 64.584 52.859 64.4882 53.0983ZM108.02 52.8702C108.02 53.1437 108.165 53.3675 108.342 53.3675C108.518 53.3675 108.577 53.1437 108.472 52.8702C108.367 52.5968 108.222 52.373 108.151 52.373C108.079 52.373 108.02 52.5968 108.02 52.8702ZM56.1678 54.2702C55.4146 59.4446 54.6535 65.9614 54.6856 66.9592C54.7062 67.5973 54.9926 66.031 55.3218 63.4784C55.6513 60.9258 56.1041 57.5292 56.3279 55.9304C56.552 54.3315 56.6594 52.9475 56.5666 52.855C56.4741 52.7625 56.2944 53.3993 56.1678 54.2702ZM68.9029 53.3675C68.9029 53.5498 68.7447 53.699 68.5518 53.699C68.3589 53.699 68.2929 53.5498 68.4056 53.3675C68.5183 53.1852 68.6761 53.036 68.7567 53.036C68.8372 53.036 68.9029 53.1852 68.9029 53.3675ZM37.1418 54.9421C36.9316 55.8084 36.3998 58.0377 35.9603 59.8965C35.5204 61.7552 34.8517 63.7098 34.4745 64.2398C34.0969 64.7699 33.6311 66.0837 33.4392 67.1587C32.4841 72.5145 32.1314 75.1334 32.2948 75.6502C32.5713 76.5234 31.6988 81.7618 31.4024 81.0073C31.2062 80.5081 31.1535 80.4915 31.1346 80.9238C31.122 81.2202 31.0242 81.9661 30.9178 82.5813C30.7709 83.4286 30.81 83.5795 31.0782 83.2029C31.358 82.8107 31.4339 82.9447 31.4379 83.8384C31.4468 85.8543 31.721 84.7712 32.2716 80.5442C32.568 78.2688 33.1203 74.6915 33.4988 72.5948C33.8774 70.498 34.2142 68.4095 34.2471 67.9537C34.3409 66.6509 35.1216 64.1639 35.5134 63.9199C35.709 63.7983 35.9185 63.3508 35.9788 62.9254C36.1946 61.4025 36.7967 58.4766 37.2293 56.8483C37.9934 53.9712 38.0932 53.3675 37.8048 53.3675C37.6503 53.3675 37.3519 54.0759 37.1418 54.9421ZM49.2891 53.6135L46.7474 53.7259L46.3788 55.9503C46.1762 57.1735 45.8865 59.144 45.735 60.3291C45.5835 61.5142 45.3521 62.7342 45.2208 63.0398C45.0325 63.4784 45.1224 63.5589 45.6458 63.422C46.5001 63.1989 47.3093 60.2442 46.7129 59.5255C46.4418 59.1987 46.4371 59.0329 46.696 58.9464C47.242 58.7644 47.7801 56.0345 47.368 55.5379C46.8366 54.8974 47.3173 54.6935 49.358 54.6935C50.3986 54.6935 51.7163 54.6004 52.2862 54.4863C53.4753 54.2486 53.7282 53.331 52.5763 53.4341C52.1659 53.4709 50.6867 53.5515 49.2891 53.6135ZM62.299 53.8923C62.3149 54.2785 62.3934 54.357 62.4992 54.0928C62.595 53.8535 62.5831 53.5674 62.473 53.4573C62.3629 53.3473 62.2847 53.5429 62.299 53.8923ZM81.0787 53.5677C80.9686 53.6778 80.6825 53.6897 80.4435 53.5939C80.179 53.4882 80.2575 53.4096 80.6437 53.3937C80.9932 53.3794 81.1887 53.4577 81.0787 53.5677ZM75.8644 55.0631V56.351H77.5634H79.2624L79.0635 55.3565C78.9451 54.7645 79.0031 54.362 79.2073 54.362C79.396 54.362 79.4686 54.2301 79.3688 54.0686C79.2693 53.9075 78.4399 53.7756 77.5259 53.7756H75.8644V55.0631ZM87.5699 55.5223C87.5715 56.6162 87.6335 57.0237 87.7074 56.4279C87.781 55.8322 87.7797 54.9372 87.7041 54.4389C87.6282 53.9407 87.5679 54.4283 87.5699 55.5223ZM53.5171 54.7373C53.4239 55.1689 53.285 55.8206 53.2078 56.1853C53.1073 56.661 53.0566 56.5907 53.0291 55.9367C52.9721 54.5848 52.4433 54.8321 52.205 56.3222C52.0909 57.0353 51.9066 57.8557 51.7956 58.1455C51.649 58.527 51.7926 58.6716 52.3184 58.6716C52.9316 58.6716 53.0158 58.8118 52.8637 59.5832C52.7649 60.0844 52.5872 61.2033 52.4682 62.0695C52.3495 62.9357 52.2322 63.6726 52.207 63.7075C52.1821 63.7426 49.4767 63.8613 46.1948 63.9713L40.2277 64.1716L46.2372 64.2392C50.7099 64.2899 52.3343 64.2011 52.5899 63.8928C52.9698 63.434 54.1473 54.4134 53.8638 54.1303C53.766 54.0325 53.6099 54.3057 53.5171 54.7373ZM98.237 54.8967C98.3265 55.4232 98.6242 57.5557 98.8984 59.6362C99.3794 63.2871 99.5451 63.9425 99.8979 63.5898C100.089 63.3988 99.2113 56.4422 98.8907 55.6075C98.6965 55.1013 98.9425 55.0661 101.484 55.2375C103.455 55.3705 104.363 55.3111 104.532 55.0383C104.664 54.8245 104.719 54.5964 104.654 54.5317C104.589 54.4668 103.082 54.3073 101.305 54.1767L98.0736 53.9397L98.237 54.8967ZM106.488 55.1875C106.575 55.5541 106.897 57.4947 107.204 59.5003C107.511 61.5059 107.892 63.3706 108.051 63.6441C108.244 63.9756 108.286 63.8102 108.177 63.1469C107.639 59.8749 107.487 58.3401 107.7 58.3401C107.834 58.3401 108.019 58.6291 108.111 58.9822C108.237 59.4652 108.637 59.6561 109.724 59.7529L111.17 59.8819L109.717 59.9396L108.265 59.9976L108.471 61.2407C108.584 61.9246 108.678 62.8194 108.68 63.2298C108.683 63.9133 108.837 63.9756 110.526 63.9756C111.578 63.9756 112.287 63.8434 112.178 63.6673C112.074 63.4976 111.764 61.863 111.491 60.0347C111.217 58.2061 110.899 56.4631 110.783 56.1611C110.615 55.7245 110.713 55.6562 111.258 55.8289C111.986 56.0603 112.603 55.4865 112.119 55.0277C111.961 54.8785 110.595 54.7035 109.082 54.6388C106.467 54.5271 106.339 54.5543 106.488 55.1875ZM123.684 54.913C123.456 55.0051 123.083 55.0051 122.855 54.913C122.627 54.8211 122.814 54.7459 123.27 54.7459C123.725 54.7459 123.912 54.8211 123.684 54.913ZM57.0333 55.8538C57.04 56.4008 57.1142 56.5844 57.1984 56.2619C57.2826 55.9393 57.277 55.4918 57.1862 55.2674C57.0953 55.0429 57.0267 55.3068 57.0333 55.8538ZM126.336 55.2591C125.926 55.338 125.255 55.338 124.844 55.2591C124.434 55.1798 124.77 55.1152 125.59 55.1152C126.411 55.1152 126.746 55.1798 126.336 55.2591ZM48.149 56.5493C47.3607 58.4355 47.5977 58.8373 49.4996 58.8373H51.1375L51.4104 57.5256C51.7913 55.692 51.5731 55.3565 50.0005 55.3565C48.7603 55.3565 48.6055 55.456 48.149 56.5493ZM99.8627 57.2627C99.9708 58.1289 100.116 59.2103 100.185 59.6661C100.254 60.1219 100.329 61.2033 100.353 62.0695L100.396 63.6441H102.262H104.128L103.871 61.9037C103.73 60.9467 103.585 59.7158 103.549 59.1688C103.394 56.8204 103.054 56.1037 101.994 55.8916C99.7719 55.4474 99.6459 55.5282 99.8627 57.2627ZM103.857 57.1798C103.984 58.0914 104.226 59.868 104.395 61.1277C104.701 63.4224 104.871 63.9203 105.228 63.5636C105.514 63.2778 104.362 56.2373 103.966 55.8538C103.732 55.6267 103.698 56.0444 103.857 57.1798ZM107.771 56.5128C107.592 57.4487 107.026 57.3107 107.026 56.3315C107.026 55.9774 107.229 55.688 107.477 55.688C107.779 55.688 107.876 55.9609 107.771 56.5128ZM109.92 55.8883C109.81 55.9983 109.523 56.0103 109.284 55.9144C109.02 55.8087 109.098 55.7301 109.485 55.7142C109.834 55.7 110.03 55.7782 109.92 55.8883ZM111.798 57.6771C111.92 58.4975 112.164 60.2051 112.34 61.4718C112.516 62.7385 112.809 63.9246 112.992 64.1072C113.469 64.5846 113.422 63.9879 112.668 60.0311C112.01 56.5765 111.381 54.8762 111.798 57.6771ZM132.55 58.3911C132.328 59.3657 131.994 60.8346 131.806 61.6551C131.619 62.4756 131.436 67.0255 131.4 71.766C131.34 79.8544 131.132 82.1238 130.245 84.3632C130.1 84.7278 129.814 85.4435 129.61 85.9534C129.134 87.1369 129.138 87.1809 129.734 87.1809C130.007 87.1809 130.231 87.0318 130.231 86.8494C130.231 86.6671 130.455 86.5179 130.728 86.5179C131.002 86.5179 131.227 86.4062 131.228 86.2693C131.23 86.1324 131.565 85.8566 131.974 85.6557C133.967 84.6774 135.535 83.7161 135.535 83.4727C135.535 83.3246 135.834 83.2029 136.198 83.2029C136.563 83.2029 136.861 83.0859 136.861 82.943C136.861 82.7998 137.303 82.4215 137.844 82.1026C138.384 81.7834 139.018 81.3388 139.253 81.1147C139.487 80.8903 140.35 80.1912 141.171 79.5607C141.991 78.9298 142.771 78.2429 142.903 78.0341C143.036 77.8252 143.558 77.202 144.064 76.6494C145.611 74.959 146.143 74.2592 146.143 73.9171C146.143 73.7368 146.262 73.5893 146.408 73.5893C146.812 73.5893 149.022 69.048 149.795 66.6277C150.173 65.4425 150.564 63.2795 150.664 61.8209L150.846 59.1688L150.152 60.2542C149.771 60.8512 149.458 61.4874 149.458 61.6677C149.458 62.0682 148.779 63.2904 148.215 63.9037C147.988 64.1517 147.801 64.462 147.801 64.5932C147.801 64.7245 147.279 65.3855 146.641 66.0621C146.002 66.7387 145.48 67.4412 145.48 67.6229C145.48 67.8048 145.331 67.9537 145.149 67.9537C144.967 67.9537 144.817 68.083 144.817 68.2414C144.817 68.3996 143.437 69.9434 141.751 71.6722C138.248 75.2627 136.861 76.8059 136.861 77.1122C136.861 77.317 135.276 78.8933 135.069 78.8933C135.014 78.8933 135.173 78.11 135.422 77.1529C136.27 73.888 136.328 70.4028 135.59 66.9592C133.885 58.9954 133.451 57.1606 133.21 56.8993C133.068 56.7449 132.771 57.4162 132.55 58.3911ZM17.099 58.9016C17.0164 59.9601 16.5593 62.3181 16.0829 64.1414C15.3742 66.8531 15.2157 68.2106 15.2114 71.6002C15.2081 74.2735 15.3758 76.303 15.6841 77.3187C15.947 78.1849 16.1174 78.8933 16.0627 78.8933C15.8333 78.8933 14.616 77.6293 13.4727 76.2042C12.7981 75.3631 10.8985 73.3002 9.25129 71.6198C7.60438 69.9397 5.9263 68.0916 5.52253 67.5135C5.11876 66.935 4.52006 66.2206 4.1922 65.9259C3.86467 65.6308 3.59649 65.2208 3.59649 65.0142C3.59649 64.8077 3.44731 64.6386 3.26498 64.6386C3.08266 64.6386 2.93348 64.4149 2.93348 64.1414C2.93348 63.8679 2.82077 63.6441 2.68286 63.6441C2.54496 63.6441 2.23168 63.1591 1.98637 62.5667C1.74139 61.9743 1.29452 60.9672 0.993846 60.3291L0.447195 59.1688L0.350065 61.0034C0.296361 62.0125 0.497916 63.728 0.797264 64.8157C1.09694 65.9033 1.4258 67.1664 1.52823 67.6222C1.63067 68.078 1.98869 68.9402 2.32384 69.5383C2.65932 70.1366 2.93348 70.8451 2.93348 71.1129C2.93348 71.3811 3.08266 71.6002 3.26498 71.6002C3.44731 71.6002 3.59649 71.7958 3.59649 72.0348C3.59649 72.2742 3.89484 72.79 4.2595 73.1815C4.62415 73.5727 4.9225 74.0484 4.9225 74.2384C4.9225 74.4283 5.07168 74.5838 5.25401 74.5838C5.43634 74.5838 5.58551 74.7396 5.58551 74.9302C5.58551 75.1208 5.92133 75.6204 6.3314 76.0397C6.7418 76.4594 7.46349 77.2358 7.93522 77.7652C9.12134 79.0956 10.822 80.5509 11.1906 80.5509C11.3593 80.5509 11.547 80.6742 11.608 80.8247C11.7628 81.2089 16.7509 84.5289 17.1733 84.5289C17.3639 84.5289 17.5197 84.6781 17.5197 84.8604C17.5197 85.0427 17.7434 85.1919 18.0169 85.1919C18.2904 85.1919 18.5142 85.3239 18.5142 85.4846C18.5142 85.6457 18.7754 85.8602 19.0943 85.9617C19.4132 86.0628 20.0786 86.4095 20.5728 86.7318C21.0668 87.0543 21.5889 87.1922 21.7331 87.0384C21.877 86.8846 21.8087 86.692 21.5806 86.6108C21.3529 86.5292 21.1662 86.0276 21.1662 85.4959C21.1662 84.9642 21.0326 84.5289 20.8695 84.5289C20.2718 84.5289 19.3453 76.177 19.5087 72.2632C19.7825 65.7081 19.5505 61.441 18.8331 59.8318C18.6707 59.4672 18.495 58.7226 18.4429 58.1773C18.3849 57.5673 18.1366 57.1453 17.7988 57.0813C17.3509 56.9965 17.221 57.3339 17.099 58.9016ZM64.1013 60.5602C63.9784 61.7095 63.7543 62.6496 63.6041 62.6496C63.3376 62.6496 63.4075 61.3813 63.8414 58.3401C64.1597 56.11 64.3782 57.9761 64.1013 60.5602ZM75.471 57.2405C75.71 57.3363 75.9961 57.3243 76.1061 57.2143C76.2162 57.1042 76.0206 57.026 75.6712 57.0402C75.285 57.0561 75.2064 57.1347 75.471 57.2405ZM112.864 58.1743C113.136 59.3933 113.326 59.6578 113.319 58.8098C113.316 58.4604 113.163 57.9505 112.978 57.6771C112.732 57.3141 112.701 57.448 112.864 58.1743ZM105.433 58.8373C105.44 59.3843 105.514 59.568 105.598 59.2454C105.682 58.9229 105.677 58.4753 105.586 58.2509C105.495 58.0265 105.426 58.2903 105.433 58.8373ZM61.6621 59.0031C61.6621 59.4589 61.7374 59.6455 61.8292 59.4175C61.9214 59.1897 61.9214 58.8168 61.8292 58.5887C61.7374 58.361 61.6621 58.5473 61.6621 59.0031ZM71.8864 60.6606V62.9811H73.5439H75.2014V60.6606V58.3401H73.5439H71.8864V60.6606ZM75.8644 60.6606V62.9811H77.522H79.1795V60.6606V58.3401H77.522H75.8644V60.6606ZM79.8425 60.6606V62.9811H81.4728H83.1032L83.2132 60.6599L83.3233 58.3384L81.5829 58.3394L79.8425 58.3401V60.6606ZM87.8248 59.1963C87.8407 59.5825 87.9193 59.6611 88.025 59.3969C88.1208 59.1576 88.1089 58.8715 87.9988 58.7614C87.8888 58.6513 87.8105 58.8469 87.8248 59.1963ZM48.7799 59.5733C47.678 59.7108 47.5732 59.8766 47.2032 62.0695L46.9934 63.3126H48.7868H50.5799L50.7908 61.7745C51.1581 59.0952 51.3066 59.2577 48.7799 59.5733ZM51.542 60.0805C51.4322 60.4909 51.3497 61.4231 51.3586 62.1524C51.3782 63.7234 51.7667 63.0013 52.1168 60.7435C52.3432 59.2839 51.8944 58.766 51.542 60.0805ZM39.4371 60.412C39.2849 60.8224 39.0582 61.7174 38.9332 62.401L38.7058 63.6441H40.359C41.268 63.6441 42.0782 63.5321 42.1594 63.3955C42.2403 63.2589 42.4123 62.3635 42.5416 61.4065L42.7763 59.6661H41.2451C39.9605 59.6661 39.6695 59.7861 39.4371 60.412ZM56.3826 60.6606C56.3826 61.2987 56.4509 61.56 56.5341 61.2407C56.6176 60.9215 56.6176 60.3997 56.5341 60.0805C56.4509 59.7612 56.3826 60.0225 56.3826 60.6606ZM125.346 59.9041C125.85 59.98 126.596 59.978 127.004 59.8995C127.411 59.8209 126.999 59.7586 126.087 59.7609C125.176 59.7635 124.842 59.8279 125.346 59.9041ZM130.169 59.8925C130.408 59.9883 130.694 59.9764 130.804 59.8663C130.914 59.7563 130.719 59.678 130.369 59.6923C129.983 59.7082 129.905 59.7868 130.169 59.8925ZM87.8248 60.5224C87.8407 60.9086 87.9193 60.9871 88.025 60.7229C88.1208 60.4836 88.1089 60.1975 87.9988 60.0874C87.8888 59.9774 87.8105 60.173 87.8248 60.5224ZM105.777 60.9921C105.777 61.6302 105.845 61.8915 105.928 61.5722C106.012 61.253 106.012 60.7312 105.928 60.412C105.845 60.0927 105.777 60.354 105.777 60.9921ZM113.377 60.6606C113.377 61.1164 113.452 61.3031 113.544 61.075C113.636 60.8472 113.636 60.4743 113.544 60.2462C113.452 60.0185 113.377 60.2048 113.377 60.6606ZM19.8402 60.9921C19.8402 61.4075 20.1919 61.4075 20.8347 60.9921C21.2368 60.7322 21.1891 60.6699 20.5861 60.6656C20.176 60.6629 19.8402 60.8098 19.8402 60.9921ZM21.3038 62.2253C21.1841 63.0226 21.1589 63.7476 21.2478 63.8364C21.3366 63.9253 21.5057 63.3962 21.6234 62.6609L21.8372 61.3236L23.4079 61.2891C26.2203 61.2271 27.4645 61.1032 27.7068 60.8605C27.8381 60.7295 26.4998 60.6569 24.7332 60.699L21.5209 60.776L21.3038 62.2253ZM61.3618 61.8209C61.3654 62.5502 61.4334 62.8094 61.5126 62.397C61.5919 61.9846 61.5889 61.3879 61.506 61.071C61.4231 60.7541 61.3581 61.0916 61.3618 61.8209ZM125.59 61.0329C126.046 61.2149 126.754 61.6783 127.163 62.0632C127.573 62.4477 127.99 62.6811 128.089 62.5817C128.414 62.2571 126.222 60.6599 125.482 60.6815C124.808 60.7014 124.815 60.7239 125.59 61.0329ZM30.4745 61.5169C30.4904 61.9031 30.569 61.9816 30.6748 61.7174C30.7706 61.4781 30.7586 61.192 30.6486 61.0819C30.5385 60.9719 30.4603 61.1675 30.4745 61.5169ZM113.721 62.4839C113.727 63.0309 113.801 63.2145 113.886 62.892C113.97 62.5694 113.964 62.1219 113.873 61.8974C113.783 61.673 113.714 61.9369 113.721 62.4839ZM121.446 61.9853C121.558 62.167 121.722 62.6519 121.811 63.0627C121.899 63.4737 122.11 64.4066 122.278 65.1359C122.58 66.4447 122.583 66.4394 122.478 64.7215C122.42 63.7645 122.5 62.9811 122.655 62.9811C122.811 62.9811 122.64 62.6828 122.275 62.3181C121.575 61.6183 121.101 61.428 121.446 61.9853ZM129.071 62.6496C129.184 62.8319 129.006 62.9907 128.676 63.002C128.218 63.0183 128.263 63.0978 128.87 63.3408C129.307 63.5155 129.736 63.5871 129.823 63.4999C130.083 63.24 129.618 62.3181 129.227 62.3181C129.029 62.3181 128.958 62.4673 129.071 62.6496ZM106.058 63.1744C106.073 63.5606 106.152 63.6392 106.258 63.375C106.354 63.1356 106.342 62.8495 106.232 62.7395C106.122 62.6294 106.043 62.825 106.058 63.1744ZM97.2186 65.9647C98.0325 76.6633 98.4323 83.2954 98.7379 91.159C99.0084 98.114 99.2143 100.537 99.6068 101.38C100.182 102.615 100.606 102.629 100.091 101.396C99.9098 100.962 99.6005 96.8774 99.4039 92.3193C99.0356 83.7853 98.9574 82.4222 98.4117 75.081C98.2354 72.7108 98.0013 69.3437 97.8909 67.599C97.7809 65.8539 97.5419 64.213 97.3602 63.9524C97.1341 63.6282 97.0893 64.265 97.2186 65.9647ZM61.0416 65.4674C61.0442 66.379 61.1085 66.7125 61.1848 66.2087C61.2607 65.7048 61.2587 64.9589 61.1801 64.5511C61.1016 64.1434 61.0392 64.5558 61.0416 65.4674ZM83.9863 64.2975C86.6307 64.63 68.5213 64.6499 65.4221 64.3181C63.9243 64.158 66.4514 64.0658 72.5494 64.0588C77.7457 64.0526 82.8923 64.16 83.9863 64.2975ZM87.7088 64.5074C87.5987 64.6174 87.3126 64.6294 87.0736 64.5336C86.8091 64.4278 86.8876 64.3492 87.2738 64.3333C87.6232 64.3191 87.8188 64.3973 87.7088 64.5074ZM100.306 64.5465C100.894 64.6198 101.938 64.6207 102.626 64.5491C103.314 64.4772 102.832 64.4175 101.556 64.4159C100.28 64.4146 99.7169 64.4732 100.306 64.5465ZM111.916 64.8581C112.144 64.9503 112.517 64.9503 112.744 64.8581C112.972 64.7663 112.786 64.691 112.33 64.691C111.874 64.691 111.688 64.7663 111.916 64.8581ZM44.3947 66.2133C44.415 67.0023 44.4527 67.0358 44.6755 66.4619C44.8343 66.0528 45.365 65.7203 46.0612 65.594C47.1751 65.3915 47.1714 65.3885 45.7804 65.3454C44.4488 65.304 44.3729 65.3517 44.3947 66.2133ZM50.271 65.5427C51.2194 65.6597 51.3344 65.7731 51.1415 66.4013C51.0192 66.7994 50.8929 67.1574 50.8607 67.1969C50.8286 67.2366 49.357 67.2907 47.5904 67.3172C45.8172 67.3437 44.46 67.4969 44.5602 67.6593C44.7637 67.9885 50.3207 68.0671 51.1402 67.7525C51.476 67.6238 51.6646 67.1465 51.6646 66.4265C51.6646 65.3381 51.6242 65.3033 50.4215 65.3547L49.1783 65.4077L50.271 65.5427ZM36.4817 66.031C36.2629 66.2498 36.0839 66.5766 36.0839 66.7573C36.0839 66.938 36.2706 66.8441 36.4983 66.5488C36.7264 66.2534 37.2856 65.9468 37.7414 65.8675L38.5702 65.7233L37.7249 65.6782C37.2598 65.6534 36.7005 65.8122 36.4817 66.031ZM39.337 65.8596C39.576 65.9554 39.8621 65.9435 39.9721 65.8334C40.0822 65.7233 39.8866 65.6451 39.5372 65.6593C39.151 65.6753 39.0724 65.7538 39.337 65.8596ZM41.99 66.5448L41.8852 67.4564H38.9839C37.3884 67.4564 36.0833 67.5685 36.0833 67.7051C36.0836 67.8416 37.4176 67.9537 39.0479 67.9537C40.6782 67.9537 42.0745 67.8416 42.1514 67.7051C42.5148 67.0573 42.6931 65.6332 42.4107 65.6332C42.2373 65.6332 42.0477 66.0436 41.99 66.5448ZM99.3479 65.7969C99.1095 66.0353 99.4337 67.9537 99.7125 67.9537C99.8422 67.9537 99.937 67.4319 99.9234 66.7944C99.9002 65.7061 99.7314 65.4137 99.3479 65.7969ZM102.654 65.8596C102.893 65.9554 103.179 65.9435 103.289 65.8334C103.4 65.7233 103.204 65.6451 102.855 65.6593C102.468 65.6753 102.39 65.7538 102.654 65.8596ZM105.972 67.1518C106.048 67.8048 106.23 68.2149 106.377 68.0634C106.678 67.7521 106.408 65.9647 106.059 65.9647C105.935 65.9647 105.895 66.499 105.972 67.1518ZM108.02 66.4424C108.02 66.7052 108.17 67.0122 108.352 67.1249C108.534 67.2376 108.683 67.0225 108.683 66.6472C108.683 66.272 108.534 65.9647 108.352 65.9647C108.17 65.9647 108.02 66.1795 108.02 66.4424ZM111.093 66.1944C111.416 66.2786 111.863 66.273 112.088 66.1821C112.312 66.0913 112.048 66.0227 111.501 66.0293C110.954 66.0359 110.771 66.1102 111.093 66.1944ZM114.554 66.9592C114.65 67.3238 114.785 67.6222 114.855 67.6222C114.925 67.6222 114.982 67.3238 114.982 66.9592C114.982 66.5945 114.847 66.2962 114.682 66.2962C114.516 66.2962 114.459 66.5945 114.554 66.9592ZM108.352 67.89C108.352 68.2806 112.649 68.5769 112.879 68.2023C112.963 68.0657 112.215 67.9537 111.216 67.9537C110.218 67.9537 109.165 67.8632 108.876 67.7525C108.588 67.6417 108.352 67.7037 108.352 67.89ZM60.7147 69.6112C60.7147 70.614 60.7767 71.0241 60.8526 70.5229C60.9285 70.0216 60.9285 69.2008 60.8526 68.6996C60.7767 68.1983 60.7147 68.6084 60.7147 69.6112ZM103.794 68.1821C104.113 68.2656 104.635 68.2656 104.954 68.1821C105.273 68.0989 105.012 68.0306 104.374 68.0306C103.736 68.0306 103.475 68.0989 103.794 68.1821ZM113.324 68.2852C113.324 68.4675 113.474 68.6167 113.656 68.6167C113.838 68.6167 113.987 68.4675 113.987 68.2852C113.987 68.1029 113.838 67.9537 113.656 67.9537C113.474 67.9537 113.324 68.1029 113.324 68.2852ZM114.485 68.2852C114.372 68.4675 114.513 68.6167 114.797 68.6167C115.081 68.6167 115.313 68.4675 115.313 68.2852C115.313 68.1029 115.173 67.9537 115.002 67.9537C114.83 67.9537 114.597 68.1029 114.485 68.2852ZM122.849 68.6432C122.966 69.0914 123.116 69.2419 123.199 68.9936C123.279 68.7543 123.187 68.4012 122.994 68.2083C122.748 67.9623 122.705 68.0919 122.849 68.6432ZM54.3813 69.114C54.3879 69.6609 54.4622 69.8446 54.5464 69.522C54.6306 69.1995 54.625 68.752 54.5341 68.5275C54.4433 68.3031 54.3747 68.567 54.3813 69.114ZM43.8806 69.3626C43.7142 69.8608 42.3792 80.1554 42.3812 80.9265C42.3822 81.315 42.657 81.4539 43.3541 81.4191C43.8885 81.3919 44.3911 81.2977 44.4706 81.2092C44.5502 81.1207 44.7156 80.1262 44.8386 78.9994L45.062 76.9511L44.1368 76.8115L43.2113 76.6723L44.1577 76.6225C45.0551 76.5755 45.0975 76.5042 44.9778 75.2498C44.9086 74.5218 44.9444 73.888 45.0577 73.8409C45.1708 73.7935 45.3614 73.3546 45.4814 72.8656C45.6733 72.0816 45.5905 71.9596 44.7866 71.8376L43.8743 71.6997L44.7859 71.65C45.5242 71.6099 45.6975 71.4424 45.6975 70.7715C45.6975 70.3157 45.856 69.9427 46.0499 69.9427C46.2435 69.9427 46.3556 70.2782 46.2986 70.6886C46.2067 71.3486 46.3569 71.4461 47.6037 71.5363C48.9204 71.6317 49.0126 71.583 49.0126 70.7904C49.0126 70.3243 49.1618 69.9427 49.3441 69.9427C49.5264 69.9427 49.6756 70.3157 49.6756 70.7715C49.6756 71.2721 49.8649 71.6002 50.1533 71.6002C50.7351 71.6002 50.8587 71.4056 51.1548 70.0256L51.3858 68.9482H47.7025C45.0508 68.9482 43.9804 69.0642 43.8806 69.3626ZM72.5119 69.0961C72.4304 69.1776 71.7084 69.283 70.9071 69.3301C70.1046 69.3775 68.638 69.8376 67.6418 70.3544C66.647 70.8706 65.7575 71.2174 65.6651 71.1249C65.3395 70.7993 63.6823 72.257 63.3439 73.1663C62.888 74.3905 62.2864 87.3719 62.222 97.3747C62.1803 103.864 62.0845 105.414 61.7241 105.414C61.4788 105.414 61.2783 105.124 61.2783 104.77C61.2783 104.416 61.1059 104.02 60.895 103.89C60.6196 103.72 60.5672 103.994 60.7084 104.865C60.8785 105.913 60.8178 106.077 60.2576 106.077C59.3406 106.077 56.9687 106.852 56.9687 107.152C56.9687 107.29 56.7433 107.403 56.4678 107.403C56.1923 107.403 55.2972 107.701 54.4788 108.066C50.7815 109.713 50.0353 110.021 47.8523 110.801C42.6789 112.651 37.5671 112.791 33.5711 111.192C32.3933 110.721 31.2512 110.395 31.0331 110.467C30.5985 110.612 35.0821 113.902 36.4154 114.417C36.8712 114.592 37.6775 114.951 38.2069 115.213C38.7363 115.476 39.4361 115.69 39.762 115.69C40.0878 115.69 40.4465 115.839 40.5592 116.022C40.6806 116.218 42.711 116.353 45.5318 116.353C48.3526 116.353 50.383 116.218 50.5044 116.022C50.6171 115.839 51.0059 115.69 51.3686 115.69C51.7313 115.69 52.6455 115.392 53.4004 115.027C54.1552 114.663 54.9684 114.364 55.2077 114.364C55.4471 114.364 55.6427 114.215 55.6427 114.033C55.6427 113.85 55.941 113.701 56.3057 113.701C56.6703 113.701 56.9687 113.562 56.9687 113.392C56.9687 113.222 57.2661 112.989 57.6297 112.873C57.9934 112.758 58.478 112.482 58.7071 112.26C59.3661 111.622 65.6554 107.584 66.6808 107.141C67.1906 106.92 68.7321 106.74 70.1062 106.74C73.0732 106.74 73.1829 107.116 70.6081 108.461C68.8187 109.396 63.2258 112.956 62.9358 113.345C62.8446 113.468 62.2479 113.931 61.6098 114.376C60.9716 114.82 59.8359 115.783 59.0857 116.514C58.3355 117.246 57.4033 118.105 57.0138 118.422C56.1893 119.094 56.0919 119.668 56.8029 119.668C57.0764 119.668 57.3002 119.818 57.3002 120C57.3002 120.182 57.46 120.331 57.6552 120.331C57.8508 120.331 58.2397 120.56 58.5198 120.841C58.9776 121.298 59.3194 121.056 61.9124 118.437C63.4983 116.835 65.2384 115.143 65.7794 114.678C67.358 113.318 71.7581 110.055 72.0127 110.055C72.1407 110.055 72.566 109.756 72.9572 109.392C73.3487 109.027 73.8645 108.729 74.1038 108.729C74.3428 108.729 74.5384 108.58 74.5384 108.397C74.5384 107.847 75.7676 108.023 77.0976 108.764C80.4226 110.616 84.8088 114.106 88.8051 118.078L92.0409 121.295L92.986 120.482C93.5061 120.035 94.134 119.669 94.3813 119.669C94.6551 119.668 94.7526 119.463 94.6299 119.144C94.5192 118.856 94.4287 118.557 94.4287 118.481C94.4287 118.405 94.2865 118.342 94.1131 118.342C93.9394 118.342 93.0815 117.63 92.207 116.76C91.3321 115.89 90.0943 114.816 89.4561 114.373C88.818 113.93 88.2213 113.468 88.1301 113.345C87.8407 112.957 82.2489 109.397 80.4644 108.465C79.5206 107.972 78.7336 107.419 78.7154 107.237C78.67 106.783 83.4973 106.615 83.9376 107.056C84.1285 107.247 84.4859 107.403 84.7322 107.403C85.1668 107.403 91.5231 111.451 92.3588 112.26C92.5879 112.482 93.0725 112.758 93.4362 112.873C93.7998 112.989 94.0972 113.222 94.0972 113.392C94.0972 113.562 94.3955 113.701 94.7602 113.701C95.1249 113.701 95.4232 113.85 95.4232 114.033C95.4232 114.215 95.649 114.364 95.9251 114.364C96.2009 114.364 96.6859 114.496 97.0025 114.657C97.7812 115.053 98.9948 115.522 100.419 115.976C101.89 116.445 110.222 116.483 110.507 116.022C110.619 115.839 111.046 115.69 111.454 115.69C111.863 115.69 112.339 115.565 112.512 115.412C112.685 115.259 113.349 114.933 113.987 114.687C115.202 114.22 119.773 111.279 120.095 110.758C120.198 110.592 120.069 110.374 119.808 110.274C119.548 110.174 119.288 110.211 119.23 110.356C119.01 110.912 115.145 112.066 112.853 112.26C109.218 112.568 104.317 111.511 99.5717 109.396C98.7489 109.029 97.4056 108.43 96.5871 108.066C95.7686 107.701 94.8736 107.403 94.5981 107.403C94.3226 107.403 94.0972 107.29 94.0972 107.152C94.0972 106.862 91.7382 106.077 90.867 106.077C90.1178 106.077 89.3086 104.881 89.837 104.554C90.085 104.401 90.0363 104.234 89.6872 104.038C89.2383 103.787 89.1661 102.476 89.1402 94.0955C89.1236 88.7864 89.0364 84.323 88.9463 84.1772C88.8561 84.031 88.7749 81.44 88.7656 78.419C88.7557 75.026 88.6237 72.9263 88.4208 72.9263C88.214 72.9263 88.1149 75.1974 88.1523 79.0733C88.1851 82.4544 88.1387 85.2937 88.0496 85.3829C87.9604 85.4724 87.8188 82.8154 87.7353 79.4784C87.6073 74.3779 87.4887 73.2674 86.9897 72.5059C86.278 71.4196 85.6097 71.284 86.2024 72.3461C87.125 73.999 87.9468 105.754 87.0527 105.193C86.825 105.05 86.3867 104.974 86.0791 105.025C85.6508 105.095 85.496 104.823 85.4161 103.856C85.3127 102.599 85.3087 102.596 83.8206 102.596C82.3885 102.596 82.3222 102.64 82.163 103.686C82.0719 104.286 81.8481 104.808 81.6658 104.846C81.4616 104.89 81.2656 102.882 81.1556 99.6124C80.9985 94.9411 80.9686 94.727 80.907 97.8166C80.8685 99.7463 80.7326 101.429 80.6053 101.557C80.4777 101.684 80.4061 102.418 80.4458 103.187C80.486 103.956 80.4037 104.755 80.2632 104.962C79.9943 105.36 75.8804 105.632 73.0467 105.439C71.471 105.332 71.4465 105.316 72.5494 105.121C73.5651 104.942 73.7226 104.782 73.8134 103.839C73.9172 102.766 73.9116 102.762 72.4045 102.762C70.8969 102.762 70.8919 102.765 70.8919 103.922C70.8919 104.732 70.742 105.082 70.3946 105.082C69.9802 105.082 69.8854 104.323 69.8251 100.524L69.7525 95.9658L69.6497 100.358C69.5556 104.361 69.4926 104.751 68.938 104.751C68.4653 104.751 68.3366 104.51 68.3625 103.673C68.3953 102.603 68.3844 102.595 66.6602 102.496L64.9248 102.395V103.739C64.9248 104.699 64.7859 105.082 64.4382 105.082C64.0254 105.082 63.9624 104.163 64.0238 99.0322L64.096 92.9823L66.5101 92.8848C69.4833 92.7645 69.4074 92.1535 66.4192 92.1535C64.0712 92.1535 63.8802 91.9649 64.0718 89.833L64.1763 88.6727L69.3398 88.5932C72.1798 88.5494 74.5789 88.6356 74.6707 88.7844C74.7629 88.9333 74.8825 89.9629 74.9369 91.0721C75.0002 92.3653 75.1547 92.9922 75.3672 92.8195C75.5495 92.671 76.7943 92.551 78.1336 92.5523C79.4725 92.5536 80.6945 92.4273 80.8486 92.2712C81.0028 92.1154 81.1751 91.2419 81.2315 90.3302L81.3343 88.6727H83.9041C85.4708 88.6727 86.4302 88.5434 86.3622 88.3412C86.2926 88.1347 83.26 87.9878 78.3225 87.952C73.9623 87.9202 68.9297 87.8831 67.1389 87.8691L63.8832 87.844L64.052 85.2748C64.1448 83.8619 64.23 82.5193 64.2412 82.2913C64.2572 81.9733 66.2097 81.8596 72.6323 81.8026L81.0028 81.7284L72.5494 81.554L64.096 81.3796L64.0012 80.3851C63.9489 79.8381 64.0433 78.5701 64.2111 77.5673L64.5157 75.744L64.5545 78.4942L64.5933 81.244L66.831 81.1462L69.0686 81.0481L69.1644 78.1468L69.2602 75.2455L66.9118 75.4006C64.3387 75.5703 63.8418 75.2405 64.5283 73.8197C64.8641 73.1245 64.881 73.1348 64.9023 74.0487C64.9245 74.9939 64.943 75.0028 66.463 74.7946C67.3086 74.6786 68.2783 74.5838 68.6178 74.5838C69.1545 74.5838 69.2344 74.3096 69.2344 72.4645C69.2344 70.4745 69.4846 69.9427 70.4218 69.9427C70.4981 69.9427 70.5604 71.0615 70.5604 72.429V74.9153H72.7152H74.8699V72.2632C74.8699 68.8564 75.4739 68.7881 75.6019 72.1804L75.6987 74.7495H77.8535H80.0083V72.4989C80.0083 70.4778 80.0722 70.2583 80.6361 70.3442C81.1742 70.4264 81.2693 70.7496 81.2991 72.5948L81.3343 74.7495H83.489C85.4549 74.7495 85.6355 74.6915 85.5474 74.0865C85.4943 73.7219 84.9102 72.9385 84.2489 72.3461C82.8738 71.1133 83.1224 70.9468 84.8061 71.9728C85.6906 72.5122 85.8487 72.544 85.4887 72.1104C84.6884 71.1461 81.4357 69.7153 79.1523 69.3231C76.9965 68.9528 72.7987 68.8093 72.5119 69.0961ZM35.8628 70.3027C35.7501 70.8653 35.4557 71.4033 35.2081 71.4985C34.9605 71.5936 34.7751 71.9908 34.7964 72.3816C34.8249 72.911 34.8723 72.9495 34.9827 72.5318C35.0649 72.2205 35.526 71.9261 36.0216 71.8688C36.7158 71.7889 36.9359 71.5644 37.0174 70.8544C37.0751 70.3531 37.2797 69.9427 37.4719 69.9427C37.6937 69.9427 37.7686 70.6681 37.6771 71.9317L37.5333 73.9208H38.6319C39.6257 73.9208 39.7305 73.8283 39.7305 72.9495C39.7305 72.2056 39.5558 71.9443 38.9846 71.8343C38.3451 71.711 38.3686 71.6841 39.1503 71.6453C39.8896 71.6089 40.062 71.4438 40.062 70.7715C40.062 70.3157 40.2284 69.9427 40.4319 69.9427C40.6908 69.9427 40.7319 70.6004 40.5682 72.1277C40.3544 74.124 40.3859 74.3023 40.9338 74.1969C41.4036 74.1064 41.6114 73.5618 41.8942 71.6805L42.2555 69.2797H39.1613H36.0673L35.8628 70.3027ZM63.9303 69.6112C63.2875 70.0266 62.9358 70.0266 62.9358 69.6112C62.9358 69.4289 63.2713 69.282 63.6817 69.2847C64.2847 69.289 64.3324 69.3513 63.9303 69.6112ZM99.7328 70.6419C99.7328 71.7106 99.8465 71.9317 100.396 71.9317C100.912 71.9317 101.059 71.7106 101.059 70.9372C101.059 70.3902 101.208 69.9427 101.39 69.9427C101.573 69.9427 101.722 70.3902 101.722 70.9372C101.722 71.881 101.791 71.9317 103.087 71.9317C104.367 71.9317 104.441 71.88 104.291 71.095C104.203 70.6349 104.262 70.1774 104.422 70.0786C104.582 69.9798 104.804 70.3561 104.917 70.9154C105.028 71.4743 105.25 71.9317 105.41 71.9317C105.569 71.9317 105.812 71.9251 105.948 71.9168C106.085 71.9085 106.147 71.5896 106.086 71.2081C106.024 70.8265 106.155 70.4025 106.377 70.2656C107.333 69.6745 106.159 69.3516 103.05 69.3516H99.7328V70.6419ZM108.789 70.8219C108.945 72.3415 109.883 72.6664 109.778 71.164C109.693 69.955 110.467 70.1526 110.611 71.3771C110.703 72.1452 110.868 72.2632 111.855 72.2632C112.903 72.2632 112.993 72.1834 112.993 71.2492C112.993 70.6574 113.131 70.3203 113.324 70.44C113.507 70.5527 113.656 71.0088 113.656 71.454C113.656 72.7645 114.865 72.5351 115.071 71.1859C115.161 70.5935 115.166 70.0339 115.081 69.9427C114.997 69.8516 113.517 69.7249 111.793 69.6616L108.658 69.5462L108.789 70.8219ZM124.678 70.1711C124.997 70.2547 125.52 70.2547 125.839 70.1711C126.158 70.0879 125.897 70.0196 125.259 70.0196C124.62 70.0196 124.36 70.0879 124.678 70.1711ZM23.2381 71.5061C23.7397 71.582 24.5598 71.582 25.0614 71.5061C25.563 71.4302 25.1526 71.3682 24.1498 71.3682C23.147 71.3682 22.7366 71.4302 23.2381 71.5061ZM65.0886 71.9337C64.7577 72.2997 64.41 72.5218 64.3155 72.4277C64.2213 72.3335 64.4319 72.0388 64.7832 71.773C65.6796 71.095 65.7937 71.155 65.0886 71.9337ZM123.52 72.0975C123.607 72.5533 123.789 72.9263 123.925 72.9263C124.061 72.9263 124.101 72.5533 124.014 72.0975C123.927 71.6417 123.744 71.2687 123.608 71.2687C123.472 71.2687 123.433 71.6417 123.52 72.0975ZM125.226 72.1804C125.426 72.9336 125.666 73.102 126.607 73.1494C127.731 73.206 127.733 73.2037 126.75 72.9813C126.06 72.8251 125.723 72.5291 125.65 72.0126C125.592 71.6036 125.418 71.2687 125.264 71.2687C125.11 71.2687 125.093 71.6791 125.226 72.1804ZM46.3606 72.9471C46.3606 73.8933 46.4341 73.9556 47.4379 73.8588C48.3357 73.7723 48.5329 73.6029 48.6201 72.8434C48.7172 71.9997 48.637 71.9317 47.5427 71.9317C46.4448 71.9317 46.3606 72.004 46.3606 72.9471ZM49.4346 73.2578C49.5377 74.0249 49.4754 74.5838 49.2871 74.5838C49.1081 74.5838 49.0036 75.0708 49.055 75.6658C49.1064 76.2612 49.0557 76.898 48.9423 77.0813C48.8289 77.2647 48.695 78.3066 48.6443 79.3962C48.5684 81.0385 48.6486 81.3962 49.113 81.4857C49.8798 81.6332 50.2014 80.6165 50.4725 77.1854C50.6469 74.9803 50.6002 74.2775 50.2703 74.1452C49.9965 74.0355 50.0512 73.9635 50.4215 73.947C50.8392 73.9281 51.0016 73.6423 51.0016 72.9263C51.0016 72.0733 50.8776 71.9317 50.1291 71.9317C49.3027 71.9317 49.2662 72.0017 49.4346 73.2578ZM53.9023 72.8848C53.7657 73.5001 53.6633 74.4697 53.6745 75.0396C53.6954 76.0557 53.7021 76.06 54.0216 75.2587C54.201 74.8092 54.3034 73.8396 54.2494 73.1039L54.1509 71.766L53.9023 72.8848ZM106.969 73.2578C107.038 73.9871 107.154 74.5838 107.226 74.5838C107.298 74.5838 107.357 73.9871 107.357 73.2578C107.357 72.5285 107.242 71.9317 107.1 71.9317C106.959 71.9317 106.9 72.5285 106.969 73.2578ZM35.4209 73.2578C35.4209 74.0312 35.5681 74.2523 36.0839 74.2523C36.5997 74.2523 36.7469 74.0312 36.7469 73.2578C36.7469 72.4844 36.5997 72.2632 36.0839 72.2632C35.5681 72.2632 35.4209 72.4844 35.4209 73.2578ZM99.8571 73.2992C99.9711 73.8691 100.064 74.9133 100.064 75.6197C100.064 76.6832 100.178 76.9043 100.727 76.9043C101.243 76.9043 101.39 76.6832 101.39 75.9098C101.39 75.3628 101.223 74.9153 101.018 74.9153C100.759 74.9153 100.75 74.79 100.989 74.5009C101.552 73.82 101.084 72.2632 100.316 72.2632C99.7467 72.2632 99.6801 72.4141 99.8571 73.2992ZM101.86 72.5672C101.631 72.796 101.705 74.1246 101.96 74.3806C102.092 74.5118 102.155 75.1334 102.101 75.7619C102.004 76.8934 102.016 76.9043 103.354 76.9043C104.857 76.9043 104.877 76.8493 104.432 73.9519C104.22 72.5712 104.148 72.4897 103.103 72.4602C102.495 72.4429 101.936 72.4913 101.86 72.5672ZM24.5953 73.4262C24.2844 74.0965 24.2999 74.2523 24.6782 74.2523C24.9543 74.2523 25.1443 73.9145 25.1443 73.4235C25.1443 72.3915 25.075 72.3919 24.5953 73.4262ZM26.4703 72.8991C26.4703 73.0665 26.3798 73.4394 26.2691 73.7278C26.1583 74.0162 26.2157 74.2523 26.396 74.2523C26.5767 74.2523 26.7958 73.8793 26.883 73.4235C26.9702 72.9677 26.9129 72.5948 26.7557 72.5948C26.5989 72.5948 26.4703 72.7317 26.4703 72.8991ZM105.098 73.5034C105.161 74.0517 105.433 74.4562 105.783 74.5225C106.233 74.608 106.363 74.4048 106.363 73.6135C106.363 72.8049 106.222 72.5948 105.678 72.5948C105.127 72.5948 105.013 72.7721 105.098 73.5034ZM108.806 73.3406C108.916 73.751 109.008 74.1986 109.01 74.3352C109.017 74.6723 109.928 74.6517 110.14 74.31C110.497 73.7315 109.92 72.5948 109.269 72.5948C108.743 72.5948 108.648 72.7492 108.806 73.3406ZM111.004 73.5893C111.004 74.4734 111.114 74.5838 111.998 74.5838C112.883 74.5838 112.993 74.4734 112.993 73.5893C112.993 72.7051 112.883 72.5948 111.998 72.5948C111.114 72.5948 111.004 72.7051 111.004 73.5893ZM113.822 72.9263C113.709 73.1086 113.697 73.3877 113.796 73.5468C114.053 73.9632 114.485 77.8259 114.606 80.7995C114.642 81.6637 114.79 81.8769 115.356 81.8769C116.026 81.8769 116.05 81.7705 115.83 79.805C115.702 78.6656 115.453 77.6814 115.276 77.618C115.076 77.5464 115.087 77.3426 115.307 77.078C115.551 76.7833 115.555 76.3792 115.318 75.7566C115.131 75.2634 115.058 74.73 115.155 74.5712C115.253 74.4127 115.239 73.9029 115.122 73.4388C114.909 72.5891 114.202 72.3107 113.822 72.9263ZM115.645 73.5339C115.645 74.1114 115.797 74.5838 115.983 74.5838C116.183 74.5838 116.232 74.2135 116.102 73.6721C115.79 72.3707 115.645 72.3269 115.645 73.5339ZM122.659 73.2578C122.659 73.7136 122.734 73.9002 122.826 73.6721C122.918 73.4444 122.918 73.0715 122.826 72.8434C122.734 72.6156 122.659 72.8019 122.659 73.2578ZM22.4922 73.8545C22.4922 74.365 22.6268 74.9246 22.7913 75.0976C22.9557 75.2707 23.1755 76.5314 23.2792 77.8988C23.6028 82.1517 24.3977 86.7586 24.8575 87.0427C25.0153 87.1402 25.1443 87.5754 25.1443 88.0097C25.1443 88.444 25.2935 88.8915 25.4758 89.0042C25.6581 89.1169 25.8073 89.4985 25.8073 89.8525C25.8073 90.2066 25.92 90.496 26.0579 90.496C26.1958 90.496 26.5174 90.9806 26.773 91.5734C27.0285 92.1661 27.5288 93.0695 27.8845 93.5816C28.2405 94.0935 28.4716 94.5722 28.3983 94.6454C28.2833 94.7608 27.8613 94.4541 25.9565 92.8719C25.3163 92.3398 17.4275 88.507 16.9734 88.507C16.7267 88.507 16.5252 88.3856 16.5252 88.2375C16.5252 88.0889 16.003 87.7627 15.3649 87.5125C14.7267 87.2622 14.2046 86.936 14.2046 86.7874C14.2046 86.6393 13.9809 86.5179 13.7074 86.5179C13.4339 86.5179 13.2101 86.3688 13.2101 86.1864C13.2101 86.0041 12.9863 85.8549 12.7129 85.8549C12.4394 85.8549 12.2156 85.7379 12.2156 85.595C12.2156 85.4518 11.7591 85.0653 11.2015 84.7358C10.6436 84.4063 9.1893 83.1757 7.96936 82.0009C6.25051 80.346 5.72408 79.9956 5.6306 80.4441C5.5643 80.7624 5.67601 81.0783 5.87923 81.1459C6.08244 81.2139 6.24852 81.555 6.24852 81.9044C6.24852 82.2541 6.3977 82.5399 6.58003 82.5399C6.76235 82.5399 6.91153 82.8382 6.91153 83.2029C6.91153 83.5675 7.06071 83.8659 7.24304 83.8659C7.42536 83.8659 7.57454 84.1643 7.57454 84.5289C7.57454 84.8936 7.72372 85.1919 7.90604 85.1919C8.08837 85.1919 8.23755 85.3875 8.23755 85.6265C8.23755 85.8659 8.49844 86.3535 8.81768 86.7105C9.13659 87.0676 9.98922 88.0279 10.7119 88.8451C12.4752 90.8384 16.7058 94.4127 18.0733 95.0648C18.6803 95.3545 19.1772 95.7129 19.1772 95.8614C19.1772 96.0099 19.4457 96.1316 19.7739 96.1316C20.1021 96.1316 20.5122 96.2662 20.6855 96.4306C21.332 97.0445 25.1565 98.1806 28.6251 98.7892C29.5367 98.949 31.0285 99.2467 31.9401 99.4506C34.3843 99.9969 36.0839 100.208 36.0839 99.9654C36.0839 99.7141 34.7997 97.8633 34.1241 97.1407C33.1962 96.1481 31.2446 91.4885 29.2579 85.5234C28.4265 83.0272 27.6441 81.192 26.3599 78.7276C25.98 77.9983 25.5136 77.0671 25.324 76.6583C25.134 76.2496 24.8665 75.9138 24.7299 75.9124C24.5933 75.9111 24.4813 75.686 24.4813 75.4125C24.4813 75.139 24.3686 74.9153 24.2306 74.9153C24.0927 74.9153 23.7821 74.4678 23.5398 73.9208C22.9868 72.6717 22.4922 72.6402 22.4922 73.8545ZM27.5172 73.5893C27.5172 74.0451 27.5924 74.2317 27.6843 74.0036C27.7764 73.7759 27.7764 73.403 27.6843 73.1749C27.5924 72.9471 27.5172 73.1334 27.5172 73.5893ZM55.032 73.5893C55.032 74.0451 55.1073 74.2317 55.1991 74.0036C55.2913 73.7759 55.2913 73.403 55.1991 73.1749C55.1073 72.9471 55.032 73.1334 55.032 73.5893ZM127.579 73.5893C127.316 73.9539 126.761 74.2523 126.346 74.2523C125.93 74.2523 125.59 74.3809 125.59 74.5377C125.59 74.6948 125.998 74.7456 126.496 74.6501C127.354 74.4863 127.371 74.5075 126.83 75.0489C126.515 75.3631 126.082 75.512 125.868 75.3794C125.606 75.2173 125.546 75.3157 125.685 75.6794C125.915 76.2791 125.154 78.0155 124.812 77.6727C124.693 77.5541 124.596 77.8594 124.596 78.3513C124.596 78.8433 124.381 79.3279 124.119 79.4287C123.856 79.5295 123.549 80.0841 123.436 80.6616C123.238 81.6753 122.848 82.7414 122.236 83.9441C122.075 84.2607 121.944 84.8114 121.944 85.1677C121.944 85.5241 121.794 85.908 121.612 86.0207C121.43 86.1334 121.281 86.5597 121.281 86.9685C121.281 87.3772 121.162 87.8532 121.017 88.0263C120.871 88.1997 120.564 88.9379 120.332 89.6672C119.335 92.8059 117.101 97.1801 115.728 98.6828C115.135 99.3309 114.65 99.9661 114.65 100.094C114.65 100.382 116.572 100.166 117.468 99.7761C117.833 99.6173 118.728 99.3999 119.457 99.2925C121.42 99.0037 123.923 98.5396 125.424 98.1862C130.749 96.9335 135.794 93.8442 139.815 89.3758C140.287 88.8507 141.076 87.9855 141.568 87.4528C142.06 86.9201 142.555 86.1934 142.668 85.838C142.781 85.4827 143.012 85.1919 143.182 85.1919C143.352 85.1919 143.491 84.8936 143.491 84.5289C143.491 84.1643 143.641 83.8659 143.823 83.8659C144.005 83.8659 144.154 83.5675 144.154 83.2029C144.154 82.8382 144.304 82.5399 144.486 82.5399C144.668 82.5399 144.817 82.2538 144.817 81.9044C144.817 81.555 144.983 81.2139 145.187 81.1459C145.39 81.0783 145.502 80.7518 145.435 80.4202C145.34 79.9435 144.827 80.2929 142.983 82.0904C141.701 83.3405 140.247 84.575 139.751 84.8336C139.256 85.0921 138.85 85.428 138.85 85.5795C138.85 85.7309 138.627 85.8549 138.353 85.8549C138.08 85.8549 137.856 86.0041 137.856 86.1864C137.856 86.3688 137.632 86.5179 137.359 86.5179C137.085 86.5179 136.861 86.6671 136.861 86.8494C136.861 87.0318 136.575 87.1809 136.226 87.1809C135.876 87.1809 135.541 87.2943 135.48 87.4326C135.388 87.6427 133.982 88.3631 128.905 90.803C127.709 91.3775 125.39 92.6789 125.022 92.9823C124.8 93.1646 124.425 93.463 124.189 93.6453C123.952 93.8276 123.499 94.1817 123.182 94.4316C122.692 94.8195 122.607 94.8165 122.607 94.4114C122.607 94.1498 122.876 93.6469 123.205 93.2936C123.534 92.9398 124.018 92.1661 124.281 91.5734C124.543 90.9806 124.87 90.496 125.008 90.496C125.146 90.496 125.259 90.1479 125.259 89.7226C125.259 89.2969 125.361 88.8468 125.486 88.7218C125.839 88.3684 126.574 86.0973 126.58 85.3411C126.582 84.9675 126.722 84.52 126.889 84.3466C127.057 84.1735 127.274 83.062 127.372 81.8769C127.57 79.4794 128.081 75.6539 128.425 74.0036C128.678 72.7877 128.293 72.5991 127.579 73.5893ZM34.5033 74.5838C34.5033 75.2219 34.5716 75.4832 34.6548 75.1639C34.7383 74.8447 34.7383 74.3229 34.6548 74.0036C34.5716 73.6844 34.5033 73.9456 34.5033 74.5838ZM60.3361 74.2523C60.3361 74.7081 60.4114 74.8947 60.5032 74.6667C60.5954 74.4389 60.5954 74.066 60.5032 73.8379C60.4114 73.6102 60.3361 73.7965 60.3361 74.2523ZM123.856 74.1084C123.751 74.2788 123.862 74.8656 124.103 75.4125C124.433 76.1607 124.543 76.243 124.545 75.744C124.551 74.8281 124.088 73.7318 123.856 74.1084ZM34.9223 77.9171C34.7911 79.7503 34.7775 81.3442 34.8922 81.4585C35.3602 81.9266 35.7783 80.8774 35.9033 78.9192C35.9762 77.7765 36.1214 76.7565 36.2258 76.652C36.3302 76.5476 36.4154 76.0397 36.4154 75.5229C36.4154 74.8228 36.256 74.5838 35.7882 74.5838C35.2303 74.5838 35.1345 74.9521 34.9223 77.9171ZM37.0784 75.0539C37.0784 75.3124 36.9879 75.76 36.8772 76.0484C36.7144 76.4727 36.9289 76.5728 37.9987 76.5728C39.0903 76.5728 39.3565 76.4425 39.5216 75.8269C39.8415 74.6328 39.7974 74.5838 38.4045 74.5838C37.4809 74.5838 37.0784 74.7263 37.0784 75.0539ZM40.1044 75.6658C40.1558 76.2612 40.1094 76.895 40.0016 77.0747C39.8939 77.2544 39.6996 78.3341 39.57 79.4735C39.3708 81.2198 39.4139 81.5454 39.8442 81.5454C40.5735 81.5454 40.6749 81.2629 40.8427 78.7617C40.9255 77.5322 41.0817 76.4369 41.1904 76.3285C41.2991 76.2198 41.388 75.7828 41.388 75.3572C41.388 74.7953 41.1997 74.5838 40.6995 74.5838C40.1243 74.5838 40.0265 74.7615 40.1044 75.6658ZM45.6975 75.5783C45.6975 76.5174 45.7711 76.5728 47.0236 76.5728C47.9471 76.5728 48.3496 76.4303 48.3496 76.1027C48.3496 75.8442 48.4401 75.3966 48.5508 75.1082C48.7162 74.6766 48.4812 74.5838 47.2248 74.5838C45.7489 74.5838 45.6975 74.6173 45.6975 75.5783ZM105.368 75.8856C105.368 76.4568 105.543 76.9043 105.766 76.9043C106.017 76.9043 106.048 77.02 105.849 77.2179C105.676 77.3903 105.584 78.5091 105.645 79.7042C105.742 81.5848 105.842 81.8769 106.391 81.8769C106.95 81.8769 107.026 81.6246 107.026 79.7775C107.026 78.6225 106.923 77.5749 106.797 77.449C106.671 77.323 106.559 76.7415 106.548 76.1568C106.535 75.4178 106.352 75.0585 105.948 74.9799C105.497 74.8918 105.368 75.093 105.368 75.8856ZM107.457 76.5728C107.457 77.5756 107.519 77.9857 107.595 77.4844C107.671 76.9832 107.671 76.1624 107.595 75.6612C107.519 75.1599 107.457 75.57 107.457 76.5728ZM109.015 75.9098C109.015 76.6832 109.162 76.9043 109.678 76.9043C110.194 76.9043 110.341 76.6832 110.341 75.9098C110.341 75.1364 110.194 74.9153 109.678 74.9153C109.162 74.9153 109.015 75.1364 109.015 75.9098ZM111.004 75.875C111.004 76.7525 111.117 76.8456 112.33 76.961C113.405 77.0638 113.656 76.9812 113.656 76.5257C113.656 75.3343 113.258 74.9153 112.129 74.9153C111.109 74.9153 111.004 75.0048 111.004 75.875ZM25.8073 75.9294C25.8073 76.3046 25.9565 76.5198 26.1388 76.4071C26.3211 76.2943 26.4703 75.9874 26.4703 75.7245C26.4703 75.4616 26.3211 75.2468 26.1388 75.2468C25.9565 75.2468 25.8073 75.5541 25.8073 75.9294ZM116.012 76.0755C116.02 76.6225 116.235 78.1889 116.49 79.5563L116.952 82.0426L116.773 79.0714C116.674 77.4374 116.459 75.871 116.295 75.5906C116.072 75.2103 116 75.3336 116.012 76.0755ZM81.5594 78.5628C81.6233 80.353 81.5332 81.5928 81.3343 81.6611C81.1519 81.7234 82.1577 81.7605 83.5689 81.7429C84.9805 81.7254 86.0247 81.6743 85.8895 81.6292C85.7546 81.5838 85.6916 80.2041 85.7502 78.5628L85.8567 75.5783H83.6548H81.4529L81.5594 78.5628ZM70.7848 76.1584C70.7042 76.295 70.6194 77.4138 70.5955 78.6447L70.5524 80.8824H72.3797H74.2069V78.3961V75.9098H72.569C71.6679 75.9098 70.8654 76.0218 70.7848 76.1584ZM76.196 78.3961V80.8824H77.9639H79.7321V78.3961V75.9098H77.9639H76.196V78.3961ZM34.1211 77.0976C34.137 77.4838 34.2156 77.5623 34.3213 77.2981C34.4171 77.0588 34.4052 76.7727 34.2951 76.6626C34.1851 76.5526 34.1068 76.7482 34.1211 77.0976ZM53.5678 77.0144C53.1832 77.9645 53.2525 78.7641 53.6818 78.3348C53.8794 78.1372 53.9901 77.6224 53.9275 77.1911C53.827 76.5009 53.7839 76.4797 53.5678 77.0144ZM54.6744 77.0976C54.6903 77.4838 54.7688 77.5623 54.8746 77.2981C54.9704 77.0588 54.9585 76.7727 54.8484 76.6626C54.7383 76.5526 54.6601 76.7482 54.6744 77.0976ZM36.9306 77.6502C36.8606 77.8783 36.7187 78.773 36.6157 79.6392L36.428 81.2139H37.582C38.6319 81.2139 38.736 81.128 38.736 80.2608C38.736 79.7367 38.8291 78.8416 38.9431 78.2718C39.1401 77.2865 39.099 77.2358 38.1041 77.2358C37.5286 77.2358 37.0005 77.4225 36.9306 77.6502ZM45.6975 78.1889C45.6975 78.713 45.6044 79.6081 45.4904 80.1779C45.2888 81.1857 45.3157 81.2139 46.4849 81.2139C47.5089 81.2139 47.6872 81.1038 47.6902 80.468C47.6922 80.0576 47.7864 79.1628 47.8994 78.479L48.1049 77.2358H46.9012C45.7963 77.2358 45.6975 77.3141 45.6975 78.1889ZM100.379 77.3638C100.295 77.4467 100.303 78.4574 100.394 79.6097C100.528 81.2841 100.681 81.7277 101.158 81.8182C101.691 81.9196 101.743 81.6962 101.655 79.6701C101.58 77.9442 101.434 77.3853 101.043 77.3107C100.76 77.257 100.461 77.2809 100.379 77.3638ZM109.503 79.441C109.769 81.9564 109.797 82.029 110.412 81.7933C110.728 81.672 110.798 81.0683 110.675 79.5179C110.537 77.7934 110.393 77.3863 109.884 77.2895C109.307 77.1795 109.279 77.3326 109.503 79.441ZM102.39 79.142C102.393 80.0082 102.504 80.8877 102.638 81.0972C102.989 81.6445 104.879 81.8162 104.838 81.2967C104.82 81.069 104.783 80.1365 104.755 79.2248L104.705 77.5673H103.545H102.385L102.39 79.142ZM111.45 78.7859C111.565 79.4831 111.661 80.3722 111.663 80.762C111.666 81.2964 111.914 81.5063 112.676 81.6183L113.685 81.7662L113.587 79.7496L113.49 77.7331L112.365 77.6257L111.241 77.5183L111.45 78.7859ZM123.322 78.5618C123.322 79.0177 123.397 79.2043 123.489 78.9762C123.581 78.7485 123.581 78.3755 123.489 78.1475C123.397 77.9197 123.322 78.106 123.322 78.5618ZM33.8131 79.2805C33.7856 79.7672 33.6775 80.4385 33.5724 80.7723C33.3924 81.3465 33.4024 81.3475 33.7594 80.7909C33.9673 80.4673 34.0757 79.796 34.0001 79.2991L33.8628 78.3961L33.8131 79.2805ZM107.788 80.2194C107.788 81.2222 107.85 81.6322 107.926 81.131C108.002 80.6298 108.002 79.809 107.926 79.3077C107.85 78.8065 107.788 79.2166 107.788 80.2194ZM53.2936 79.4181C53.1547 82.5356 52.9621 85.2065 52.6741 88.0097C52.3319 91.3364 52.3336 94.9222 52.6774 95.2657C52.7785 95.3668 53.0487 91.7832 53.2774 87.3019C53.5065 82.821 53.6102 79.071 53.5081 78.9686C53.4057 78.8665 53.3095 79.0687 53.2936 79.4181ZM40.3935 82.2084L39.5647 82.4739L40.4764 82.5067C40.9779 82.525 41.388 82.3907 41.388 82.2084C41.388 82.0261 41.3509 81.8918 41.3051 81.91C41.2594 81.9283 40.8493 82.0625 40.3935 82.2084ZM36.3325 82.4481C36.9249 82.5217 37.8949 82.5217 38.4873 82.4481C39.0797 82.3748 38.5951 82.3145 37.4099 82.3145C36.2248 82.3145 35.7402 82.3748 36.3325 82.4481ZM42.3205 82.4348C42.5595 82.5306 42.8456 82.5187 42.9557 82.4086C43.0657 82.2986 42.8701 82.2203 42.5207 82.2346C42.1345 82.2505 42.056 82.329 42.3205 82.4348ZM102.482 82.7859C103.72 82.8498 105.659 82.8495 106.791 82.7849C107.923 82.7206 106.91 82.6682 104.54 82.6688C102.169 82.6692 101.243 82.7222 102.482 82.7859ZM110.716 82.6937C110.96 82.9384 114.97 82.9937 115.208 82.7554C115.327 82.637 114.33 82.5399 112.993 82.5399C111.656 82.5399 110.631 82.6092 110.716 82.6937ZM115.811 82.8714C115.694 83.06 115.979 83.2029 116.474 83.2029C116.968 83.2029 117.253 83.06 117.137 82.8714C117.024 82.6891 116.726 82.5399 116.474 82.5399C116.222 82.5399 115.923 82.6891 115.811 82.8714ZM65.2563 85.177C65.2563 87.1451 65.2596 87.1514 66.3337 87.3358C66.9261 87.4375 68.9029 87.3905 70.7261 87.2313L74.0412 86.9423L69.962 86.8959L65.8828 86.8494L65.984 85.2748L66.0851 83.7002L75.1186 83.612L84.1521 83.5238V85.172V86.8203L81.7486 86.9177L79.3452 87.0152L81.5766 87.3016C84.6662 87.6984 84.8151 87.602 84.8151 85.2022V83.2029H75.0357H65.2563V85.177ZM34.0949 84.5289C34.0949 84.8972 33.8738 85.1919 33.5976 85.1919C33.3241 85.1919 33.1004 85.3365 33.1004 85.5131C33.1004 85.6895 33.3112 85.7532 33.5688 85.6544C33.8469 85.5476 34.0916 85.72 34.1715 86.0794C34.2454 86.4115 34.3744 86.0495 34.4579 85.2748C34.5414 84.5001 34.4937 83.8659 34.3521 83.8659C34.2106 83.8659 34.0949 84.1643 34.0949 84.5289ZM36.67 84.1062C37.2657 84.1798 38.1608 84.1785 38.659 84.1029C39.1573 84.027 38.6697 83.9667 37.5757 83.9687C36.4817 83.9703 36.0743 84.0323 36.67 84.1062ZM39.7938 84.8843C39.7464 85.5092 39.8472 85.8221 40.055 85.6935C40.4502 85.4492 40.5175 83.8659 40.1326 83.8659C39.989 83.8659 39.8366 84.3244 39.7938 84.8843ZM42.114 85.109L42.2168 86.3522L44.5373 86.3741L46.8578 86.3956L44.5996 86.2763C42.3653 86.1579 42.3424 86.147 42.4448 85.2599C42.5469 84.3754 42.5887 84.3605 45.5318 84.1772L48.5153 83.9912L45.2633 83.9286L42.0109 83.8659L42.114 85.109ZM48.8995 84.1205C49.1134 84.2567 49.2078 84.76 49.113 85.2569C48.9887 85.908 48.7053 86.1858 48.0658 86.2839C47.4028 86.3857 47.4923 86.4308 48.4325 86.4682C49.67 86.5176 49.6756 86.512 49.6756 85.1919C49.6756 84.148 49.5523 83.8669 49.0955 83.8709C48.7192 83.8742 48.6503 83.962 48.8995 84.1205ZM100.599 84.1374C100.503 84.2929 100.542 84.8548 100.687 85.3862L100.95 86.3522L101.115 85.2602C101.273 84.2143 100.965 83.545 100.599 84.1374ZM67.0338 84.6947C66.9287 84.9682 66.9287 85.4157 67.0338 85.6892C67.1959 86.1122 68.4155 86.1864 75.1912 86.1864H83.1575V85.1919V84.1974H75.1912C68.4155 84.1974 67.1959 84.2717 67.0338 84.6947ZM107.739 85.1919C107.929 85.7389 108.145 86.1864 108.219 86.1864C108.292 86.1864 108.352 85.7389 108.352 85.1919C108.352 84.5448 108.184 84.1974 107.872 84.1974C107.482 84.1974 107.457 84.385 107.739 85.1919ZM109.953 85.5234L110.079 86.8494H113.635C115.592 86.8494 117.262 86.7795 117.348 86.694C117.573 86.4682 117.27 84.1974 117.014 84.1974C116.896 84.1974 116.8 84.6821 116.802 85.2748L116.805 86.3522H113.656H110.507L110.51 85.2748C110.512 84.6821 110.358 84.1974 110.17 84.1974C109.969 84.1974 109.879 84.7484 109.953 85.5234ZM113.909 84.4318C114.321 84.511 114.918 84.508 115.235 84.4252C115.551 84.3423 115.214 84.2773 114.485 84.281C113.755 84.2846 113.496 84.3526 113.909 84.4318ZM35.3589 86.4129C35.5979 86.5087 35.884 86.4967 35.9941 86.3867C36.1041 86.2766 35.9086 86.1984 35.5591 86.2126C35.1729 86.2285 35.0944 86.3071 35.3589 86.4129ZM36.9995 86.4208C37.4119 86.5 38.0086 86.4971 38.3256 86.4142C38.6425 86.3313 38.305 86.2663 37.5757 86.27C36.8464 86.2736 36.5871 86.3416 36.9995 86.4208ZM88.5014 92.2364C88.5455 98.5827 88.7182 102.707 89.0083 104.336C89.1594 105.186 89.0868 105.414 88.6648 105.414C88.2415 105.414 88.1288 105.051 88.1241 103.673C88.1208 102.716 88.0237 98.4647 87.9087 94.2254C87.7532 88.5153 87.7976 86.5179 88.0804 86.5179C88.3516 86.5179 88.4732 88.1698 88.5014 92.2364ZM74.8079 87.0759C75.047 87.1717 75.333 87.1597 75.4431 87.0497C75.5532 86.9396 75.3576 86.8614 75.0082 86.8756C74.622 86.8915 74.5434 86.9701 74.8079 87.0759ZM76.7761 87.0835C77.1865 87.1624 77.8575 87.1624 78.2679 87.0835C78.6783 87.0043 78.3424 86.9396 77.522 86.9396C76.7015 86.9396 76.3657 87.0043 76.7761 87.0835ZM54.0113 88.0372C54.0273 88.4234 54.1058 88.502 54.2116 88.2378C54.3074 87.9984 54.2954 87.7123 54.1854 87.6023C54.0753 87.4922 53.9971 87.6878 54.0113 88.0372ZM33.8625 88.3223C33.5529 88.675 33.5529 88.9658 33.8625 89.6331C34.0816 90.1048 34.3727 90.492 34.5093 90.4933C34.6459 90.4947 34.7579 90.6959 34.7579 90.9402C34.7579 91.5087 37.7517 97.3992 38.7751 98.8443C39.9466 100.499 41.6333 102.099 42.2058 102.099C42.4853 102.099 42.714 102.231 42.714 102.391C42.714 102.552 43.0124 102.762 43.377 102.858C43.7417 102.953 44.04 103.287 44.04 103.6C44.04 104.009 43.924 104.077 43.6256 103.84C43.1254 103.443 40.2304 103.131 33.5976 102.76C30.8627 102.607 27.8046 102.341 26.8018 102.17C24.6609 101.805 21.3797 100.747 21.2216 100.372C21.1606 100.228 20.8798 100.11 20.5974 100.11C20.3149 100.11 19.8425 99.8381 19.5475 99.5066C18.8928 98.7697 17.8512 98.3463 17.8512 98.8168C17.8512 99.2411 22.7724 104.088 23.203 104.088C23.3744 104.088 23.8348 104.386 24.226 104.751C24.6175 105.115 25.1333 105.414 25.3727 105.414C25.6117 105.414 25.8073 105.563 25.8073 105.745C25.8073 105.928 26.1056 106.077 26.4703 106.077C26.8349 106.077 27.134 106.188 27.135 106.325C27.136 106.462 28.2919 106.947 29.7041 107.403C31.959 108.131 32.8567 108.231 37.0784 108.231C41.576 108.231 45.0027 107.796 46.4388 107.042C46.7554 106.876 47.4552 106.74 47.9939 106.74C48.5326 106.74 49.056 106.606 49.1568 106.443C49.2576 106.28 49.9749 106.053 50.751 105.938C51.5271 105.824 52.9061 105.622 53.8161 105.489C54.974 105.32 55.5018 105.082 55.5757 104.693C55.6457 104.326 55.4232 104.102 54.916 104.03C54.3617 103.952 54.1221 103.671 54.0462 103.01C53.9885 102.509 53.7952 102.099 53.6172 102.099C53.4388 102.099 53.3172 102.285 53.347 102.513C53.467 103.438 53.2979 103.728 52.742 103.549C51.6487 103.199 49.1783 101.942 48.9214 101.606C48.7802 101.421 48.7056 100.3 48.7557 99.1151C48.8389 97.1509 48.7882 96.9603 48.1838 96.9603C47.6249 96.9603 47.5145 97.1947 47.481 98.4521C47.422 100.661 47.3859 100.831 47.0236 100.607C46.8412 100.494 46.6897 99.7768 46.6871 99.0127C46.6805 97.265 46.4391 96.8907 45.1993 96.7084C44.4116 96.5927 44.5021 96.5522 45.6346 96.5128L47.0637 96.4631L46.9606 95.2199L46.8578 93.9768H45.2003C43.5474 93.9768 43.5424 93.9801 43.4364 95.1371C43.3777 95.7752 43.1758 96.4465 42.9878 96.6288C42.7541 96.8556 42.6858 96.5145 42.7717 95.5514C42.9076 94.0249 42.4939 93.5607 42.3215 95.0465L42.2168 95.9506L40.9736 94.7041C39.9556 93.6831 39.7305 93.2193 39.7305 92.1426C39.7305 90.7416 39.0499 90.3256 38.4654 91.3695C38.193 91.8565 38.0905 91.8396 37.4547 91.2038C36.919 90.668 36.8679 90.496 37.2442 90.496C37.5505 90.496 37.7414 90.185 37.7414 89.6868C37.7414 89.2416 37.8906 88.7854 38.0729 88.6727C38.2662 88.553 38.4045 88.8902 38.4045 89.4819C38.4045 90.2553 38.553 90.496 39.0313 90.496C39.5017 90.496 39.692 90.2043 39.7944 89.3254C39.8697 88.682 39.8611 88.0853 39.7756 87.9994C39.69 87.9139 38.4141 87.8496 36.9402 87.8566C35.1027 87.8652 34.1357 88.0117 33.8625 88.3223ZM42.4173 90.496C42.4206 92.0348 42.5618 93.148 42.7538 93.148C42.9358 93.148 43.0153 93.036 42.9308 92.8991C42.8463 92.7622 42.9689 91.6808 43.2033 90.4957C43.554 88.7221 43.6419 88.5464 43.6999 89.5015C43.7384 90.1396 43.7443 91.3045 43.7132 92.0899L43.6561 93.518L45.257 93.4159C46.8409 93.3148 46.8588 93.3008 46.9593 92.0932C47.0557 90.9346 47.005 90.8653 45.9647 90.7373L44.8688 90.6021L45.9462 90.549C46.9105 90.5016 47.0236 90.3916 47.0236 89.5015C47.0236 88.9545 47.1727 88.507 47.3551 88.507C47.546 88.507 47.6866 89.5383 47.6866 90.9379C47.6866 93.513 47.8036 93.8727 48.5478 93.5869C48.8956 93.4537 49.0126 92.7075 49.0126 90.6263V87.844H45.7121H42.4117L42.4173 90.496ZM63.3293 96.8774C63.2646 101.8 63.0873 105.414 62.9106 105.414C62.7422 105.414 62.6046 103.811 62.6053 101.85C62.6069 96.5453 63.0117 87.7783 63.2411 88.0787C63.3512 88.2232 63.3909 92.1824 63.3293 96.8774ZM35.5867 89.17C35.4262 89.4295 35.2356 89.4488 35.0145 89.2277C34.8322 89.0453 34.7914 88.7211 34.9237 88.507C35.0841 88.2474 35.2747 88.2282 35.4958 88.4493C35.6782 88.6316 35.7189 88.9558 35.5867 89.17ZM100.797 90.9104C100.888 93.4931 100.936 93.6512 101.669 93.7553C102.434 93.8634 102.444 93.8273 102.337 91.2691C102.203 88.0485 102.812 87.8791 103.048 91.0711L103.214 93.3138L104.457 93.4165L105.7 93.5196V91.0131C105.7 87.8131 106.302 87.7256 106.431 90.9067C106.514 92.9375 106.623 93.3247 107.144 93.4242C108.217 93.629 108.439 93.0131 108.189 90.5258L107.953 88.1755H104.327H100.7L100.797 90.9104ZM110.341 89.3357C110.341 90.2623 110.47 90.496 110.983 90.496C111.462 90.496 111.655 90.2228 111.742 89.4186L111.859 88.3412L112.198 89.5015C112.461 90.3985 112.759 90.7091 113.511 90.8712L114.485 91.0804L113.565 91.1199C112.896 91.1484 112.539 91.4076 112.258 92.0706L111.87 92.9823L111.747 92.0706C111.657 91.4106 111.434 91.159 110.939 91.159C110.322 91.159 110.272 91.3092 110.426 92.6796C110.589 94.1266 110.527 94.2708 109.135 95.6632C108.33 96.4677 107.455 97.1261 107.189 97.1261C106.924 97.1261 106.614 97.498 106.499 97.9525C106.274 98.8499 105.624 98.7554 105.774 97.8471C105.844 97.4241 105.569 97.2673 104.622 97.1891L103.379 97.086V98.7365C103.379 99.6442 103.289 100.622 103.179 100.909C102.774 101.965 102.385 101.008 102.385 98.9573C102.385 97.5816 102.241 96.7919 101.97 96.6825C101.639 96.5489 101.639 96.5101 101.97 96.4893C102.22 96.4733 102.385 95.9913 102.385 95.2796C102.385 94.24 102.294 94.1104 101.639 94.2102C101.179 94.2804 100.939 94.5118 101.014 94.8135C101.08 95.0827 101.114 96.7571 101.089 98.535C101.049 101.422 101.107 101.768 101.632 101.775C102.004 101.779 101.856 101.949 101.225 102.238C100.678 102.488 99.5488 103.007 98.7164 103.391C97.884 103.774 97.0814 104.088 96.9329 104.088C96.7844 104.088 96.7409 103.396 96.8361 102.551C96.9425 101.608 96.8971 101.192 96.7187 101.474C96.5586 101.726 96.4257 102.418 96.4227 103.01C96.4194 103.767 96.2626 104.088 95.8963 104.088C95.578 104.088 95.4179 104.314 95.4855 104.668C95.5638 105.076 96.0378 105.311 97.0844 105.461C99.863 105.861 101.223 106.129 101.888 106.41C102.252 106.564 102.998 106.782 103.545 106.895C104.092 107.008 105.136 107.247 105.866 107.426C110.816 108.641 117.811 108.594 121.566 107.321C122.776 106.911 123.817 106.463 123.877 106.326C123.938 106.189 124.274 106.077 124.623 106.077C124.973 106.077 125.259 105.928 125.259 105.745C125.259 105.563 125.454 105.414 125.693 105.414C125.933 105.414 126.448 105.115 126.84 104.751C127.231 104.386 127.692 104.088 127.863 104.088C128.294 104.088 133.215 99.2411 133.215 98.8168C133.215 98.3463 132.173 98.7697 131.518 99.5066C131.223 99.8381 130.739 100.11 130.441 100.11C130.143 100.11 129.9 100.259 129.9 100.441C129.9 100.623 129.536 100.773 129.09 100.773C128.645 100.773 128.2 100.904 128.101 101.065C127.678 101.749 123.477 102.404 117.303 102.747C114.476 102.904 111.642 103.115 111.004 103.216C107.98 103.694 107.026 103.697 107.026 103.227C107.026 102.971 107.324 102.762 107.689 102.762C108.054 102.762 108.352 102.612 108.352 102.43C108.352 102.248 108.581 102.099 108.86 102.099C109.391 102.099 111.667 100.008 111.667 99.5202C111.667 99.366 111.975 98.9096 112.351 98.5058C112.997 97.8126 117.634 88.9658 117.634 88.4271C117.634 88.2885 115.993 88.1755 113.987 88.1755H110.341V89.3357ZM80.6126 89.9159C80.3461 92.2394 80.4024 92.1936 77.941 92.0859L75.6987 91.9878L75.5986 90.2474L75.4981 88.507H78.1362H80.774L80.6126 89.9159ZM65.5049 89.0669C65.1191 89.1677 64.9248 89.5436 64.9248 90.1887C64.9248 91.1437 64.9533 91.159 66.7481 91.159C68.5352 91.159 68.5713 91.1401 68.5713 90.2059C68.5713 89.4037 68.4073 89.22 67.5354 89.0457C66.4441 88.8275 66.4209 88.8275 65.5049 89.0669ZM115.313 89.3357C115.313 89.6092 115.164 89.833 114.982 89.833C114.8 89.833 114.65 89.6092 114.65 89.3357C114.65 89.0622 114.8 88.8385 114.982 88.8385C115.164 88.8385 115.313 89.0622 115.313 89.3357ZM72.3008 89.4126C71.0623 89.5243 70.8919 89.6377 70.8919 90.3491C70.8919 91.0881 71.0228 91.159 72.3836 91.159C73.8201 91.159 73.8754 91.1222 73.8754 90.1645C73.8754 89.6175 73.838 89.1962 73.7925 89.228C73.7471 89.2598 73.0758 89.343 72.3008 89.4126ZM76.5894 90.2474C76.6876 91.2661 76.7655 91.3248 78.0192 91.3248C79.273 91.3248 79.3509 91.2661 79.449 90.2474C79.5528 89.172 79.5498 89.17 78.0192 89.17C76.4887 89.17 76.4857 89.172 76.5894 90.2474ZM82.7157 89.3911C82.594 89.5124 82.4945 89.9599 82.4945 90.3856C82.4945 91.0668 82.6523 91.159 83.8206 91.159C85.073 91.159 85.1466 91.1036 85.1466 90.1645C85.1466 89.2585 85.0484 89.17 84.0417 89.17C83.4337 89.17 82.837 89.2694 82.7157 89.3911ZM86.1242 91.3523C85.9591 100.878 85.9856 101.766 86.4381 101.767C86.8246 101.767 86.8631 100.856 86.6715 96.227C86.5452 93.1798 86.3745 90.619 86.2916 90.5361C86.2087 90.4532 86.1335 90.8205 86.1242 91.3523ZM69.5059 92.8898C69.6544 93.9005 69.6779 93.9165 69.9464 93.1908C70.2309 92.422 70.0804 91.822 69.6037 91.822C69.4638 91.822 69.4197 92.3027 69.5059 92.8898ZM70.5604 92.3998C70.5604 92.8788 72.4659 92.9644 73.1723 92.5168C73.4813 92.3209 73.1319 92.1877 72.0949 92.1051C71.0188 92.0196 70.5604 92.1074 70.5604 92.3998ZM81.5 92.485C81.15 92.7114 81.6217 92.8079 83.0942 92.8115C84.4053 92.8145 85.1091 92.6929 84.9808 92.485C84.7193 92.0617 82.1551 92.0617 81.5 92.485ZM65.0627 93.7835C64.9868 93.8594 64.9248 95.5375 64.9248 97.5129V101.104H66.5823H68.2398L68.2866 99.6952C68.3121 98.9205 68.3565 97.2918 68.385 96.0762L68.4371 93.8661L66.819 93.7557C65.9289 93.695 65.1386 93.7076 65.0627 93.7835ZM82.163 97.1261V100.773H83.8206H85.4781V97.1261V93.4795H83.8206H82.163V97.1261ZM70.8919 97.4758V101.141L72.4665 101.039L74.0412 100.938L74.1353 97.3747L74.2295 93.811H72.5607H70.8919V97.4758ZM76.196 97.2918V100.773H78.0192H79.8425V97.2918V93.811H78.0192H76.196V97.2918ZM47.6866 95.3028C47.6866 96.242 47.8129 96.4631 48.3496 96.4631C48.8863 96.4631 49.0126 96.242 49.0126 95.3028C49.0126 94.3637 48.8863 94.1425 48.3496 94.1425C47.8129 94.1425 47.6866 94.3637 47.6866 95.3028ZM69.592 94.6673C69.608 95.0535 69.6865 95.1321 69.7923 94.8679C69.8881 94.6285 69.8762 94.3424 69.7661 94.2324C69.656 94.1223 69.5778 94.3179 69.592 94.6673ZM103.048 95.2839C103.048 96.4627 103.048 96.4631 104.56 96.4631C106.067 96.4631 106.073 96.4591 105.969 95.3857C105.872 94.3743 105.779 94.302 104.457 94.2065L103.048 94.1044V95.2839ZM106.943 94.362C107.171 94.4541 107.544 94.4541 107.772 94.362C108 94.2702 107.813 94.1949 107.357 94.1949C106.902 94.1949 106.715 94.2702 106.943 94.362ZM106.444 95.8829C106.654 96.5204 108.02 96.6122 108.02 95.989C108.02 95.6506 107.721 95.4686 107.164 95.4686C106.627 95.4686 106.359 95.623 106.444 95.8829ZM52.2023 96.8413C51.9282 98.2118 51.9414 98.4521 52.2915 98.4521C52.6446 98.4521 52.9608 96.1524 52.6353 95.9512C52.5106 95.874 52.3157 96.2744 52.2023 96.8413ZM57.464 100.991C56.8944 102.801 56.8951 102.883 57.4819 103.312C58.3557 103.95 59.8355 103.874 60.1064 103.176C60.3202 102.624 58.7237 99.1191 58.2573 99.1161C58.1455 99.1158 57.7885 99.9591 57.464 100.991ZM53.5154 100.397C53.3725 100.628 53.3453 100.906 53.4547 101.016C53.7514 101.312 54.075 100.876 53.9145 100.395C53.8025 100.059 53.7243 100.059 53.5154 100.397ZM91.0033 100.331C90.8816 100.452 90.7821 100.825 90.7821 101.159C90.7821 101.494 90.633 101.767 90.4506 101.767C90.2683 101.767 90.1191 102.215 90.1191 102.762C90.1191 103.624 90.2401 103.757 91.0308 103.761C92.2235 103.768 92.7871 104.151 93.2956 105.301L93.712 106.242L93.7388 105.201C93.7541 104.602 93.5721 104.084 93.3102 103.984C93.0599 103.888 92.7536 103.238 92.6296 102.54C92.5056 101.841 92.3276 101.009 92.2338 100.69C92.0628 100.107 91.4157 99.9183 91.0033 100.331ZM83.7417 101.67C84.154 101.749 84.7508 101.746 85.0677 101.663C85.3846 101.581 85.0471 101.516 84.3178 101.519C83.5885 101.523 83.3293 101.591 83.7417 101.67ZM76.3305 103.22C75.8717 104.416 76.3232 104.913 77.9619 105.019L79.5557 105.12L79.4507 104.024C79.3512 102.99 79.2647 102.921 77.9334 102.825C76.915 102.752 76.4681 102.862 76.3305 103.22ZM56.1002 104.238C55.9987 104.502 56.012 104.875 56.13 105.066C56.4479 105.58 57.0681 105.488 56.8643 104.957C56.7678 104.706 56.8563 104.333 57.0609 104.128C57.3357 103.853 57.283 103.756 56.859 103.756C56.543 103.756 56.2016 103.973 56.1002 104.238Z" fill="black"/>
</svg>
