<svg width="23" height="27" viewBox="0 0 23 27" fill="none" xmlns="http://www.w3.org/2000/svg">
<path d="M22.1847 11.0132C20.0149 11.0185 17.8983 10.3189 16.1339 9.01312V18.12C16.1333 19.8068 15.6346 21.4531 14.7046 22.8389C13.7746 24.2246 12.4576 25.2839 10.9296 25.8749C9.40161 26.4659 7.73554 26.5605 6.15414 26.1461C4.57275 25.7317 3.15141 24.828 2.08018 23.5558C1.00896 22.2837 0.338904 20.7038 0.159617 19.0273C-0.0196705 17.3508 0.300355 15.6577 1.0769 14.1743C1.85345 12.691 3.0495 11.4881 4.50513 10.7265C5.96076 9.96487 7.60659 9.68089 9.22254 9.9125V14.493C8.48308 14.2525 7.68903 14.2597 6.95379 14.5137C6.21854 14.7676 5.57971 15.2552 5.12851 15.9069C4.67732 16.5586 4.43683 17.3411 4.44139 18.1425C4.44596 18.944 4.69535 19.7234 5.15394 20.3696C5.61253 21.0158 6.25687 21.4956 6.99496 21.7405C7.73304 21.9855 8.52712 21.9831 9.26379 21.7336C10.0005 21.4841 10.642 21.0004 11.0969 20.3514C11.5518 19.7025 11.7967 18.9215 11.7967 18.12V0.316895H16.1339C16.1309 0.695572 16.1615 1.07373 16.2255 1.4466C16.3762 2.27896 16.6896 3.07079 17.1465 3.77364C17.6033 4.4765 18.194 5.07561 18.8825 5.53432C19.862 6.20394 21.0104 6.56084 22.1847 6.56058V11.0132Z" fill="black"/>
</svg>
