<svg width="26" height="22" viewBox="0 0 26 22" fill="none" xmlns="http://www.w3.org/2000/svg">
<path d="M25.2548 2.61644C24.3274 3.04266 23.3293 3.33016 22.2821 3.45882C23.3514 2.79699 24.1712 1.74864 24.5578 0.498046C23.5577 1.1117 22.4506 1.55698 21.2713 1.79735C20.3275 0.757484 18.9822 0.1073 17.4936 0.1073C14.6356 0.1073 12.3184 2.50313 12.3184 5.45861C12.3184 5.87742 12.364 6.28564 12.4526 6.67797C8.15107 6.45454 4.33705 4.3245 1.78429 1.08681C1.33878 1.87677 1.08376 2.79593 1.08376 3.77756C1.08376 5.63386 1.99732 7.27203 3.3861 8.23142C2.53808 8.20336 1.73974 7.96246 1.04176 7.56165C1.04125 7.58389 1.04125 7.60666 1.04125 7.62942C1.04125 10.2217 2.82537 12.384 5.19326 12.8764C4.75901 12.9982 4.30171 13.0639 3.82957 13.0639C3.49569 13.0639 3.17154 13.0305 2.85558 12.9675C3.51463 15.0933 5.42575 16.6409 7.6902 16.6838C5.91889 18.1192 3.68772 18.9748 1.26247 18.9748C0.845124 18.9748 0.432893 18.9494 0.027832 18.8996C2.31891 20.4187 5.03912 21.3039 7.9616 21.3039C17.4818 21.3039 22.6872 13.1502 22.6872 6.07862C22.6872 5.84671 22.6826 5.61533 22.6728 5.38555C23.6837 4.63264 24.5614 3.68967 25.2548 2.61644Z" fill="black"/>
</svg>
